%TF.GenerationSoftware,KiCad,Pcbnew,(6.0.1)*%
%TF.CreationDate,2023-01-19T10:52:25+01:00*%
%TF.ProjectId,swd-jlink-adapter,7377642d-6a6c-4696-9e6b-2d6164617074,rev?*%
%TF.SameCoordinates,Original*%
%TF.FileFunction,Legend,Top*%
%TF.FilePolarity,Positive*%
%FSLAX46Y46*%
G04 Gerber Fmt 4.6, Leading zero omitted, Abs format (unit mm)*
G04 Created by KiCad (PCBNEW (6.0.1)) date 2023-01-19 10:52:25*
%MOMM*%
%LPD*%
G01*
G04 APERTURE LIST*
%ADD10C,0.150000*%
%ADD11C,0.120000*%
G04 APERTURE END LIST*
D10*
X167000000Y-68500000D02*
X168600000Y-68500000D01*
X168600000Y-68500000D02*
X168600000Y-80750000D01*
X168600000Y-80750000D02*
X167000000Y-80750000D01*
X167000000Y-80750000D02*
X167000000Y-68500000D01*
X163800000Y-68500000D02*
X165400000Y-68500000D01*
X165400000Y-68500000D02*
X165400000Y-80750000D01*
X165400000Y-80750000D02*
X163800000Y-80750000D01*
X163800000Y-80750000D02*
X163800000Y-68500000D01*
X133400000Y-80750000D02*
X158500000Y-80750000D01*
X158500000Y-80750000D02*
X158500000Y-101500000D01*
X158500000Y-101500000D02*
X133400000Y-101500000D01*
X133400000Y-101500000D02*
X133400000Y-80750000D01*
X165400000Y-68500000D02*
X167000000Y-68500000D01*
X167000000Y-68500000D02*
X167000000Y-80750000D01*
X167000000Y-80750000D02*
X165400000Y-80750000D01*
X165400000Y-80750000D02*
X165400000Y-68500000D01*
X155800000Y-68500000D02*
X157400000Y-68500000D01*
X157400000Y-68500000D02*
X157400000Y-80750000D01*
X157400000Y-80750000D02*
X155800000Y-80750000D01*
X155800000Y-80750000D02*
X155800000Y-68500000D01*
X153700000Y-80750000D02*
X155300000Y-80750000D01*
X155300000Y-80750000D02*
X155300000Y-90400000D01*
X155300000Y-90400000D02*
X153700000Y-90400000D01*
X153700000Y-90400000D02*
X153700000Y-80750000D01*
X156900000Y-80750000D02*
X158500000Y-80750000D01*
X158500000Y-80750000D02*
X158500000Y-90400000D01*
X158500000Y-90400000D02*
X156900000Y-90400000D01*
X156900000Y-90400000D02*
X156900000Y-80750000D01*
X154200000Y-68500000D02*
X155800000Y-68500000D01*
X155800000Y-68500000D02*
X155800000Y-80750000D01*
X155800000Y-80750000D02*
X154200000Y-80750000D01*
X154200000Y-80750000D02*
X154200000Y-68500000D01*
X163300000Y-87850000D02*
X168600000Y-87850000D01*
X168600000Y-87850000D02*
X168600000Y-90350000D01*
X168600000Y-90350000D02*
X163300000Y-90350000D01*
X163300000Y-90350000D02*
X163300000Y-87850000D01*
X163300000Y-85250000D02*
X168600000Y-85250000D01*
X168600000Y-85250000D02*
X168600000Y-87750000D01*
X168600000Y-87750000D02*
X163300000Y-87750000D01*
X163300000Y-87750000D02*
X163300000Y-85250000D01*
X155300000Y-80750000D02*
X156900000Y-80750000D01*
X156900000Y-80750000D02*
X156900000Y-90400000D01*
X156900000Y-90400000D02*
X155300000Y-90400000D01*
X155300000Y-90400000D02*
X155300000Y-80750000D01*
X154250000Y-74250000D02*
X168500000Y-74250000D01*
X150500000Y-80750000D02*
X152100000Y-80750000D01*
X152100000Y-80750000D02*
X152100000Y-90400000D01*
X152100000Y-90400000D02*
X150500000Y-90400000D01*
X150500000Y-90400000D02*
X150500000Y-80750000D01*
X163300000Y-95600000D02*
X168600000Y-95600000D01*
X168600000Y-95600000D02*
X168600000Y-98100000D01*
X168600000Y-98100000D02*
X163300000Y-98100000D01*
X163300000Y-98100000D02*
X163300000Y-95600000D01*
X162200000Y-68500000D02*
X163800000Y-68500000D01*
X163800000Y-68500000D02*
X163800000Y-80750000D01*
X163800000Y-80750000D02*
X162200000Y-80750000D01*
X162200000Y-80750000D02*
X162200000Y-68500000D01*
X163285766Y-82650000D02*
X168585766Y-82650000D01*
X168585766Y-82650000D02*
X168585766Y-85150000D01*
X168585766Y-85150000D02*
X163285766Y-85150000D01*
X163285766Y-85150000D02*
X163285766Y-82650000D01*
X133400000Y-68500000D02*
X168600000Y-68500000D01*
X168600000Y-68500000D02*
X168600000Y-80750000D01*
X168600000Y-80750000D02*
X133400000Y-80750000D01*
X133400000Y-80750000D02*
X133400000Y-68500000D01*
X160600000Y-68500000D02*
X162200000Y-68500000D01*
X162200000Y-68500000D02*
X162200000Y-80750000D01*
X162200000Y-80750000D02*
X160600000Y-80750000D01*
X160600000Y-80750000D02*
X160600000Y-68500000D01*
X152100000Y-80750000D02*
X153700000Y-80750000D01*
X153700000Y-80750000D02*
X153700000Y-90400000D01*
X153700000Y-90400000D02*
X152100000Y-90400000D01*
X152100000Y-90400000D02*
X152100000Y-80750000D01*
X150600000Y-85300000D02*
X158500000Y-85300000D01*
X157400000Y-68500000D02*
X159000000Y-68500000D01*
X159000000Y-68500000D02*
X159000000Y-80750000D01*
X159000000Y-80750000D02*
X157400000Y-80750000D01*
X157400000Y-80750000D02*
X157400000Y-68500000D01*
X163300000Y-90450000D02*
X168600000Y-90450000D01*
X168600000Y-90450000D02*
X168600000Y-92950000D01*
X168600000Y-92950000D02*
X163300000Y-92950000D01*
X163300000Y-92950000D02*
X163300000Y-90450000D01*
X163300000Y-93050000D02*
X168600000Y-93050000D01*
X168600000Y-93050000D02*
X168600000Y-95550000D01*
X168600000Y-95550000D02*
X163300000Y-95550000D01*
X163300000Y-95550000D02*
X163300000Y-93050000D01*
X159000000Y-68500000D02*
X160600000Y-68500000D01*
X160600000Y-68500000D02*
X160600000Y-80750000D01*
X160600000Y-80750000D02*
X159000000Y-80750000D01*
X159000000Y-80750000D02*
X159000000Y-68500000D01*
X158500000Y-80750000D02*
X168600000Y-80750000D01*
X168600000Y-80750000D02*
X168600000Y-101500000D01*
X168600000Y-101500000D02*
X158500000Y-101500000D01*
X158500000Y-101500000D02*
X158500000Y-80750000D01*
X150832380Y-89907261D02*
X151832380Y-89573928D01*
X150832380Y-89240595D01*
X150832380Y-89050119D02*
X150832380Y-88478690D01*
X151832380Y-88764404D02*
X150832380Y-88764404D01*
X151832380Y-87573928D02*
X151356190Y-87907261D01*
X151832380Y-88145357D02*
X150832380Y-88145357D01*
X150832380Y-87764404D01*
X150880000Y-87669166D01*
X150927619Y-87621547D01*
X151022857Y-87573928D01*
X151165714Y-87573928D01*
X151260952Y-87621547D01*
X151308571Y-87669166D01*
X151356190Y-87764404D01*
X151356190Y-88145357D01*
X151308571Y-87145357D02*
X151308571Y-86812023D01*
X151832380Y-86669166D02*
X151832380Y-87145357D01*
X150832380Y-87145357D01*
X150832380Y-86669166D01*
X151308571Y-85907261D02*
X151308571Y-86240595D01*
X151832380Y-86240595D02*
X150832380Y-86240595D01*
X150832380Y-85764404D01*
X150832380Y-84764404D02*
X150832380Y-84192976D01*
X151832380Y-84478690D02*
X150832380Y-84478690D01*
X151832380Y-83859642D02*
X150832380Y-83859642D01*
X151546666Y-83526309D01*
X150832380Y-83192976D01*
X151832380Y-83192976D01*
X151784761Y-82764404D02*
X151832380Y-82621547D01*
X151832380Y-82383452D01*
X151784761Y-82288214D01*
X151737142Y-82240595D01*
X151641904Y-82192976D01*
X151546666Y-82192976D01*
X151451428Y-82240595D01*
X151403809Y-82288214D01*
X151356190Y-82383452D01*
X151308571Y-82573928D01*
X151260952Y-82669166D01*
X151213333Y-82716785D01*
X151118095Y-82764404D01*
X151022857Y-82764404D01*
X150927619Y-82716785D01*
X150880000Y-82669166D01*
X150832380Y-82573928D01*
X150832380Y-82335833D01*
X150880000Y-82192976D01*
X152490000Y-89240595D02*
X152442380Y-89335833D01*
X152442380Y-89478690D01*
X152490000Y-89621547D01*
X152585238Y-89716785D01*
X152680476Y-89764404D01*
X152870952Y-89812023D01*
X153013809Y-89812023D01*
X153204285Y-89764404D01*
X153299523Y-89716785D01*
X153394761Y-89621547D01*
X153442380Y-89478690D01*
X153442380Y-89383452D01*
X153394761Y-89240595D01*
X153347142Y-89192976D01*
X153013809Y-89192976D01*
X153013809Y-89383452D01*
X153442380Y-88764404D02*
X152442380Y-88764404D01*
X153442380Y-88192976D01*
X152442380Y-88192976D01*
X153442380Y-87716785D02*
X152442380Y-87716785D01*
X152442380Y-87478690D01*
X152490000Y-87335833D01*
X152585238Y-87240595D01*
X152680476Y-87192976D01*
X152870952Y-87145357D01*
X153013809Y-87145357D01*
X153204285Y-87192976D01*
X153299523Y-87240595D01*
X153394761Y-87335833D01*
X153442380Y-87478690D01*
X153442380Y-87716785D01*
X152442380Y-84573928D02*
X152442380Y-84002500D01*
X153442380Y-84288214D02*
X152442380Y-84288214D01*
X153347142Y-83097738D02*
X153394761Y-83145357D01*
X153442380Y-83288214D01*
X153442380Y-83383452D01*
X153394761Y-83526309D01*
X153299523Y-83621547D01*
X153204285Y-83669166D01*
X153013809Y-83716785D01*
X152870952Y-83716785D01*
X152680476Y-83669166D01*
X152585238Y-83621547D01*
X152490000Y-83526309D01*
X152442380Y-83383452D01*
X152442380Y-83288214D01*
X152490000Y-83145357D01*
X152537619Y-83097738D01*
X153442380Y-82192976D02*
X153442380Y-82669166D01*
X152442380Y-82669166D01*
X153442380Y-81859642D02*
X152442380Y-81859642D01*
X153442380Y-81288214D02*
X152870952Y-81716785D01*
X152442380Y-81288214D02*
X153013809Y-81859642D01*
X154100000Y-89240595D02*
X154052380Y-89335833D01*
X154052380Y-89478690D01*
X154100000Y-89621547D01*
X154195238Y-89716785D01*
X154290476Y-89764404D01*
X154480952Y-89812023D01*
X154623809Y-89812023D01*
X154814285Y-89764404D01*
X154909523Y-89716785D01*
X155004761Y-89621547D01*
X155052380Y-89478690D01*
X155052380Y-89383452D01*
X155004761Y-89240595D01*
X154957142Y-89192976D01*
X154623809Y-89192976D01*
X154623809Y-89383452D01*
X155052380Y-88764404D02*
X154052380Y-88764404D01*
X155052380Y-88192976D01*
X154052380Y-88192976D01*
X155052380Y-87716785D02*
X154052380Y-87716785D01*
X154052380Y-87478690D01*
X154100000Y-87335833D01*
X154195238Y-87240595D01*
X154290476Y-87192976D01*
X154480952Y-87145357D01*
X154623809Y-87145357D01*
X154814285Y-87192976D01*
X154909523Y-87240595D01*
X155004761Y-87335833D01*
X155052380Y-87478690D01*
X155052380Y-87716785D01*
X154052380Y-84573928D02*
X154052380Y-84002500D01*
X155052380Y-84288214D02*
X154052380Y-84288214D01*
X155052380Y-83669166D02*
X154052380Y-83669166D01*
X154052380Y-83431071D01*
X154100000Y-83288214D01*
X154195238Y-83192976D01*
X154290476Y-83145357D01*
X154480952Y-83097738D01*
X154623809Y-83097738D01*
X154814285Y-83145357D01*
X154909523Y-83192976D01*
X155004761Y-83288214D01*
X155052380Y-83431071D01*
X155052380Y-83669166D01*
X154052380Y-82478690D02*
X154052380Y-82288214D01*
X154100000Y-82192976D01*
X154195238Y-82097738D01*
X154385714Y-82050119D01*
X154719047Y-82050119D01*
X154909523Y-82097738D01*
X155004761Y-82192976D01*
X155052380Y-82288214D01*
X155052380Y-82478690D01*
X155004761Y-82573928D01*
X154909523Y-82669166D01*
X154719047Y-82716785D01*
X154385714Y-82716785D01*
X154195238Y-82669166D01*
X154100000Y-82573928D01*
X154052380Y-82478690D01*
X155710000Y-89240595D02*
X155662380Y-89335833D01*
X155662380Y-89478690D01*
X155710000Y-89621547D01*
X155805238Y-89716785D01*
X155900476Y-89764404D01*
X156090952Y-89812023D01*
X156233809Y-89812023D01*
X156424285Y-89764404D01*
X156519523Y-89716785D01*
X156614761Y-89621547D01*
X156662380Y-89478690D01*
X156662380Y-89383452D01*
X156614761Y-89240595D01*
X156567142Y-89192976D01*
X156233809Y-89192976D01*
X156233809Y-89383452D01*
X156662380Y-88764404D02*
X155662380Y-88764404D01*
X156662380Y-88192976D01*
X155662380Y-88192976D01*
X156662380Y-87716785D02*
X155662380Y-87716785D01*
X155662380Y-87478690D01*
X155710000Y-87335833D01*
X155805238Y-87240595D01*
X155900476Y-87192976D01*
X156090952Y-87145357D01*
X156233809Y-87145357D01*
X156424285Y-87192976D01*
X156519523Y-87240595D01*
X156614761Y-87335833D01*
X156662380Y-87478690D01*
X156662380Y-87716785D01*
X155662380Y-84573928D02*
X155662380Y-84002500D01*
X156662380Y-84288214D02*
X155662380Y-84288214D01*
X156662380Y-83669166D02*
X155662380Y-83669166D01*
X155662380Y-83431071D01*
X155710000Y-83288214D01*
X155805238Y-83192976D01*
X155900476Y-83145357D01*
X156090952Y-83097738D01*
X156233809Y-83097738D01*
X156424285Y-83145357D01*
X156519523Y-83192976D01*
X156614761Y-83288214D01*
X156662380Y-83431071D01*
X156662380Y-83669166D01*
X156662380Y-82669166D02*
X155662380Y-82669166D01*
X157320000Y-89240595D02*
X157272380Y-89335833D01*
X157272380Y-89478690D01*
X157320000Y-89621547D01*
X157415238Y-89716785D01*
X157510476Y-89764404D01*
X157700952Y-89812023D01*
X157843809Y-89812023D01*
X158034285Y-89764404D01*
X158129523Y-89716785D01*
X158224761Y-89621547D01*
X158272380Y-89478690D01*
X158272380Y-89383452D01*
X158224761Y-89240595D01*
X158177142Y-89192976D01*
X157843809Y-89192976D01*
X157843809Y-89383452D01*
X158272380Y-88764404D02*
X157272380Y-88764404D01*
X158272380Y-88192976D01*
X157272380Y-88192976D01*
X158272380Y-87716785D02*
X157272380Y-87716785D01*
X157272380Y-87478690D01*
X157320000Y-87335833D01*
X157415238Y-87240595D01*
X157510476Y-87192976D01*
X157700952Y-87145357D01*
X157843809Y-87145357D01*
X158034285Y-87192976D01*
X158129523Y-87240595D01*
X158224761Y-87335833D01*
X158272380Y-87478690D01*
X158272380Y-87716785D01*
X158272380Y-84431071D02*
X157272380Y-84431071D01*
X158272380Y-83859642D01*
X157272380Y-83859642D01*
X158272380Y-82812023D02*
X157796190Y-83145357D01*
X158272380Y-83383452D02*
X157272380Y-83383452D01*
X157272380Y-83002500D01*
X157320000Y-82907261D01*
X157367619Y-82859642D01*
X157462857Y-82812023D01*
X157605714Y-82812023D01*
X157700952Y-82859642D01*
X157748571Y-82907261D01*
X157796190Y-83002500D01*
X157796190Y-83383452D01*
X158224761Y-82431071D02*
X158272380Y-82288214D01*
X158272380Y-82050119D01*
X158224761Y-81954880D01*
X158177142Y-81907261D01*
X158081904Y-81859642D01*
X157986666Y-81859642D01*
X157891428Y-81907261D01*
X157843809Y-81954880D01*
X157796190Y-82050119D01*
X157748571Y-82240595D01*
X157700952Y-82335833D01*
X157653333Y-82383452D01*
X157558095Y-82431071D01*
X157462857Y-82431071D01*
X157367619Y-82383452D01*
X157320000Y-82335833D01*
X157272380Y-82240595D01*
X157272380Y-82002500D01*
X157320000Y-81859642D01*
X157272380Y-81573928D02*
X157272380Y-81002500D01*
X158272380Y-81288214D02*
X157272380Y-81288214D01*
X164238095Y-91300000D02*
X164142857Y-91252380D01*
X164000000Y-91252380D01*
X163857142Y-91300000D01*
X163761904Y-91395238D01*
X163714285Y-91490476D01*
X163666666Y-91680952D01*
X163666666Y-91823809D01*
X163714285Y-92014285D01*
X163761904Y-92109523D01*
X163857142Y-92204761D01*
X164000000Y-92252380D01*
X164095238Y-92252380D01*
X164238095Y-92204761D01*
X164285714Y-92157142D01*
X164285714Y-91823809D01*
X164095238Y-91823809D01*
X164714285Y-92252380D02*
X164714285Y-91252380D01*
X165285714Y-92252380D01*
X165285714Y-91252380D01*
X165761904Y-92252380D02*
X165761904Y-91252380D01*
X166000000Y-91252380D01*
X166142857Y-91300000D01*
X166238095Y-91395238D01*
X166285714Y-91490476D01*
X166333333Y-91680952D01*
X166333333Y-91823809D01*
X166285714Y-92014285D01*
X166238095Y-92109523D01*
X166142857Y-92204761D01*
X166000000Y-92252380D01*
X165761904Y-92252380D01*
X163819047Y-84604761D02*
X163961904Y-84652380D01*
X164200000Y-84652380D01*
X164295238Y-84604761D01*
X164342857Y-84557142D01*
X164390476Y-84461904D01*
X164390476Y-84366666D01*
X164342857Y-84271428D01*
X164295238Y-84223809D01*
X164200000Y-84176190D01*
X164009523Y-84128571D01*
X163914285Y-84080952D01*
X163866666Y-84033333D01*
X163819047Y-83938095D01*
X163819047Y-83842857D01*
X163866666Y-83747619D01*
X163914285Y-83700000D01*
X164009523Y-83652380D01*
X164247619Y-83652380D01*
X164390476Y-83700000D01*
X164723809Y-83652380D02*
X164961904Y-84652380D01*
X165152380Y-83938095D01*
X165342857Y-84652380D01*
X165580952Y-83652380D01*
X166152380Y-83652380D02*
X166342857Y-83652380D01*
X166438095Y-83700000D01*
X166533333Y-83795238D01*
X166580952Y-83985714D01*
X166580952Y-84319047D01*
X166533333Y-84509523D01*
X166438095Y-84604761D01*
X166342857Y-84652380D01*
X166152380Y-84652380D01*
X166057142Y-84604761D01*
X165961904Y-84509523D01*
X165914285Y-84319047D01*
X165914285Y-83985714D01*
X165961904Y-83795238D01*
X166057142Y-83700000D01*
X166152380Y-83652380D01*
X163757142Y-87252380D02*
X163757142Y-86252380D01*
X164328571Y-87252380D01*
X164328571Y-86252380D01*
X165376190Y-87252380D02*
X165042857Y-86776190D01*
X164804761Y-87252380D02*
X164804761Y-86252380D01*
X165185714Y-86252380D01*
X165280952Y-86300000D01*
X165328571Y-86347619D01*
X165376190Y-86442857D01*
X165376190Y-86585714D01*
X165328571Y-86680952D01*
X165280952Y-86728571D01*
X165185714Y-86776190D01*
X164804761Y-86776190D01*
X165757142Y-87204761D02*
X165900000Y-87252380D01*
X166138095Y-87252380D01*
X166233333Y-87204761D01*
X166280952Y-87157142D01*
X166328571Y-87061904D01*
X166328571Y-86966666D01*
X166280952Y-86871428D01*
X166233333Y-86823809D01*
X166138095Y-86776190D01*
X165947619Y-86728571D01*
X165852380Y-86680952D01*
X165804761Y-86633333D01*
X165757142Y-86538095D01*
X165757142Y-86442857D01*
X165804761Y-86347619D01*
X165852380Y-86300000D01*
X165947619Y-86252380D01*
X166185714Y-86252380D01*
X166328571Y-86300000D01*
X166614285Y-86252380D02*
X167185714Y-86252380D01*
X166900000Y-87252380D02*
X166900000Y-86252380D01*
X163680952Y-89604761D02*
X163823809Y-89652380D01*
X164061904Y-89652380D01*
X164157142Y-89604761D01*
X164204761Y-89557142D01*
X164252380Y-89461904D01*
X164252380Y-89366666D01*
X164204761Y-89271428D01*
X164157142Y-89223809D01*
X164061904Y-89176190D01*
X163871428Y-89128571D01*
X163776190Y-89080952D01*
X163728571Y-89033333D01*
X163680952Y-88938095D01*
X163680952Y-88842857D01*
X163728571Y-88747619D01*
X163776190Y-88700000D01*
X163871428Y-88652380D01*
X164109523Y-88652380D01*
X164252380Y-88700000D01*
X164585714Y-88652380D02*
X164823809Y-89652380D01*
X165014285Y-88938095D01*
X165204761Y-89652380D01*
X165442857Y-88652380D01*
X165823809Y-89652380D02*
X165823809Y-88652380D01*
X166061904Y-88652380D01*
X166204761Y-88700000D01*
X166300000Y-88795238D01*
X166347619Y-88890476D01*
X166395238Y-89080952D01*
X166395238Y-89223809D01*
X166347619Y-89414285D01*
X166300000Y-89509523D01*
X166204761Y-89604761D01*
X166061904Y-89652380D01*
X165823809Y-89652380D01*
X166823809Y-89652380D02*
X166823809Y-88652380D01*
X167490476Y-88652380D02*
X167680952Y-88652380D01*
X167776190Y-88700000D01*
X167871428Y-88795238D01*
X167919047Y-88985714D01*
X167919047Y-89319047D01*
X167871428Y-89509523D01*
X167776190Y-89604761D01*
X167680952Y-89652380D01*
X167490476Y-89652380D01*
X167395238Y-89604761D01*
X167300000Y-89509523D01*
X167252380Y-89319047D01*
X167252380Y-88985714D01*
X167300000Y-88795238D01*
X167395238Y-88700000D01*
X167490476Y-88652380D01*
X136185714Y-89552380D02*
X136185714Y-90266666D01*
X136138095Y-90409523D01*
X136042857Y-90504761D01*
X135900000Y-90552380D01*
X135804761Y-90552380D01*
X136519047Y-89552380D02*
X137090476Y-89552380D01*
X136804761Y-90552380D02*
X136804761Y-89552380D01*
X137376190Y-90266666D02*
X137852380Y-90266666D01*
X137280952Y-90552380D02*
X137614285Y-89552380D01*
X137947619Y-90552380D01*
X138804761Y-89600000D02*
X138709523Y-89552380D01*
X138566666Y-89552380D01*
X138423809Y-89600000D01*
X138328571Y-89695238D01*
X138280952Y-89790476D01*
X138233333Y-89980952D01*
X138233333Y-90123809D01*
X138280952Y-90314285D01*
X138328571Y-90409523D01*
X138423809Y-90504761D01*
X138566666Y-90552380D01*
X138661904Y-90552380D01*
X138804761Y-90504761D01*
X138852380Y-90457142D01*
X138852380Y-90123809D01*
X138661904Y-90123809D01*
X139995238Y-89504761D02*
X139138095Y-90790476D01*
X140280952Y-90504761D02*
X140423809Y-90552380D01*
X140661904Y-90552380D01*
X140757142Y-90504761D01*
X140804761Y-90457142D01*
X140852380Y-90361904D01*
X140852380Y-90266666D01*
X140804761Y-90171428D01*
X140757142Y-90123809D01*
X140661904Y-90076190D01*
X140471428Y-90028571D01*
X140376190Y-89980952D01*
X140328571Y-89933333D01*
X140280952Y-89838095D01*
X140280952Y-89742857D01*
X140328571Y-89647619D01*
X140376190Y-89600000D01*
X140471428Y-89552380D01*
X140709523Y-89552380D01*
X140852380Y-89600000D01*
X141185714Y-89552380D02*
X141423809Y-90552380D01*
X141614285Y-89838095D01*
X141804761Y-90552380D01*
X142042857Y-89552380D01*
X142423809Y-90552380D02*
X142423809Y-89552380D01*
X142661904Y-89552380D01*
X142804761Y-89600000D01*
X142900000Y-89695238D01*
X142947619Y-89790476D01*
X142995238Y-89980952D01*
X142995238Y-90123809D01*
X142947619Y-90314285D01*
X142900000Y-90409523D01*
X142804761Y-90504761D01*
X142661904Y-90552380D01*
X142423809Y-90552380D01*
X144709523Y-90552380D02*
X144138095Y-90552380D01*
X144423809Y-90552380D02*
X144423809Y-89552380D01*
X144328571Y-89695238D01*
X144233333Y-89790476D01*
X144138095Y-89838095D01*
X145328571Y-89552380D02*
X145423809Y-89552380D01*
X145519047Y-89600000D01*
X145566666Y-89647619D01*
X145614285Y-89742857D01*
X145661904Y-89933333D01*
X145661904Y-90171428D01*
X145614285Y-90361904D01*
X145566666Y-90457142D01*
X145519047Y-90504761D01*
X145423809Y-90552380D01*
X145328571Y-90552380D01*
X145233333Y-90504761D01*
X145185714Y-90457142D01*
X145138095Y-90361904D01*
X145090476Y-90171428D01*
X145090476Y-89933333D01*
X145138095Y-89742857D01*
X145185714Y-89647619D01*
X145233333Y-89600000D01*
X145328571Y-89552380D01*
X146852380Y-90552380D02*
X146852380Y-89552380D01*
X147233333Y-89552380D01*
X147328571Y-89600000D01*
X147376190Y-89647619D01*
X147423809Y-89742857D01*
X147423809Y-89885714D01*
X147376190Y-89980952D01*
X147328571Y-90028571D01*
X147233333Y-90076190D01*
X146852380Y-90076190D01*
X147852380Y-90552380D02*
X147852380Y-89552380D01*
X148328571Y-90552380D02*
X148328571Y-89552380D01*
X148900000Y-90552380D01*
X148900000Y-89552380D01*
X154462380Y-80557261D02*
X155462380Y-80223928D01*
X154462380Y-79890595D01*
X154462380Y-79700119D02*
X154462380Y-79128690D01*
X155462380Y-79414404D02*
X154462380Y-79414404D01*
X155462380Y-78223928D02*
X154986190Y-78557261D01*
X155462380Y-78795357D02*
X154462380Y-78795357D01*
X154462380Y-78414404D01*
X154510000Y-78319166D01*
X154557619Y-78271547D01*
X154652857Y-78223928D01*
X154795714Y-78223928D01*
X154890952Y-78271547D01*
X154938571Y-78319166D01*
X154986190Y-78414404D01*
X154986190Y-78795357D01*
X154938571Y-77795357D02*
X154938571Y-77462023D01*
X155462380Y-77319166D02*
X155462380Y-77795357D01*
X154462380Y-77795357D01*
X154462380Y-77319166D01*
X154938571Y-76557261D02*
X154938571Y-76890595D01*
X155462380Y-76890595D02*
X154462380Y-76890595D01*
X154462380Y-76414404D01*
X154462380Y-72795357D02*
X155462380Y-72462023D01*
X154462380Y-72128690D01*
X154462380Y-71938214D02*
X154462380Y-71366785D01*
X155462380Y-71652500D02*
X154462380Y-71652500D01*
X155462380Y-70462023D02*
X154986190Y-70795357D01*
X155462380Y-71033452D02*
X154462380Y-71033452D01*
X154462380Y-70652500D01*
X154510000Y-70557261D01*
X154557619Y-70509642D01*
X154652857Y-70462023D01*
X154795714Y-70462023D01*
X154890952Y-70509642D01*
X154938571Y-70557261D01*
X154986190Y-70652500D01*
X154986190Y-71033452D01*
X154938571Y-70033452D02*
X154938571Y-69700119D01*
X155462380Y-69557261D02*
X155462380Y-70033452D01*
X154462380Y-70033452D01*
X154462380Y-69557261D01*
X154938571Y-68795357D02*
X154938571Y-69128690D01*
X155462380Y-69128690D02*
X154462380Y-69128690D01*
X154462380Y-68652500D01*
X156072380Y-80557261D02*
X156072380Y-79985833D01*
X157072380Y-80271547D02*
X156072380Y-80271547D01*
X157072380Y-79081071D02*
X156596190Y-79414404D01*
X157072380Y-79652500D02*
X156072380Y-79652500D01*
X156072380Y-79271547D01*
X156120000Y-79176309D01*
X156167619Y-79128690D01*
X156262857Y-79081071D01*
X156405714Y-79081071D01*
X156500952Y-79128690D01*
X156548571Y-79176309D01*
X156596190Y-79271547D01*
X156596190Y-79652500D01*
X157024761Y-78700119D02*
X157072380Y-78557261D01*
X157072380Y-78319166D01*
X157024761Y-78223928D01*
X156977142Y-78176309D01*
X156881904Y-78128690D01*
X156786666Y-78128690D01*
X156691428Y-78176309D01*
X156643809Y-78223928D01*
X156596190Y-78319166D01*
X156548571Y-78509642D01*
X156500952Y-78604880D01*
X156453333Y-78652500D01*
X156358095Y-78700119D01*
X156262857Y-78700119D01*
X156167619Y-78652500D01*
X156120000Y-78604880D01*
X156072380Y-78509642D01*
X156072380Y-78271547D01*
X156120000Y-78128690D01*
X156072380Y-77842976D02*
X156072380Y-77271547D01*
X157072380Y-77557261D02*
X156072380Y-77557261D01*
X156120000Y-72128690D02*
X156072380Y-72223928D01*
X156072380Y-72366785D01*
X156120000Y-72509642D01*
X156215238Y-72604880D01*
X156310476Y-72652500D01*
X156500952Y-72700119D01*
X156643809Y-72700119D01*
X156834285Y-72652500D01*
X156929523Y-72604880D01*
X157024761Y-72509642D01*
X157072380Y-72366785D01*
X157072380Y-72271547D01*
X157024761Y-72128690D01*
X156977142Y-72081071D01*
X156643809Y-72081071D01*
X156643809Y-72271547D01*
X157072380Y-71652500D02*
X156072380Y-71652500D01*
X157072380Y-71081071D01*
X156072380Y-71081071D01*
X157072380Y-70604880D02*
X156072380Y-70604880D01*
X156072380Y-70366785D01*
X156120000Y-70223928D01*
X156215238Y-70128690D01*
X156310476Y-70081071D01*
X156500952Y-70033452D01*
X156643809Y-70033452D01*
X156834285Y-70081071D01*
X156929523Y-70128690D01*
X157024761Y-70223928D01*
X157072380Y-70366785D01*
X157072380Y-70604880D01*
X157682380Y-80557261D02*
X157682380Y-79985833D01*
X158682380Y-80271547D02*
X157682380Y-80271547D01*
X158682380Y-79652500D02*
X157682380Y-79652500D01*
X157682380Y-79414404D01*
X157730000Y-79271547D01*
X157825238Y-79176309D01*
X157920476Y-79128690D01*
X158110952Y-79081071D01*
X158253809Y-79081071D01*
X158444285Y-79128690D01*
X158539523Y-79176309D01*
X158634761Y-79271547D01*
X158682380Y-79414404D01*
X158682380Y-79652500D01*
X158682380Y-78652500D02*
X157682380Y-78652500D01*
X157730000Y-72128690D02*
X157682380Y-72223928D01*
X157682380Y-72366785D01*
X157730000Y-72509642D01*
X157825238Y-72604880D01*
X157920476Y-72652500D01*
X158110952Y-72700119D01*
X158253809Y-72700119D01*
X158444285Y-72652500D01*
X158539523Y-72604880D01*
X158634761Y-72509642D01*
X158682380Y-72366785D01*
X158682380Y-72271547D01*
X158634761Y-72128690D01*
X158587142Y-72081071D01*
X158253809Y-72081071D01*
X158253809Y-72271547D01*
X158682380Y-71652500D02*
X157682380Y-71652500D01*
X158682380Y-71081071D01*
X157682380Y-71081071D01*
X158682380Y-70604880D02*
X157682380Y-70604880D01*
X157682380Y-70366785D01*
X157730000Y-70223928D01*
X157825238Y-70128690D01*
X157920476Y-70081071D01*
X158110952Y-70033452D01*
X158253809Y-70033452D01*
X158444285Y-70081071D01*
X158539523Y-70128690D01*
X158634761Y-70223928D01*
X158682380Y-70366785D01*
X158682380Y-70604880D01*
X159292380Y-80557261D02*
X159292380Y-79985833D01*
X160292380Y-80271547D02*
X159292380Y-80271547D01*
X160292380Y-79652500D02*
X159292380Y-79652500D01*
X160006666Y-79319166D01*
X159292380Y-78985833D01*
X160292380Y-78985833D01*
X160244761Y-78557261D02*
X160292380Y-78414404D01*
X160292380Y-78176309D01*
X160244761Y-78081071D01*
X160197142Y-78033452D01*
X160101904Y-77985833D01*
X160006666Y-77985833D01*
X159911428Y-78033452D01*
X159863809Y-78081071D01*
X159816190Y-78176309D01*
X159768571Y-78366785D01*
X159720952Y-78462023D01*
X159673333Y-78509642D01*
X159578095Y-78557261D01*
X159482857Y-78557261D01*
X159387619Y-78509642D01*
X159340000Y-78462023D01*
X159292380Y-78366785D01*
X159292380Y-78128690D01*
X159340000Y-77985833D01*
X159340000Y-72128690D02*
X159292380Y-72223928D01*
X159292380Y-72366785D01*
X159340000Y-72509642D01*
X159435238Y-72604880D01*
X159530476Y-72652500D01*
X159720952Y-72700119D01*
X159863809Y-72700119D01*
X160054285Y-72652500D01*
X160149523Y-72604880D01*
X160244761Y-72509642D01*
X160292380Y-72366785D01*
X160292380Y-72271547D01*
X160244761Y-72128690D01*
X160197142Y-72081071D01*
X159863809Y-72081071D01*
X159863809Y-72271547D01*
X160292380Y-71652500D02*
X159292380Y-71652500D01*
X160292380Y-71081071D01*
X159292380Y-71081071D01*
X160292380Y-70604880D02*
X159292380Y-70604880D01*
X159292380Y-70366785D01*
X159340000Y-70223928D01*
X159435238Y-70128690D01*
X159530476Y-70081071D01*
X159720952Y-70033452D01*
X159863809Y-70033452D01*
X160054285Y-70081071D01*
X160149523Y-70128690D01*
X160244761Y-70223928D01*
X160292380Y-70366785D01*
X160292380Y-70604880D01*
X161902380Y-79842976D02*
X161426190Y-80176309D01*
X161902380Y-80414404D02*
X160902380Y-80414404D01*
X160902380Y-80033452D01*
X160950000Y-79938214D01*
X160997619Y-79890595D01*
X161092857Y-79842976D01*
X161235714Y-79842976D01*
X161330952Y-79890595D01*
X161378571Y-79938214D01*
X161426190Y-80033452D01*
X161426190Y-80414404D01*
X160902380Y-79557261D02*
X160902380Y-78985833D01*
X161902380Y-79271547D02*
X160902380Y-79271547D01*
X161807142Y-78081071D02*
X161854761Y-78128690D01*
X161902380Y-78271547D01*
X161902380Y-78366785D01*
X161854761Y-78509642D01*
X161759523Y-78604880D01*
X161664285Y-78652500D01*
X161473809Y-78700119D01*
X161330952Y-78700119D01*
X161140476Y-78652500D01*
X161045238Y-78604880D01*
X160950000Y-78509642D01*
X160902380Y-78366785D01*
X160902380Y-78271547D01*
X160950000Y-78128690D01*
X160997619Y-78081071D01*
X161902380Y-77652500D02*
X160902380Y-77652500D01*
X161902380Y-77081071D02*
X161330952Y-77509642D01*
X160902380Y-77081071D02*
X161473809Y-77652500D01*
X160950000Y-72128690D02*
X160902380Y-72223928D01*
X160902380Y-72366785D01*
X160950000Y-72509642D01*
X161045238Y-72604880D01*
X161140476Y-72652500D01*
X161330952Y-72700119D01*
X161473809Y-72700119D01*
X161664285Y-72652500D01*
X161759523Y-72604880D01*
X161854761Y-72509642D01*
X161902380Y-72366785D01*
X161902380Y-72271547D01*
X161854761Y-72128690D01*
X161807142Y-72081071D01*
X161473809Y-72081071D01*
X161473809Y-72271547D01*
X161902380Y-71652500D02*
X160902380Y-71652500D01*
X161902380Y-71081071D01*
X160902380Y-71081071D01*
X161902380Y-70604880D02*
X160902380Y-70604880D01*
X160902380Y-70366785D01*
X160950000Y-70223928D01*
X161045238Y-70128690D01*
X161140476Y-70081071D01*
X161330952Y-70033452D01*
X161473809Y-70033452D01*
X161664285Y-70081071D01*
X161759523Y-70128690D01*
X161854761Y-70223928D01*
X161902380Y-70366785D01*
X161902380Y-70604880D01*
X162512380Y-80557261D02*
X162512380Y-79985833D01*
X163512380Y-80271547D02*
X162512380Y-80271547D01*
X163512380Y-79652500D02*
X162512380Y-79652500D01*
X162512380Y-79414404D01*
X162560000Y-79271547D01*
X162655238Y-79176309D01*
X162750476Y-79128690D01*
X162940952Y-79081071D01*
X163083809Y-79081071D01*
X163274285Y-79128690D01*
X163369523Y-79176309D01*
X163464761Y-79271547D01*
X163512380Y-79414404D01*
X163512380Y-79652500D01*
X162512380Y-78462023D02*
X162512380Y-78271547D01*
X162560000Y-78176309D01*
X162655238Y-78081071D01*
X162845714Y-78033452D01*
X163179047Y-78033452D01*
X163369523Y-78081071D01*
X163464761Y-78176309D01*
X163512380Y-78271547D01*
X163512380Y-78462023D01*
X163464761Y-78557261D01*
X163369523Y-78652500D01*
X163179047Y-78700119D01*
X162845714Y-78700119D01*
X162655238Y-78652500D01*
X162560000Y-78557261D01*
X162512380Y-78462023D01*
X162560000Y-72128690D02*
X162512380Y-72223928D01*
X162512380Y-72366785D01*
X162560000Y-72509642D01*
X162655238Y-72604880D01*
X162750476Y-72652500D01*
X162940952Y-72700119D01*
X163083809Y-72700119D01*
X163274285Y-72652500D01*
X163369523Y-72604880D01*
X163464761Y-72509642D01*
X163512380Y-72366785D01*
X163512380Y-72271547D01*
X163464761Y-72128690D01*
X163417142Y-72081071D01*
X163083809Y-72081071D01*
X163083809Y-72271547D01*
X163512380Y-71652500D02*
X162512380Y-71652500D01*
X163512380Y-71081071D01*
X162512380Y-71081071D01*
X163512380Y-70604880D02*
X162512380Y-70604880D01*
X162512380Y-70366785D01*
X162560000Y-70223928D01*
X162655238Y-70128690D01*
X162750476Y-70081071D01*
X162940952Y-70033452D01*
X163083809Y-70033452D01*
X163274285Y-70081071D01*
X163369523Y-70128690D01*
X163464761Y-70223928D01*
X163512380Y-70366785D01*
X163512380Y-70604880D01*
X165122380Y-80414404D02*
X164122380Y-80414404D01*
X165122380Y-79842976D01*
X164122380Y-79842976D01*
X165122380Y-78795357D02*
X164646190Y-79128690D01*
X165122380Y-79366785D02*
X164122380Y-79366785D01*
X164122380Y-78985833D01*
X164170000Y-78890595D01*
X164217619Y-78842976D01*
X164312857Y-78795357D01*
X164455714Y-78795357D01*
X164550952Y-78842976D01*
X164598571Y-78890595D01*
X164646190Y-78985833D01*
X164646190Y-79366785D01*
X165074761Y-78414404D02*
X165122380Y-78271547D01*
X165122380Y-78033452D01*
X165074761Y-77938214D01*
X165027142Y-77890595D01*
X164931904Y-77842976D01*
X164836666Y-77842976D01*
X164741428Y-77890595D01*
X164693809Y-77938214D01*
X164646190Y-78033452D01*
X164598571Y-78223928D01*
X164550952Y-78319166D01*
X164503333Y-78366785D01*
X164408095Y-78414404D01*
X164312857Y-78414404D01*
X164217619Y-78366785D01*
X164170000Y-78319166D01*
X164122380Y-78223928D01*
X164122380Y-77985833D01*
X164170000Y-77842976D01*
X164122380Y-77557261D02*
X164122380Y-76985833D01*
X165122380Y-77271547D02*
X164122380Y-77271547D01*
X164170000Y-72128690D02*
X164122380Y-72223928D01*
X164122380Y-72366785D01*
X164170000Y-72509642D01*
X164265238Y-72604880D01*
X164360476Y-72652500D01*
X164550952Y-72700119D01*
X164693809Y-72700119D01*
X164884285Y-72652500D01*
X164979523Y-72604880D01*
X165074761Y-72509642D01*
X165122380Y-72366785D01*
X165122380Y-72271547D01*
X165074761Y-72128690D01*
X165027142Y-72081071D01*
X164693809Y-72081071D01*
X164693809Y-72271547D01*
X165122380Y-71652500D02*
X164122380Y-71652500D01*
X165122380Y-71081071D01*
X164122380Y-71081071D01*
X165122380Y-70604880D02*
X164122380Y-70604880D01*
X164122380Y-70366785D01*
X164170000Y-70223928D01*
X164265238Y-70128690D01*
X164360476Y-70081071D01*
X164550952Y-70033452D01*
X164693809Y-70033452D01*
X164884285Y-70081071D01*
X164979523Y-70128690D01*
X165074761Y-70223928D01*
X165122380Y-70366785D01*
X165122380Y-70604880D01*
X166732380Y-80414404D02*
X165732380Y-80414404D01*
X166732380Y-79842976D01*
X165732380Y-79842976D01*
X166637142Y-78795357D02*
X166684761Y-78842976D01*
X166732380Y-78985833D01*
X166732380Y-79081071D01*
X166684761Y-79223928D01*
X166589523Y-79319166D01*
X166494285Y-79366785D01*
X166303809Y-79414404D01*
X166160952Y-79414404D01*
X165970476Y-79366785D01*
X165875238Y-79319166D01*
X165780000Y-79223928D01*
X165732380Y-79081071D01*
X165732380Y-78985833D01*
X165780000Y-78842976D01*
X165827619Y-78795357D01*
X165780000Y-72128690D02*
X165732380Y-72223928D01*
X165732380Y-72366785D01*
X165780000Y-72509642D01*
X165875238Y-72604880D01*
X165970476Y-72652500D01*
X166160952Y-72700119D01*
X166303809Y-72700119D01*
X166494285Y-72652500D01*
X166589523Y-72604880D01*
X166684761Y-72509642D01*
X166732380Y-72366785D01*
X166732380Y-72271547D01*
X166684761Y-72128690D01*
X166637142Y-72081071D01*
X166303809Y-72081071D01*
X166303809Y-72271547D01*
X166732380Y-71652500D02*
X165732380Y-71652500D01*
X166732380Y-71081071D01*
X165732380Y-71081071D01*
X166732380Y-70604880D02*
X165732380Y-70604880D01*
X165732380Y-70366785D01*
X165780000Y-70223928D01*
X165875238Y-70128690D01*
X165970476Y-70081071D01*
X166160952Y-70033452D01*
X166303809Y-70033452D01*
X166494285Y-70081071D01*
X166589523Y-70128690D01*
X166684761Y-70223928D01*
X166732380Y-70366785D01*
X166732380Y-70604880D01*
X168342380Y-80414404D02*
X167342380Y-80414404D01*
X168342380Y-79842976D01*
X167342380Y-79842976D01*
X168247142Y-78795357D02*
X168294761Y-78842976D01*
X168342380Y-78985833D01*
X168342380Y-79081071D01*
X168294761Y-79223928D01*
X168199523Y-79319166D01*
X168104285Y-79366785D01*
X167913809Y-79414404D01*
X167770952Y-79414404D01*
X167580476Y-79366785D01*
X167485238Y-79319166D01*
X167390000Y-79223928D01*
X167342380Y-79081071D01*
X167342380Y-78985833D01*
X167390000Y-78842976D01*
X167437619Y-78795357D01*
X167390000Y-72128690D02*
X167342380Y-72223928D01*
X167342380Y-72366785D01*
X167390000Y-72509642D01*
X167485238Y-72604880D01*
X167580476Y-72652500D01*
X167770952Y-72700119D01*
X167913809Y-72700119D01*
X168104285Y-72652500D01*
X168199523Y-72604880D01*
X168294761Y-72509642D01*
X168342380Y-72366785D01*
X168342380Y-72271547D01*
X168294761Y-72128690D01*
X168247142Y-72081071D01*
X167913809Y-72081071D01*
X167913809Y-72271547D01*
X168342380Y-71652500D02*
X167342380Y-71652500D01*
X168342380Y-71081071D01*
X167342380Y-71081071D01*
X168342380Y-70604880D02*
X167342380Y-70604880D01*
X167342380Y-70366785D01*
X167390000Y-70223928D01*
X167485238Y-70128690D01*
X167580476Y-70081071D01*
X167770952Y-70033452D01*
X167913809Y-70033452D01*
X168104285Y-70081071D01*
X168199523Y-70128690D01*
X168294761Y-70223928D01*
X168342380Y-70366785D01*
X168342380Y-70604880D01*
X159542857Y-100404761D02*
X159685714Y-100452380D01*
X159923809Y-100452380D01*
X160019047Y-100404761D01*
X160066666Y-100357142D01*
X160114285Y-100261904D01*
X160114285Y-100166666D01*
X160066666Y-100071428D01*
X160019047Y-100023809D01*
X159923809Y-99976190D01*
X159733333Y-99928571D01*
X159638095Y-99880952D01*
X159590476Y-99833333D01*
X159542857Y-99738095D01*
X159542857Y-99642857D01*
X159590476Y-99547619D01*
X159638095Y-99500000D01*
X159733333Y-99452380D01*
X159971428Y-99452380D01*
X160114285Y-99500000D01*
X160447619Y-99452380D02*
X160685714Y-100452380D01*
X160876190Y-99738095D01*
X161066666Y-100452380D01*
X161304761Y-99452380D01*
X161685714Y-100452380D02*
X161685714Y-99452380D01*
X161923809Y-99452380D01*
X162066666Y-99500000D01*
X162161904Y-99595238D01*
X162209523Y-99690476D01*
X162257142Y-99880952D01*
X162257142Y-100023809D01*
X162209523Y-100214285D01*
X162161904Y-100309523D01*
X162066666Y-100404761D01*
X161923809Y-100452380D01*
X161685714Y-100452380D01*
X163876190Y-99452380D02*
X163685714Y-99452380D01*
X163590476Y-99500000D01*
X163542857Y-99547619D01*
X163447619Y-99690476D01*
X163400000Y-99880952D01*
X163400000Y-100261904D01*
X163447619Y-100357142D01*
X163495238Y-100404761D01*
X163590476Y-100452380D01*
X163780952Y-100452380D01*
X163876190Y-100404761D01*
X163923809Y-100357142D01*
X163971428Y-100261904D01*
X163971428Y-100023809D01*
X163923809Y-99928571D01*
X163876190Y-99880952D01*
X163780952Y-99833333D01*
X163590476Y-99833333D01*
X163495238Y-99880952D01*
X163447619Y-99928571D01*
X163400000Y-100023809D01*
X165161904Y-100452380D02*
X165161904Y-99452380D01*
X165542857Y-99452380D01*
X165638095Y-99500000D01*
X165685714Y-99547619D01*
X165733333Y-99642857D01*
X165733333Y-99785714D01*
X165685714Y-99880952D01*
X165638095Y-99928571D01*
X165542857Y-99976190D01*
X165161904Y-99976190D01*
X166161904Y-100452380D02*
X166161904Y-99452380D01*
X166638095Y-100452380D02*
X166638095Y-99452380D01*
X167209523Y-100452380D01*
X167209523Y-99452380D01*
X163704761Y-96352380D02*
X164038095Y-97352380D01*
X164371428Y-96352380D01*
X164561904Y-96352380D02*
X165133333Y-96352380D01*
X164847619Y-97352380D02*
X164847619Y-96352380D01*
X166038095Y-97352380D02*
X165704761Y-96876190D01*
X165466666Y-97352380D02*
X165466666Y-96352380D01*
X165847619Y-96352380D01*
X165942857Y-96400000D01*
X165990476Y-96447619D01*
X166038095Y-96542857D01*
X166038095Y-96685714D01*
X165990476Y-96780952D01*
X165942857Y-96828571D01*
X165847619Y-96876190D01*
X165466666Y-96876190D01*
X166466666Y-96828571D02*
X166800000Y-96828571D01*
X166942857Y-97352380D02*
X166466666Y-97352380D01*
X166466666Y-96352380D01*
X166942857Y-96352380D01*
X167704761Y-96828571D02*
X167371428Y-96828571D01*
X167371428Y-97352380D02*
X167371428Y-96352380D01*
X167847619Y-96352380D01*
X163738095Y-94804761D02*
X163880952Y-94852380D01*
X164119047Y-94852380D01*
X164214285Y-94804761D01*
X164261904Y-94757142D01*
X164309523Y-94661904D01*
X164309523Y-94566666D01*
X164261904Y-94471428D01*
X164214285Y-94423809D01*
X164119047Y-94376190D01*
X163928571Y-94328571D01*
X163833333Y-94280952D01*
X163785714Y-94233333D01*
X163738095Y-94138095D01*
X163738095Y-94042857D01*
X163785714Y-93947619D01*
X163833333Y-93900000D01*
X163928571Y-93852380D01*
X164166666Y-93852380D01*
X164309523Y-93900000D01*
X164642857Y-93852380D02*
X164880952Y-94852380D01*
X165071428Y-94138095D01*
X165261904Y-94852380D01*
X165500000Y-93852380D01*
X166452380Y-94757142D02*
X166404761Y-94804761D01*
X166261904Y-94852380D01*
X166166666Y-94852380D01*
X166023809Y-94804761D01*
X165928571Y-94709523D01*
X165880952Y-94614285D01*
X165833333Y-94423809D01*
X165833333Y-94280952D01*
X165880952Y-94090476D01*
X165928571Y-93995238D01*
X166023809Y-93900000D01*
X166166666Y-93852380D01*
X166261904Y-93852380D01*
X166404761Y-93900000D01*
X166452380Y-93947619D01*
X167357142Y-94852380D02*
X166880952Y-94852380D01*
X166880952Y-93852380D01*
X167690476Y-94852380D02*
X167690476Y-93852380D01*
X168261904Y-94852380D02*
X167833333Y-94280952D01*
X168261904Y-93852380D02*
X167690476Y-94423809D01*
X137885714Y-78352380D02*
X137885714Y-79066666D01*
X137838095Y-79209523D01*
X137742857Y-79304761D01*
X137600000Y-79352380D01*
X137504761Y-79352380D01*
X138219047Y-78352380D02*
X138790476Y-78352380D01*
X138504761Y-79352380D02*
X138504761Y-78352380D01*
X139076190Y-79066666D02*
X139552380Y-79066666D01*
X138980952Y-79352380D02*
X139314285Y-78352380D01*
X139647619Y-79352380D01*
X140504761Y-78400000D02*
X140409523Y-78352380D01*
X140266666Y-78352380D01*
X140123809Y-78400000D01*
X140028571Y-78495238D01*
X139980952Y-78590476D01*
X139933333Y-78780952D01*
X139933333Y-78923809D01*
X139980952Y-79114285D01*
X140028571Y-79209523D01*
X140123809Y-79304761D01*
X140266666Y-79352380D01*
X140361904Y-79352380D01*
X140504761Y-79304761D01*
X140552380Y-79257142D01*
X140552380Y-78923809D01*
X140361904Y-78923809D01*
X141695238Y-78304761D02*
X140838095Y-79590476D01*
X141980952Y-79304761D02*
X142123809Y-79352380D01*
X142361904Y-79352380D01*
X142457142Y-79304761D01*
X142504761Y-79257142D01*
X142552380Y-79161904D01*
X142552380Y-79066666D01*
X142504761Y-78971428D01*
X142457142Y-78923809D01*
X142361904Y-78876190D01*
X142171428Y-78828571D01*
X142076190Y-78780952D01*
X142028571Y-78733333D01*
X141980952Y-78638095D01*
X141980952Y-78542857D01*
X142028571Y-78447619D01*
X142076190Y-78400000D01*
X142171428Y-78352380D01*
X142409523Y-78352380D01*
X142552380Y-78400000D01*
X142885714Y-78352380D02*
X143123809Y-79352380D01*
X143314285Y-78638095D01*
X143504761Y-79352380D01*
X143742857Y-78352380D01*
X144123809Y-79352380D02*
X144123809Y-78352380D01*
X144361904Y-78352380D01*
X144504761Y-78400000D01*
X144600000Y-78495238D01*
X144647619Y-78590476D01*
X144695238Y-78780952D01*
X144695238Y-78923809D01*
X144647619Y-79114285D01*
X144600000Y-79209523D01*
X144504761Y-79304761D01*
X144361904Y-79352380D01*
X144123809Y-79352380D01*
X145838095Y-78447619D02*
X145885714Y-78400000D01*
X145980952Y-78352380D01*
X146219047Y-78352380D01*
X146314285Y-78400000D01*
X146361904Y-78447619D01*
X146409523Y-78542857D01*
X146409523Y-78638095D01*
X146361904Y-78780952D01*
X145790476Y-79352380D01*
X146409523Y-79352380D01*
X147028571Y-78352380D02*
X147123809Y-78352380D01*
X147219047Y-78400000D01*
X147266666Y-78447619D01*
X147314285Y-78542857D01*
X147361904Y-78733333D01*
X147361904Y-78971428D01*
X147314285Y-79161904D01*
X147266666Y-79257142D01*
X147219047Y-79304761D01*
X147123809Y-79352380D01*
X147028571Y-79352380D01*
X146933333Y-79304761D01*
X146885714Y-79257142D01*
X146838095Y-79161904D01*
X146790476Y-78971428D01*
X146790476Y-78733333D01*
X146838095Y-78542857D01*
X146885714Y-78447619D01*
X146933333Y-78400000D01*
X147028571Y-78352380D01*
X148552380Y-79352380D02*
X148552380Y-78352380D01*
X148933333Y-78352380D01*
X149028571Y-78400000D01*
X149076190Y-78447619D01*
X149123809Y-78542857D01*
X149123809Y-78685714D01*
X149076190Y-78780952D01*
X149028571Y-78828571D01*
X148933333Y-78876190D01*
X148552380Y-78876190D01*
X149552380Y-79352380D02*
X149552380Y-78352380D01*
X150028571Y-79352380D02*
X150028571Y-78352380D01*
X150600000Y-79352380D01*
X150600000Y-78352380D01*
%TO.C,J3*%
X133952380Y-85765833D02*
X134666666Y-85765833D01*
X134809523Y-85813452D01*
X134904761Y-85908690D01*
X134952380Y-86051547D01*
X134952380Y-86146785D01*
X133952380Y-85384880D02*
X133952380Y-84765833D01*
X134333333Y-85099166D01*
X134333333Y-84956309D01*
X134380952Y-84861071D01*
X134428571Y-84813452D01*
X134523809Y-84765833D01*
X134761904Y-84765833D01*
X134857142Y-84813452D01*
X134904761Y-84861071D01*
X134952380Y-84956309D01*
X134952380Y-85242023D01*
X134904761Y-85337261D01*
X134857142Y-85384880D01*
%TO.C,J5*%
X133952380Y-95733333D02*
X134666666Y-95733333D01*
X134809523Y-95780952D01*
X134904761Y-95876190D01*
X134952380Y-96019047D01*
X134952380Y-96114285D01*
X133952380Y-94780952D02*
X133952380Y-95257142D01*
X134428571Y-95304761D01*
X134380952Y-95257142D01*
X134333333Y-95161904D01*
X134333333Y-94923809D01*
X134380952Y-94828571D01*
X134428571Y-94780952D01*
X134523809Y-94733333D01*
X134761904Y-94733333D01*
X134857142Y-94780952D01*
X134904761Y-94828571D01*
X134952380Y-94923809D01*
X134952380Y-95161904D01*
X134904761Y-95257142D01*
X134857142Y-95304761D01*
%TO.C,J2*%
X160166666Y-81152380D02*
X160166666Y-81866666D01*
X160119047Y-82009523D01*
X160023809Y-82104761D01*
X159880952Y-82152380D01*
X159785714Y-82152380D01*
X160595238Y-81247619D02*
X160642857Y-81200000D01*
X160738095Y-81152380D01*
X160976190Y-81152380D01*
X161071428Y-81200000D01*
X161119047Y-81247619D01*
X161166666Y-81342857D01*
X161166666Y-81438095D01*
X161119047Y-81580952D01*
X160547619Y-82152380D01*
X161166666Y-82152380D01*
%TO.C,J4*%
X152652380Y-79233333D02*
X153366666Y-79233333D01*
X153509523Y-79280952D01*
X153604761Y-79376190D01*
X153652380Y-79519047D01*
X153652380Y-79614285D01*
X152985714Y-78328571D02*
X153652380Y-78328571D01*
X152604761Y-78566666D02*
X153319047Y-78804761D01*
X153319047Y-78185714D01*
%TO.C,J1*%
X129566666Y-70452380D02*
X129566666Y-71166666D01*
X129519047Y-71309523D01*
X129423809Y-71404761D01*
X129280952Y-71452380D01*
X129185714Y-71452380D01*
X130566666Y-71452380D02*
X129995238Y-71452380D01*
X130280952Y-71452380D02*
X130280952Y-70452380D01*
X130185714Y-70595238D01*
X130090476Y-70690476D01*
X129995238Y-70738095D01*
D11*
%TO.C,J3*%
X135800000Y-81932500D02*
X135800000Y-88932500D01*
X139165000Y-83667500D02*
X139230000Y-83667500D01*
X135800000Y-87832500D02*
X136900000Y-88932500D01*
X136900000Y-88932500D02*
X135800000Y-87832500D01*
X135800000Y-88932500D02*
X149000000Y-88932500D01*
X149000000Y-88932500D02*
X149000000Y-81932500D01*
X145635000Y-87197500D02*
X145635000Y-83667500D01*
X145570000Y-87197500D02*
X145635000Y-87197500D01*
X135800000Y-81932500D02*
X149000000Y-81932500D01*
X145570000Y-83667500D02*
X145635000Y-83667500D01*
X136900000Y-88932500D02*
X135800000Y-88932500D01*
X135800000Y-88932500D02*
X135800000Y-87832500D01*
X135800000Y-87832500D02*
X136900000Y-88932500D01*
G36*
X136900000Y-88932500D02*
G01*
X135800000Y-88932500D01*
X135800000Y-87832500D01*
X136900000Y-88932500D01*
G37*
X136900000Y-88932500D02*
X135800000Y-88932500D01*
X135800000Y-87832500D01*
X136900000Y-88932500D01*
%TO.C,J5*%
X136720000Y-99730000D02*
X135720000Y-99730000D01*
X135720000Y-99730000D02*
X135720000Y-98730000D01*
X135720000Y-98730000D02*
X136720000Y-99730000D01*
G36*
X136720000Y-99730000D02*
G01*
X135720000Y-99730000D01*
X135720000Y-98730000D01*
X136720000Y-99730000D01*
G37*
X136720000Y-99730000D02*
X135720000Y-99730000D01*
X135720000Y-98730000D01*
X136720000Y-99730000D01*
X135720000Y-99730000D02*
X155620000Y-99730000D01*
X155620000Y-99730000D02*
X155620000Y-91130000D01*
X155620000Y-91130000D02*
X135720000Y-91130000D01*
X135720000Y-91130000D02*
X135720000Y-99730000D01*
%TO.C,J2*%
X161930000Y-95580000D02*
X161930000Y-82820000D01*
X161930000Y-98180000D02*
X160600000Y-98180000D01*
X161930000Y-96850000D02*
X161930000Y-98180000D01*
X161930000Y-82820000D02*
X159270000Y-82820000D01*
X159270000Y-95580000D02*
X159270000Y-82820000D01*
X161930000Y-95580000D02*
X159270000Y-95580000D01*
%TO.C,J4*%
X153800000Y-77706000D02*
X153800000Y-70706000D01*
X153800000Y-70706000D02*
X134200000Y-70706000D01*
X134200000Y-77706000D02*
X134200000Y-70706000D01*
X134200000Y-77706000D02*
X153800000Y-77706000D01*
X135200000Y-77706000D02*
X134200000Y-77706000D01*
X134200000Y-77706000D02*
X134200000Y-76706000D01*
X134200000Y-76706000D02*
X135200000Y-77706000D01*
G36*
X135200000Y-77706000D02*
G01*
X134200000Y-77706000D01*
X134200000Y-76706000D01*
X135200000Y-77706000D01*
G37*
X135200000Y-77706000D02*
X134200000Y-77706000D01*
X134200000Y-76706000D01*
X135200000Y-77706000D01*
%TO.C,J1*%
X129955000Y-86610000D02*
X130395000Y-86610000D01*
X129955000Y-89150000D02*
X130395000Y-89150000D01*
X129955000Y-76450000D02*
X130395000Y-76450000D01*
X131445000Y-72220000D02*
X132555000Y-72220000D01*
X129955000Y-75730000D02*
X130395000Y-75730000D01*
X129955000Y-88430000D02*
X130395000Y-88430000D01*
X129955000Y-91690000D02*
X130395000Y-91690000D01*
X129955000Y-81530000D02*
X130395000Y-81530000D01*
X129955000Y-73190000D02*
X130335000Y-73190000D01*
X129955000Y-78990000D02*
X130395000Y-78990000D01*
X129955000Y-93510000D02*
X130395000Y-93510000D01*
X129955000Y-73910000D02*
X130335000Y-73910000D01*
X132555000Y-72220000D02*
X132555000Y-73550000D01*
X129955000Y-84070000D02*
X130395000Y-84070000D01*
X129955000Y-80810000D02*
X130395000Y-80810000D01*
X129955000Y-96770000D02*
X130395000Y-96770000D01*
X129955000Y-78270000D02*
X130395000Y-78270000D01*
X129955000Y-96050000D02*
X130395000Y-96050000D01*
X129955000Y-90970000D02*
X130395000Y-90970000D01*
X129955000Y-83350000D02*
X130395000Y-83350000D01*
X129955000Y-85890000D02*
X130395000Y-85890000D01*
X129955000Y-94230000D02*
X130395000Y-94230000D01*
%TD*%
M02*
