%TF.GenerationSoftware,KiCad,Pcbnew,(6.0.1)*%
%TF.CreationDate,2023-01-19T10:52:25+01:00*%
%TF.ProjectId,swd-jlink-adapter,7377642d-6a6c-4696-9e6b-2d6164617074,rev?*%
%TF.SameCoordinates,Original*%
%TF.FileFunction,Legend,Bot*%
%TF.FilePolarity,Positive*%
%FSLAX46Y46*%
G04 Gerber Fmt 4.6, Leading zero omitted, Abs format (unit mm)*
G04 Created by KiCad (PCBNEW (6.0.1)) date 2023-01-19 10:52:25*
%MOMM*%
%LPD*%
G01*
G04 APERTURE LIST*
%ADD10C,0.300000*%
%ADD11C,0.150000*%
G04 APERTURE END LIST*
D10*
X156971429Y-82978571D02*
X156971429Y-84050000D01*
X157042858Y-84264285D01*
X157185715Y-84407142D01*
X157400001Y-84478571D01*
X157542858Y-84478571D01*
X155542858Y-84478571D02*
X156257143Y-84478571D01*
X156257143Y-82978571D01*
X155042858Y-84478571D02*
X155042858Y-82978571D01*
X154328572Y-84478571D02*
X154328572Y-82978571D01*
X153471429Y-84478571D01*
X153471429Y-82978571D01*
X152757143Y-84478571D02*
X152757143Y-82978571D01*
X151900001Y-84478571D02*
X152542858Y-83621428D01*
X151900001Y-82978571D02*
X152757143Y-83835714D01*
X150185715Y-84050000D02*
X149471429Y-84050000D01*
X150328572Y-84478571D02*
X149828572Y-82978571D01*
X149328572Y-84478571D01*
X148828572Y-84478571D02*
X148828572Y-82978571D01*
X148471429Y-82978571D01*
X148257143Y-83050000D01*
X148114286Y-83192857D01*
X148042858Y-83335714D01*
X147971429Y-83621428D01*
X147971429Y-83835714D01*
X148042858Y-84121428D01*
X148114286Y-84264285D01*
X148257143Y-84407142D01*
X148471429Y-84478571D01*
X148828572Y-84478571D01*
X147400001Y-84050000D02*
X146685715Y-84050000D01*
X147542858Y-84478571D02*
X147042858Y-82978571D01*
X146542858Y-84478571D01*
X146042858Y-84478571D02*
X146042858Y-82978571D01*
X145471429Y-82978571D01*
X145328572Y-83050000D01*
X145257143Y-83121428D01*
X145185715Y-83264285D01*
X145185715Y-83478571D01*
X145257143Y-83621428D01*
X145328572Y-83692857D01*
X145471429Y-83764285D01*
X146042858Y-83764285D01*
X144757143Y-82978571D02*
X143900001Y-82978571D01*
X144328572Y-84478571D02*
X144328572Y-82978571D01*
X143400001Y-83692857D02*
X142900001Y-83692857D01*
X142685715Y-84478571D02*
X143400001Y-84478571D01*
X143400001Y-82978571D01*
X142685715Y-82978571D01*
X141185715Y-84478571D02*
X141685715Y-83764285D01*
X142042858Y-84478571D02*
X142042858Y-82978571D01*
X141471429Y-82978571D01*
X141328572Y-83050000D01*
X141257143Y-83121428D01*
X141185715Y-83264285D01*
X141185715Y-83478571D01*
X141257143Y-83621428D01*
X141328572Y-83692857D01*
X141471429Y-83764285D01*
X142042858Y-83764285D01*
X139614286Y-82978571D02*
X139114286Y-84478571D01*
X138614286Y-82978571D01*
X137328572Y-84478571D02*
X138185715Y-84478571D01*
X137757143Y-84478571D02*
X137757143Y-82978571D01*
X137900001Y-83192857D01*
X138042858Y-83335714D01*
X138185715Y-83407142D01*
D11*
X156138095Y-86952380D02*
X156138095Y-85952380D01*
X155757142Y-85952380D01*
X155661904Y-86000000D01*
X155614285Y-86047619D01*
X155566666Y-86142857D01*
X155566666Y-86285714D01*
X155614285Y-86380952D01*
X155661904Y-86428571D01*
X155757142Y-86476190D01*
X156138095Y-86476190D01*
X154757142Y-86904761D02*
X154852380Y-86952380D01*
X155042857Y-86952380D01*
X155138095Y-86904761D01*
X155185714Y-86809523D01*
X155185714Y-86428571D01*
X155138095Y-86333333D01*
X155042857Y-86285714D01*
X154852380Y-86285714D01*
X154757142Y-86333333D01*
X154709523Y-86428571D01*
X154709523Y-86523809D01*
X155185714Y-86619047D01*
X154138095Y-86952380D02*
X154233333Y-86904761D01*
X154280952Y-86809523D01*
X154280952Y-85952380D01*
X153376190Y-86904761D02*
X153471428Y-86952380D01*
X153661904Y-86952380D01*
X153757142Y-86904761D01*
X153804761Y-86809523D01*
X153804761Y-86428571D01*
X153757142Y-86333333D01*
X153661904Y-86285714D01*
X153471428Y-86285714D01*
X153376190Y-86333333D01*
X153328571Y-86428571D01*
X153328571Y-86523809D01*
X153804761Y-86619047D01*
X153471428Y-85904761D02*
X153614285Y-86047619D01*
X151566666Y-86857142D02*
X151614285Y-86904761D01*
X151757142Y-86952380D01*
X151852380Y-86952380D01*
X151995238Y-86904761D01*
X152090476Y-86809523D01*
X152138095Y-86714285D01*
X152185714Y-86523809D01*
X152185714Y-86380952D01*
X152138095Y-86190476D01*
X152090476Y-86095238D01*
X151995238Y-86000000D01*
X151852380Y-85952380D01*
X151757142Y-85952380D01*
X151614285Y-86000000D01*
X151566666Y-86047619D01*
X150995238Y-86952380D02*
X151090476Y-86904761D01*
X151138095Y-86857142D01*
X151185714Y-86761904D01*
X151185714Y-86476190D01*
X151138095Y-86380952D01*
X151090476Y-86333333D01*
X150995238Y-86285714D01*
X150852380Y-86285714D01*
X150757142Y-86333333D01*
X150709523Y-86380952D01*
X150661904Y-86476190D01*
X150661904Y-86761904D01*
X150709523Y-86857142D01*
X150757142Y-86904761D01*
X150852380Y-86952380D01*
X150995238Y-86952380D01*
X150233333Y-86285714D02*
X150233333Y-86952380D01*
X150233333Y-86380952D02*
X150185714Y-86333333D01*
X150090476Y-86285714D01*
X149947619Y-86285714D01*
X149852380Y-86333333D01*
X149804761Y-86428571D01*
X149804761Y-86952380D01*
X149376190Y-86904761D02*
X149280952Y-86952380D01*
X149090476Y-86952380D01*
X148995238Y-86904761D01*
X148947619Y-86809523D01*
X148947619Y-86761904D01*
X148995238Y-86666666D01*
X149090476Y-86619047D01*
X149233333Y-86619047D01*
X149328571Y-86571428D01*
X149376190Y-86476190D01*
X149376190Y-86428571D01*
X149328571Y-86333333D01*
X149233333Y-86285714D01*
X149090476Y-86285714D01*
X148995238Y-86333333D01*
X148661904Y-86285714D02*
X148280952Y-86285714D01*
X148519047Y-85952380D02*
X148519047Y-86809523D01*
X148471428Y-86904761D01*
X148376190Y-86952380D01*
X148280952Y-86952380D01*
X147519047Y-86952380D02*
X147519047Y-86428571D01*
X147566666Y-86333333D01*
X147661904Y-86285714D01*
X147852380Y-86285714D01*
X147947619Y-86333333D01*
X147519047Y-86904761D02*
X147614285Y-86952380D01*
X147852380Y-86952380D01*
X147947619Y-86904761D01*
X147995238Y-86809523D01*
X147995238Y-86714285D01*
X147947619Y-86619047D01*
X147852380Y-86571428D01*
X147614285Y-86571428D01*
X147519047Y-86523809D01*
X147042857Y-86952380D02*
X147042857Y-86285714D01*
X147042857Y-86380952D02*
X146995238Y-86333333D01*
X146900000Y-86285714D01*
X146757142Y-86285714D01*
X146661904Y-86333333D01*
X146614285Y-86428571D01*
X146614285Y-86952380D01*
X146614285Y-86428571D02*
X146566666Y-86333333D01*
X146471428Y-86285714D01*
X146328571Y-86285714D01*
X146233333Y-86333333D01*
X146185714Y-86428571D01*
X146185714Y-86952380D01*
X144757142Y-85952380D02*
X144661904Y-85952380D01*
X144566666Y-86000000D01*
X144519047Y-86047619D01*
X144471428Y-86142857D01*
X144423809Y-86333333D01*
X144423809Y-86571428D01*
X144471428Y-86761904D01*
X144519047Y-86857142D01*
X144566666Y-86904761D01*
X144661904Y-86952380D01*
X144757142Y-86952380D01*
X144852380Y-86904761D01*
X144900000Y-86857142D01*
X144947619Y-86761904D01*
X144995238Y-86571428D01*
X144995238Y-86333333D01*
X144947619Y-86142857D01*
X144900000Y-86047619D01*
X144852380Y-86000000D01*
X144757142Y-85952380D01*
X143471428Y-86952380D02*
X144042857Y-86952380D01*
X143757142Y-86952380D02*
X143757142Y-85952380D01*
X143852380Y-86095238D01*
X143947619Y-86190476D01*
X144042857Y-86238095D01*
X142328571Y-85904761D02*
X143185714Y-87190476D01*
X142042857Y-86047619D02*
X141995238Y-86000000D01*
X141900000Y-85952380D01*
X141661904Y-85952380D01*
X141566666Y-86000000D01*
X141519047Y-86047619D01*
X141471428Y-86142857D01*
X141471428Y-86238095D01*
X141519047Y-86380952D01*
X142090476Y-86952380D01*
X141471428Y-86952380D01*
X140852380Y-85952380D02*
X140757142Y-85952380D01*
X140661904Y-86000000D01*
X140614285Y-86047619D01*
X140566666Y-86142857D01*
X140519047Y-86333333D01*
X140519047Y-86571428D01*
X140566666Y-86761904D01*
X140614285Y-86857142D01*
X140661904Y-86904761D01*
X140757142Y-86952380D01*
X140852380Y-86952380D01*
X140947619Y-86904761D01*
X140995238Y-86857142D01*
X141042857Y-86761904D01*
X141090476Y-86571428D01*
X141090476Y-86333333D01*
X141042857Y-86142857D01*
X140995238Y-86047619D01*
X140947619Y-86000000D01*
X140852380Y-85952380D01*
X140138095Y-86047619D02*
X140090476Y-86000000D01*
X139995238Y-85952380D01*
X139757142Y-85952380D01*
X139661904Y-86000000D01*
X139614285Y-86047619D01*
X139566666Y-86142857D01*
X139566666Y-86238095D01*
X139614285Y-86380952D01*
X140185714Y-86952380D01*
X139566666Y-86952380D01*
X139233333Y-85952380D02*
X138614285Y-85952380D01*
X138947619Y-86333333D01*
X138804761Y-86333333D01*
X138709523Y-86380952D01*
X138661904Y-86428571D01*
X138614285Y-86523809D01*
X138614285Y-86761904D01*
X138661904Y-86857142D01*
X138709523Y-86904761D01*
X138804761Y-86952380D01*
X139090476Y-86952380D01*
X139185714Y-86904761D01*
X139233333Y-86857142D01*
M02*
