%TF.GenerationSoftware,KiCad,Pcbnew,(6.0.1)*%
%TF.CreationDate,2023-01-19T10:52:25+01:00*%
%TF.ProjectId,swd-jlink-adapter,7377642d-6a6c-4696-9e6b-2d6164617074,rev?*%
%TF.SameCoordinates,Original*%
%TF.FileFunction,Copper,L1,Top*%
%TF.FilePolarity,Positive*%
%FSLAX46Y46*%
G04 Gerber Fmt 4.6, Leading zero omitted, Abs format (unit mm)*
G04 Created by KiCad (PCBNEW (6.0.1)) date 2023-01-19 10:52:25*
%MOMM*%
%LPD*%
G01*
G04 APERTURE LIST*
%TA.AperFunction,SMDPad,CuDef*%
%ADD10R,0.740000X2.400000*%
%TD*%
%TA.AperFunction,ComponentPad*%
%ADD11O,1.700000X1.700000*%
%TD*%
%TA.AperFunction,ComponentPad*%
%ADD12C,1.524000*%
%TD*%
%TA.AperFunction,ComponentPad*%
%ADD13R,1.700000X1.700000*%
%TD*%
%TA.AperFunction,ViaPad*%
%ADD14C,0.800000*%
%TD*%
%TA.AperFunction,ViaPad*%
%ADD15C,0.600000*%
%TD*%
%TA.AperFunction,Conductor*%
%ADD16C,0.250000*%
%TD*%
G04 APERTURE END LIST*
D10*
%TO.P,J3,1,Pin_1*%
%TO.N,VTREF*%
X139860000Y-87382500D03*
%TO.P,J3,2,Pin_2*%
%TO.N,TMS{slash}SWDIO*%
X139860000Y-83482500D03*
%TO.P,J3,3,Pin_3*%
%TO.N,GND*%
X141130000Y-87382500D03*
%TO.P,J3,4,Pin_4*%
%TO.N,TCLK{slash}SWCLK*%
X141130000Y-83482500D03*
%TO.P,J3,5,Pin_5*%
%TO.N,GND*%
X142400000Y-87382500D03*
%TO.P,J3,6,Pin_6*%
%TO.N,TDO{slash}SWO*%
X142400000Y-83482500D03*
%TO.P,J3,7,Pin_7*%
%TO.N,GND*%
X143670000Y-87382500D03*
%TO.P,J3,8,Pin_8*%
%TO.N,TDI*%
X143670000Y-83482500D03*
%TO.P,J3,9,Pin_9*%
%TO.N,GND*%
X144940000Y-87382500D03*
%TO.P,J3,10,Pin_10*%
%TO.N,NRST*%
X144940000Y-83482500D03*
%TD*%
D11*
%TO.P,J5,10,Pin_10*%
%TO.N,NRST*%
X150800000Y-94160000D03*
%TO.P,J5,9,Pin_9*%
%TO.N,GND*%
X150800000Y-96700000D03*
%TO.P,J5,8,Pin_8*%
%TO.N,TDI*%
X148260000Y-94160000D03*
%TO.P,J5,7,Pin_7*%
%TO.N,GND*%
X148260000Y-96700000D03*
%TO.P,J5,6,Pin_6*%
%TO.N,TDO{slash}SWO*%
X145720000Y-94160000D03*
%TO.P,J5,5,Pin_5*%
%TO.N,GND*%
X145720000Y-96700000D03*
D12*
%TO.P,J5,4,Pin_4*%
%TO.N,TCLK{slash}SWCLK*%
X143180000Y-94160000D03*
D11*
%TO.P,J5,3,Pin_3*%
%TO.N,GND*%
X143180000Y-96700000D03*
%TO.P,J5,2,Pin_2*%
%TO.N,TMS{slash}SWDIO*%
X140640000Y-94160000D03*
D13*
%TO.P,J5,1,Pin_1*%
%TO.N,VTREF*%
X140640000Y-96700000D03*
%TD*%
%TO.P,J2,1,Pin_1*%
%TO.N,VTREF*%
X160600000Y-96850000D03*
D11*
%TO.P,J2,2,Pin_2*%
%TO.N,TCLK{slash}SWCLK*%
X160600000Y-94310000D03*
%TO.P,J2,3,Pin_3*%
%TO.N,GND*%
X160600000Y-91770000D03*
%TO.P,J2,4,Pin_4*%
%TO.N,TMS{slash}SWDIO*%
X160600000Y-89230000D03*
%TO.P,J2,5,Pin_5*%
%TO.N,NRST*%
X160600000Y-86690000D03*
%TO.P,J2,6,Pin_6*%
%TO.N,TDO{slash}SWO*%
X160600000Y-84150000D03*
%TD*%
D10*
%TO.P,J4,1,Pin_1*%
%TO.N,VTREF*%
X138285000Y-76156000D03*
%TO.P,J4,2,Pin_2*%
X138285000Y-72256000D03*
%TO.P,J4,3,Pin_3*%
%TO.N,TRST*%
X139555000Y-76156000D03*
%TO.P,J4,4,Pin_4*%
%TO.N,GND*%
X139555000Y-72256000D03*
%TO.P,J4,5,Pin_5*%
%TO.N,TDI*%
X140825000Y-76156000D03*
%TO.P,J4,6,Pin_6*%
%TO.N,GND*%
X140825000Y-72256000D03*
%TO.P,J4,7,Pin_7*%
%TO.N,TMS{slash}SWDIO*%
X142095000Y-76156000D03*
%TO.P,J4,8,Pin_8*%
%TO.N,GND*%
X142095000Y-72256000D03*
%TO.P,J4,9,Pin_9*%
%TO.N,TCLK{slash}SWCLK*%
X143365000Y-76156000D03*
%TO.P,J4,10,Pin_10*%
%TO.N,GND*%
X143365000Y-72256000D03*
%TO.P,J4,11,Pin_11*%
%TO.N,RTCK*%
X144635000Y-76156000D03*
%TO.P,J4,12,Pin_12*%
%TO.N,GND*%
X144635000Y-72256000D03*
%TO.P,J4,13,Pin_13*%
%TO.N,TDO{slash}SWO*%
X145905000Y-76156000D03*
%TO.P,J4,14,Pin_14*%
%TO.N,GND*%
X145905000Y-72256000D03*
%TO.P,J4,15,Pin_15*%
%TO.N,NRST*%
X147175000Y-76156000D03*
%TO.P,J4,16,Pin_16*%
%TO.N,GND*%
X147175000Y-72256000D03*
%TO.P,J4,17,Pin_17*%
%TO.N,unconnected-(J4-Pad17)*%
X148445000Y-76156000D03*
%TO.P,J4,18,Pin_18*%
%TO.N,GND*%
X148445000Y-72256000D03*
%TO.P,J4,19,Pin_19*%
%TO.N,unconnected-(J4-Pad19)*%
X149715000Y-76156000D03*
%TO.P,J4,20,Pin_20*%
%TO.N,GND*%
X149715000Y-72256000D03*
%TD*%
D13*
%TO.P,J1,1,Pin_1*%
%TO.N,VTREF*%
X131445000Y-73550000D03*
D11*
%TO.P,J1,2,Pin_2*%
X128905000Y-73550000D03*
%TO.P,J1,3,Pin_3*%
%TO.N,TRST*%
X131445000Y-76090000D03*
%TO.P,J1,4,Pin_4*%
%TO.N,GND*%
X128905000Y-76090000D03*
%TO.P,J1,5,Pin_5*%
%TO.N,TDI*%
X131445000Y-78630000D03*
%TO.P,J1,6,Pin_6*%
%TO.N,GND*%
X128905000Y-78630000D03*
%TO.P,J1,7,Pin_7*%
%TO.N,TMS{slash}SWDIO*%
X131445000Y-81170000D03*
%TO.P,J1,8,Pin_8*%
%TO.N,GND*%
X128905000Y-81170000D03*
%TO.P,J1,9,Pin_9*%
%TO.N,TCLK{slash}SWCLK*%
X131445000Y-83710000D03*
%TO.P,J1,10,Pin_10*%
%TO.N,GND*%
X128905000Y-83710000D03*
%TO.P,J1,11,Pin_11*%
%TO.N,RTCK*%
X131445000Y-86250000D03*
%TO.P,J1,12,Pin_12*%
%TO.N,GND*%
X128905000Y-86250000D03*
%TO.P,J1,13,Pin_13*%
%TO.N,TDO{slash}SWO*%
X131445000Y-88790000D03*
%TO.P,J1,14,Pin_14*%
%TO.N,GND*%
X128905000Y-88790000D03*
%TO.P,J1,15,Pin_15*%
%TO.N,NRST*%
X131445000Y-91330000D03*
%TO.P,J1,16,Pin_16*%
%TO.N,GND*%
X128905000Y-91330000D03*
%TO.P,J1,17,Pin_17*%
%TO.N,unconnected-(J1-Pad17)*%
X131445000Y-93870000D03*
%TO.P,J1,18,Pin_18*%
%TO.N,GND*%
X128905000Y-93870000D03*
%TO.P,J1,19,Pin_19*%
%TO.N,unconnected-(J1-Pad19)*%
X131445000Y-96410000D03*
%TO.P,J1,20,Pin_20*%
%TO.N,GND*%
X128905000Y-96410000D03*
%TD*%
D14*
%TO.N,GND*%
X144044000Y-72256000D03*
D15*
X137300000Y-88400000D03*
%TO.N,VTREF*%
X137300000Y-87500000D03*
X130200000Y-87500000D03*
%TO.N,GND*%
X143017500Y-87382500D03*
X133200000Y-83200000D03*
X138900000Y-89200000D03*
X133200000Y-85600000D03*
X147200000Y-79800000D03*
X150100000Y-82800000D03*
X141800000Y-91200000D03*
X138900000Y-82000000D03*
X141717500Y-87382500D03*
X133200000Y-80600000D03*
X141900000Y-81524500D03*
X144317500Y-87382500D03*
X133200000Y-88500000D03*
%TO.N,TDI*%
X143650000Y-82024500D03*
X139800000Y-78158411D03*
%TO.N,TMS{slash}SWDIO*%
X139841589Y-82024500D03*
X139900000Y-89200000D03*
X139800000Y-79024500D03*
%TO.N,TCLK{slash}SWCLK*%
X141089520Y-90510480D03*
X141000000Y-79700000D03*
X141100000Y-82024500D03*
%TO.N,TDO{slash}SWO*%
X142600000Y-80800000D03*
%TD*%
D16*
%TO.N,GND*%
X144044000Y-72256000D02*
X149715000Y-72256000D01*
%TO.N,TDO{slash}SWO*%
X150950000Y-74500000D02*
X160600000Y-84150000D01*
X146300000Y-74500000D02*
X150950000Y-74500000D01*
X145905000Y-74895000D02*
X146300000Y-74500000D01*
X145905000Y-76156000D02*
X145905000Y-74895000D01*
%TO.N,VTREF*%
X131445000Y-73550000D02*
X136991000Y-73550000D01*
X135000000Y-96700000D02*
X140640000Y-96700000D01*
X130900000Y-98100000D02*
X133600000Y-98100000D01*
X130345000Y-73550000D02*
X130200000Y-73695000D01*
X133600000Y-98100000D02*
X135000000Y-96700000D01*
X139742500Y-87500000D02*
X139860000Y-87382500D01*
X130200000Y-97400000D02*
X130900000Y-98100000D01*
X138285000Y-72256000D02*
X138285000Y-76156000D01*
X130200000Y-87500000D02*
X130200000Y-97400000D01*
X128905000Y-73660000D02*
X131445000Y-73660000D01*
X130200000Y-73695000D02*
X130200000Y-87500000D01*
X131445000Y-73550000D02*
X130345000Y-73550000D01*
X136991000Y-73550000D02*
X138285000Y-72256000D01*
X137300000Y-87500000D02*
X139742500Y-87500000D01*
%TO.N,TRST*%
X133255000Y-77900000D02*
X138719520Y-77900000D01*
X139555000Y-77045000D02*
X139555000Y-76156000D01*
X131445000Y-76090000D02*
X133255000Y-77900000D01*
X138700000Y-77900000D02*
X139555000Y-77045000D01*
%TO.N,GND*%
X144317500Y-87382500D02*
X144940000Y-87382500D01*
X141717500Y-87382500D02*
X143017500Y-87382500D01*
X143017500Y-87382500D02*
X144317500Y-87382500D01*
X143147500Y-96730000D02*
X151052500Y-96730000D01*
X139555000Y-72256000D02*
X144044000Y-72256000D01*
X141130000Y-87382500D02*
X141717500Y-87382500D01*
X128905000Y-76090000D02*
X128905000Y-96410000D01*
%TO.N,TDI*%
X131675000Y-78400000D02*
X131445000Y-78630000D01*
X143650000Y-82024500D02*
X143650000Y-83462500D01*
X139800000Y-78158411D02*
X139558411Y-78400000D01*
X139800000Y-78158411D02*
X140825000Y-77133411D01*
X139558411Y-78400000D02*
X131675000Y-78400000D01*
X143650000Y-83462500D02*
X143670000Y-83482500D01*
X140825000Y-77133411D02*
X140825000Y-76156000D01*
%TO.N,TMS{slash}SWDIO*%
X142095000Y-77605000D02*
X142095000Y-76156000D01*
X133615000Y-79000000D02*
X131445000Y-81170000D01*
X140700000Y-79000000D02*
X142095000Y-77605000D01*
X160600000Y-89230000D02*
X139930000Y-89230000D01*
X139824500Y-79000000D02*
X140700000Y-79000000D01*
X139930000Y-89230000D02*
X139900000Y-89200000D01*
X139841589Y-82024500D02*
X139860000Y-82042911D01*
X139800000Y-79024500D02*
X139775500Y-79000000D01*
X139800000Y-79024500D02*
X139824500Y-79000000D01*
X139775500Y-79000000D02*
X133615000Y-79000000D01*
X139860000Y-82042911D02*
X139860000Y-83482500D01*
%TO.N,TCLK{slash}SWCLK*%
X135500000Y-79700000D02*
X141000000Y-79700000D01*
X143365000Y-77335000D02*
X143365000Y-76156000D01*
X141100000Y-82024500D02*
X141100000Y-83452500D01*
X159210000Y-94310000D02*
X155400000Y-90500000D01*
X131490000Y-83710000D02*
X135500000Y-79700000D01*
X141100000Y-83452500D02*
X141130000Y-83482500D01*
X131445000Y-83710000D02*
X131490000Y-83710000D01*
X155400000Y-90500000D02*
X141100000Y-90500000D01*
X141100000Y-90500000D02*
X141089520Y-90510480D01*
X159110000Y-94310000D02*
X160600000Y-94310000D01*
X141000000Y-79700000D02*
X143365000Y-77335000D01*
%TO.N,RTCK*%
X131445000Y-86250000D02*
X131450000Y-86250000D01*
X137300000Y-80400000D02*
X141600000Y-80400000D01*
X144635000Y-77365000D02*
X144635000Y-76156000D01*
X131450000Y-86250000D02*
X137300000Y-80400000D01*
X141600000Y-80400000D02*
X144635000Y-77365000D01*
%TO.N,TDO{slash}SWO*%
X142600000Y-80800000D02*
X142500000Y-80900000D01*
X145905000Y-77295000D02*
X145905000Y-76156000D01*
X142600000Y-80600000D02*
X145905000Y-77295000D01*
X133300000Y-86935000D02*
X131445000Y-88790000D01*
X142500000Y-80900000D02*
X138800000Y-80900000D01*
X133300000Y-86400000D02*
X133300000Y-86935000D01*
X142600000Y-80800000D02*
X142600000Y-80600000D01*
X138800000Y-80900000D02*
X133300000Y-86400000D01*
X142600000Y-83282500D02*
X142400000Y-83482500D01*
X142600000Y-80800000D02*
X142600000Y-83282500D01*
%TO.N,NRST*%
X144900000Y-84352500D02*
X144900000Y-85500000D01*
X140100000Y-95500000D02*
X149460000Y-95500000D01*
X144940000Y-84312500D02*
X144900000Y-84352500D01*
X147175000Y-77325000D02*
X144924511Y-79575489D01*
X135400000Y-85500000D02*
X134300000Y-86600000D01*
X144900000Y-85500000D02*
X159410000Y-85500000D01*
X134300000Y-86600000D02*
X134300000Y-88400000D01*
X144900000Y-85500000D02*
X135400000Y-85500000D01*
X144924511Y-79575489D02*
X144924511Y-81500000D01*
X144940000Y-83482500D02*
X144940000Y-84312500D01*
X131445000Y-91255000D02*
X131445000Y-91330000D01*
X147175000Y-76156000D02*
X147175000Y-77325000D01*
X135930000Y-91330000D02*
X140100000Y-95500000D01*
X149460000Y-95500000D02*
X150800000Y-94160000D01*
X144940000Y-83482500D02*
X144940000Y-81400000D01*
X134300000Y-88400000D02*
X131445000Y-91255000D01*
X131445000Y-91330000D02*
X135930000Y-91330000D01*
X159410000Y-85500000D02*
X160600000Y-86690000D01*
%TD*%
%TA.AperFunction,Conductor*%
%TO.N,GND*%
G36*
X168487153Y-68256421D02*
G01*
X168500000Y-68258976D01*
X168512171Y-68256555D01*
X168524581Y-68256555D01*
X168524581Y-68257198D01*
X168535326Y-68256527D01*
X168739491Y-68271129D01*
X168757285Y-68273687D01*
X168983101Y-68322810D01*
X169000350Y-68327875D01*
X169083148Y-68358757D01*
X169216877Y-68408635D01*
X169233226Y-68416102D01*
X169436049Y-68526852D01*
X169451173Y-68536571D01*
X169636176Y-68675063D01*
X169649762Y-68686836D01*
X169813164Y-68850238D01*
X169824937Y-68863824D01*
X169963429Y-69048827D01*
X169973148Y-69063951D01*
X170083898Y-69266774D01*
X170091367Y-69283127D01*
X170172125Y-69499650D01*
X170177190Y-69516899D01*
X170226313Y-69742715D01*
X170228871Y-69760509D01*
X170243473Y-69964674D01*
X170242802Y-69975419D01*
X170243445Y-69975419D01*
X170243445Y-69987829D01*
X170241024Y-70000000D01*
X170243445Y-70012170D01*
X170243579Y-70012844D01*
X170246000Y-70037425D01*
X170246000Y-99962575D01*
X170243579Y-99987153D01*
X170241024Y-100000000D01*
X170243445Y-100012171D01*
X170243445Y-100024581D01*
X170242802Y-100024581D01*
X170243473Y-100035326D01*
X170228871Y-100239491D01*
X170226313Y-100257285D01*
X170177190Y-100483101D01*
X170172125Y-100500350D01*
X170091367Y-100716873D01*
X170083898Y-100733226D01*
X169973148Y-100936049D01*
X169963429Y-100951173D01*
X169824937Y-101136176D01*
X169813164Y-101149762D01*
X169649762Y-101313164D01*
X169636176Y-101324937D01*
X169451173Y-101463429D01*
X169436049Y-101473148D01*
X169233226Y-101583898D01*
X169216877Y-101591365D01*
X169083148Y-101641243D01*
X169000350Y-101672125D01*
X168983101Y-101677190D01*
X168757285Y-101726313D01*
X168739491Y-101728871D01*
X168535326Y-101743473D01*
X168524581Y-101742802D01*
X168524581Y-101743445D01*
X168512171Y-101743445D01*
X168500000Y-101741024D01*
X168487153Y-101743579D01*
X168462575Y-101746000D01*
X129537425Y-101746000D01*
X129512847Y-101743579D01*
X129500000Y-101741024D01*
X129487829Y-101743445D01*
X129475419Y-101743445D01*
X129475419Y-101742802D01*
X129464674Y-101743473D01*
X129260509Y-101728871D01*
X129242715Y-101726313D01*
X129016899Y-101677190D01*
X128999650Y-101672125D01*
X128916852Y-101641243D01*
X128783123Y-101591365D01*
X128766774Y-101583898D01*
X128563951Y-101473148D01*
X128548827Y-101463429D01*
X128363824Y-101324937D01*
X128350238Y-101313164D01*
X128186836Y-101149762D01*
X128175063Y-101136176D01*
X128036571Y-100951173D01*
X128026852Y-100936049D01*
X127916102Y-100733226D01*
X127908633Y-100716873D01*
X127827875Y-100500350D01*
X127822810Y-100483101D01*
X127773687Y-100257285D01*
X127771129Y-100239491D01*
X127756527Y-100035326D01*
X127757198Y-100024581D01*
X127756555Y-100024581D01*
X127756555Y-100012171D01*
X127758976Y-100000000D01*
X127756421Y-99987153D01*
X127754000Y-99962575D01*
X127754000Y-97090974D01*
X127774002Y-97022853D01*
X127827658Y-96976360D01*
X127897932Y-96966256D01*
X127962512Y-96995750D01*
X127982897Y-97018254D01*
X128058579Y-97125343D01*
X128066057Y-97134098D01*
X128203114Y-97267612D01*
X128212058Y-97274855D01*
X128371156Y-97381161D01*
X128381266Y-97386651D01*
X128557077Y-97462185D01*
X128568020Y-97465740D01*
X128754647Y-97507970D01*
X128761383Y-97508857D01*
X128775302Y-97505357D01*
X128775658Y-97504978D01*
X128778000Y-97495144D01*
X128778000Y-95329678D01*
X128774194Y-95316716D01*
X128759278Y-95314780D01*
X128623737Y-95338070D01*
X128612617Y-95341050D01*
X128433095Y-95407279D01*
X128422717Y-95412229D01*
X128258273Y-95510063D01*
X128248961Y-95516829D01*
X128105097Y-95642994D01*
X128097180Y-95651337D01*
X127978950Y-95801310D01*
X127921068Y-95842423D01*
X127850148Y-95845717D01*
X127788706Y-95810145D01*
X127756249Y-95747002D01*
X127754000Y-95723304D01*
X127754000Y-94550974D01*
X127774002Y-94482853D01*
X127827658Y-94436360D01*
X127897932Y-94426256D01*
X127962512Y-94455750D01*
X127982897Y-94478254D01*
X128058579Y-94585343D01*
X128066057Y-94594098D01*
X128203114Y-94727612D01*
X128212058Y-94734855D01*
X128371156Y-94841161D01*
X128381266Y-94846651D01*
X128557077Y-94922185D01*
X128568020Y-94925740D01*
X128754647Y-94967970D01*
X128761383Y-94968857D01*
X128775302Y-94965357D01*
X128775658Y-94964978D01*
X128778000Y-94955144D01*
X128778000Y-92789678D01*
X128774194Y-92776716D01*
X128759278Y-92774780D01*
X128623737Y-92798070D01*
X128612617Y-92801050D01*
X128433095Y-92867279D01*
X128422717Y-92872229D01*
X128258273Y-92970063D01*
X128248961Y-92976829D01*
X128105097Y-93102994D01*
X128097180Y-93111337D01*
X127978950Y-93261310D01*
X127921068Y-93302423D01*
X127850148Y-93305717D01*
X127788706Y-93270145D01*
X127756249Y-93207002D01*
X127754000Y-93183304D01*
X127754000Y-92010974D01*
X127774002Y-91942853D01*
X127827658Y-91896360D01*
X127897932Y-91886256D01*
X127962512Y-91915750D01*
X127982897Y-91938254D01*
X128058579Y-92045343D01*
X128066057Y-92054098D01*
X128203114Y-92187612D01*
X128212058Y-92194855D01*
X128371156Y-92301161D01*
X128381266Y-92306651D01*
X128557077Y-92382185D01*
X128568020Y-92385740D01*
X128754647Y-92427970D01*
X128761383Y-92428857D01*
X128775302Y-92425357D01*
X128775658Y-92424978D01*
X128778000Y-92415144D01*
X128778000Y-90249678D01*
X128774194Y-90236716D01*
X128759278Y-90234780D01*
X128623737Y-90258070D01*
X128612617Y-90261050D01*
X128433095Y-90327279D01*
X128422717Y-90332229D01*
X128258273Y-90430063D01*
X128248961Y-90436829D01*
X128105097Y-90562994D01*
X128097180Y-90571337D01*
X127978950Y-90721310D01*
X127921068Y-90762423D01*
X127850148Y-90765717D01*
X127788706Y-90730145D01*
X127756249Y-90667002D01*
X127754000Y-90643304D01*
X127754000Y-89470974D01*
X127774002Y-89402853D01*
X127827658Y-89356360D01*
X127897932Y-89346256D01*
X127962512Y-89375750D01*
X127982897Y-89398254D01*
X128058579Y-89505343D01*
X128066057Y-89514098D01*
X128203114Y-89647612D01*
X128212058Y-89654855D01*
X128371156Y-89761161D01*
X128381266Y-89766651D01*
X128557077Y-89842185D01*
X128568020Y-89845740D01*
X128754647Y-89887970D01*
X128761383Y-89888857D01*
X128775302Y-89885357D01*
X128775658Y-89884978D01*
X128778000Y-89875144D01*
X128778000Y-87709678D01*
X128774194Y-87696716D01*
X128759278Y-87694780D01*
X128623737Y-87718070D01*
X128612617Y-87721050D01*
X128433095Y-87787279D01*
X128422717Y-87792229D01*
X128258273Y-87890063D01*
X128248961Y-87896829D01*
X128105097Y-88022994D01*
X128097180Y-88031337D01*
X127978950Y-88181310D01*
X127921068Y-88222423D01*
X127850148Y-88225717D01*
X127788706Y-88190145D01*
X127756249Y-88127002D01*
X127754000Y-88103304D01*
X127754000Y-86930974D01*
X127774002Y-86862853D01*
X127827658Y-86816360D01*
X127897932Y-86806256D01*
X127962512Y-86835750D01*
X127982897Y-86858254D01*
X128058579Y-86965343D01*
X128066057Y-86974098D01*
X128203114Y-87107612D01*
X128212058Y-87114855D01*
X128371156Y-87221161D01*
X128381266Y-87226651D01*
X128557077Y-87302185D01*
X128568020Y-87305740D01*
X128754647Y-87347970D01*
X128761383Y-87348857D01*
X128775302Y-87345357D01*
X128775658Y-87344978D01*
X128778000Y-87335144D01*
X128778000Y-85169678D01*
X128774194Y-85156716D01*
X128759278Y-85154780D01*
X128623737Y-85178070D01*
X128612617Y-85181050D01*
X128433095Y-85247279D01*
X128422717Y-85252229D01*
X128258273Y-85350063D01*
X128248961Y-85356829D01*
X128105097Y-85482994D01*
X128097180Y-85491337D01*
X127978950Y-85641310D01*
X127921068Y-85682423D01*
X127850148Y-85685717D01*
X127788706Y-85650145D01*
X127756249Y-85587002D01*
X127754000Y-85563304D01*
X127754000Y-84390974D01*
X127774002Y-84322853D01*
X127827658Y-84276360D01*
X127897932Y-84266256D01*
X127962512Y-84295750D01*
X127982897Y-84318254D01*
X128058579Y-84425343D01*
X128066057Y-84434098D01*
X128203114Y-84567612D01*
X128212058Y-84574855D01*
X128371156Y-84681161D01*
X128381266Y-84686651D01*
X128557077Y-84762185D01*
X128568020Y-84765740D01*
X128754647Y-84807970D01*
X128761383Y-84808857D01*
X128775302Y-84805357D01*
X128775658Y-84804978D01*
X128778000Y-84795144D01*
X128778000Y-82629678D01*
X128774194Y-82616716D01*
X128759278Y-82614780D01*
X128623737Y-82638070D01*
X128612617Y-82641050D01*
X128433095Y-82707279D01*
X128422717Y-82712229D01*
X128258273Y-82810063D01*
X128248961Y-82816829D01*
X128105097Y-82942994D01*
X128097180Y-82951337D01*
X127978950Y-83101310D01*
X127921068Y-83142423D01*
X127850148Y-83145717D01*
X127788706Y-83110145D01*
X127756249Y-83047002D01*
X127754000Y-83023304D01*
X127754000Y-81850974D01*
X127774002Y-81782853D01*
X127827658Y-81736360D01*
X127897932Y-81726256D01*
X127962512Y-81755750D01*
X127982897Y-81778254D01*
X128058579Y-81885343D01*
X128066057Y-81894098D01*
X128203114Y-82027612D01*
X128212058Y-82034855D01*
X128371156Y-82141161D01*
X128381266Y-82146651D01*
X128557077Y-82222185D01*
X128568020Y-82225740D01*
X128754647Y-82267970D01*
X128761383Y-82268857D01*
X128775302Y-82265357D01*
X128775658Y-82264978D01*
X128778000Y-82255144D01*
X128778000Y-80089678D01*
X128774194Y-80076716D01*
X128759278Y-80074780D01*
X128623737Y-80098070D01*
X128612617Y-80101050D01*
X128433095Y-80167279D01*
X128422717Y-80172229D01*
X128258273Y-80270063D01*
X128248961Y-80276829D01*
X128105097Y-80402994D01*
X128097180Y-80411337D01*
X127978950Y-80561310D01*
X127921068Y-80602423D01*
X127850148Y-80605717D01*
X127788706Y-80570145D01*
X127756249Y-80507002D01*
X127754000Y-80483304D01*
X127754000Y-79310974D01*
X127774002Y-79242853D01*
X127827658Y-79196360D01*
X127897932Y-79186256D01*
X127962512Y-79215750D01*
X127982897Y-79238254D01*
X128058579Y-79345343D01*
X128066057Y-79354098D01*
X128203114Y-79487612D01*
X128212058Y-79494855D01*
X128371156Y-79601161D01*
X128381266Y-79606651D01*
X128557077Y-79682185D01*
X128568020Y-79685740D01*
X128754647Y-79727970D01*
X128761383Y-79728857D01*
X128775302Y-79725357D01*
X128775658Y-79724978D01*
X128778000Y-79715144D01*
X128778000Y-77549678D01*
X128774194Y-77536716D01*
X128759278Y-77534780D01*
X128623737Y-77558070D01*
X128612617Y-77561050D01*
X128433095Y-77627279D01*
X128422717Y-77632229D01*
X128258273Y-77730063D01*
X128248961Y-77736829D01*
X128105097Y-77862994D01*
X128097180Y-77871337D01*
X127978950Y-78021310D01*
X127921068Y-78062423D01*
X127850148Y-78065717D01*
X127788706Y-78030145D01*
X127756249Y-77967002D01*
X127754000Y-77943304D01*
X127754000Y-76770974D01*
X127774002Y-76702853D01*
X127827658Y-76656360D01*
X127897932Y-76646256D01*
X127962512Y-76675750D01*
X127982897Y-76698254D01*
X128058579Y-76805343D01*
X128066057Y-76814098D01*
X128203114Y-76947612D01*
X128212058Y-76954855D01*
X128371156Y-77061161D01*
X128381266Y-77066651D01*
X128557077Y-77142185D01*
X128568020Y-77145740D01*
X128754647Y-77187970D01*
X128761383Y-77188857D01*
X128775302Y-77185357D01*
X128775658Y-77184978D01*
X128778000Y-77175144D01*
X128778000Y-75009678D01*
X128774194Y-74996716D01*
X128759278Y-74994780D01*
X128623737Y-75018070D01*
X128612617Y-75021050D01*
X128433095Y-75087279D01*
X128422717Y-75092229D01*
X128258273Y-75190063D01*
X128248961Y-75196829D01*
X128105097Y-75322994D01*
X128097180Y-75331337D01*
X127978950Y-75481310D01*
X127921068Y-75522423D01*
X127850148Y-75525717D01*
X127788706Y-75490145D01*
X127756249Y-75427002D01*
X127754000Y-75403304D01*
X127754000Y-74231841D01*
X127774002Y-74163720D01*
X127827658Y-74117227D01*
X127897932Y-74107123D01*
X127962512Y-74136617D01*
X127982897Y-74159121D01*
X128023325Y-74216325D01*
X128061533Y-74270389D01*
X128206938Y-74412035D01*
X128375720Y-74524812D01*
X128381023Y-74527090D01*
X128381026Y-74527092D01*
X128512283Y-74583484D01*
X128562228Y-74604942D01*
X128622628Y-74618609D01*
X128754579Y-74648467D01*
X128754584Y-74648468D01*
X128760216Y-74649742D01*
X128765987Y-74649969D01*
X128765989Y-74649969D01*
X128825756Y-74652317D01*
X128963053Y-74657712D01*
X129076231Y-74641302D01*
X129158231Y-74629413D01*
X129158236Y-74629412D01*
X129163945Y-74628584D01*
X129169409Y-74626729D01*
X129169414Y-74626728D01*
X129350693Y-74565192D01*
X129350698Y-74565190D01*
X129356165Y-74563334D01*
X129533276Y-74464147D01*
X129613931Y-74397067D01*
X129679094Y-74368886D01*
X129749149Y-74380409D01*
X129801854Y-74427978D01*
X129820500Y-74493941D01*
X129820500Y-75144685D01*
X129800498Y-75212806D01*
X129746842Y-75259299D01*
X129676568Y-75269403D01*
X129608971Y-75237209D01*
X129584198Y-75214309D01*
X129575067Y-75207303D01*
X129413236Y-75105195D01*
X129402989Y-75099974D01*
X129225260Y-75029068D01*
X129214232Y-75025801D01*
X129049769Y-74993088D01*
X129036894Y-74994240D01*
X129032000Y-75009396D01*
X129032000Y-77169095D01*
X129035966Y-77182601D01*
X129049966Y-77184605D01*
X129158106Y-77168926D01*
X129169302Y-77166238D01*
X129350497Y-77104730D01*
X129360994Y-77100056D01*
X129527958Y-77006552D01*
X129537430Y-77000042D01*
X129613931Y-76936417D01*
X129679095Y-76908236D01*
X129749150Y-76919760D01*
X129801854Y-76967329D01*
X129820500Y-77033291D01*
X129820500Y-77684685D01*
X129800498Y-77752806D01*
X129746842Y-77799299D01*
X129676568Y-77809403D01*
X129608971Y-77777209D01*
X129584198Y-77754309D01*
X129575067Y-77747303D01*
X129413236Y-77645195D01*
X129402989Y-77639974D01*
X129225260Y-77569068D01*
X129214232Y-77565801D01*
X129049769Y-77533088D01*
X129036894Y-77534240D01*
X129032000Y-77549396D01*
X129032000Y-79709095D01*
X129035966Y-79722601D01*
X129049966Y-79724605D01*
X129158106Y-79708926D01*
X129169302Y-79706238D01*
X129350497Y-79644730D01*
X129360994Y-79640056D01*
X129527958Y-79546552D01*
X129537430Y-79540042D01*
X129613931Y-79476417D01*
X129679095Y-79448236D01*
X129749150Y-79459760D01*
X129801854Y-79507329D01*
X129820500Y-79573291D01*
X129820500Y-80224685D01*
X129800498Y-80292806D01*
X129746842Y-80339299D01*
X129676568Y-80349403D01*
X129608971Y-80317209D01*
X129584198Y-80294309D01*
X129575067Y-80287303D01*
X129413236Y-80185195D01*
X129402989Y-80179974D01*
X129225260Y-80109068D01*
X129214232Y-80105801D01*
X129049769Y-80073088D01*
X129036894Y-80074240D01*
X129032000Y-80089396D01*
X129032000Y-82249095D01*
X129035966Y-82262601D01*
X129049966Y-82264605D01*
X129158106Y-82248926D01*
X129169302Y-82246238D01*
X129350497Y-82184730D01*
X129360994Y-82180056D01*
X129527958Y-82086552D01*
X129537430Y-82080042D01*
X129613931Y-82016417D01*
X129679095Y-81988236D01*
X129749150Y-81999760D01*
X129801854Y-82047329D01*
X129820500Y-82113291D01*
X129820500Y-82764685D01*
X129800498Y-82832806D01*
X129746842Y-82879299D01*
X129676568Y-82889403D01*
X129608971Y-82857209D01*
X129584198Y-82834309D01*
X129575067Y-82827303D01*
X129413236Y-82725195D01*
X129402989Y-82719974D01*
X129225260Y-82649068D01*
X129214232Y-82645801D01*
X129049769Y-82613088D01*
X129036894Y-82614240D01*
X129032000Y-82629396D01*
X129032000Y-84789095D01*
X129035966Y-84802601D01*
X129049966Y-84804605D01*
X129158106Y-84788926D01*
X129169302Y-84786238D01*
X129350497Y-84724730D01*
X129360994Y-84720056D01*
X129527958Y-84626552D01*
X129537430Y-84620042D01*
X129613931Y-84556417D01*
X129679095Y-84528236D01*
X129749150Y-84539760D01*
X129801854Y-84587329D01*
X129820500Y-84653291D01*
X129820500Y-85304685D01*
X129800498Y-85372806D01*
X129746842Y-85419299D01*
X129676568Y-85429403D01*
X129608971Y-85397209D01*
X129584198Y-85374309D01*
X129575067Y-85367303D01*
X129413236Y-85265195D01*
X129402989Y-85259974D01*
X129225260Y-85189068D01*
X129214232Y-85185801D01*
X129049769Y-85153088D01*
X129036894Y-85154240D01*
X129032000Y-85169396D01*
X129032000Y-87329095D01*
X129035966Y-87342601D01*
X129049966Y-87344605D01*
X129158106Y-87328926D01*
X129169302Y-87326238D01*
X129350497Y-87264730D01*
X129361002Y-87260053D01*
X129484326Y-87190988D01*
X129553534Y-87175154D01*
X129620316Y-87199251D01*
X129663469Y-87255628D01*
X129669292Y-87326385D01*
X129664045Y-87343461D01*
X129662931Y-87347620D01*
X129659772Y-87355246D01*
X129658695Y-87363430D01*
X129658694Y-87363432D01*
X129643841Y-87476255D01*
X129640715Y-87500000D01*
X129641793Y-87508188D01*
X129647035Y-87548002D01*
X129659772Y-87644754D01*
X129662931Y-87652380D01*
X129662933Y-87652387D01*
X129685198Y-87706139D01*
X129692788Y-87776729D01*
X129661009Y-87840216D01*
X129599951Y-87876444D01*
X129529000Y-87873910D01*
X129501555Y-87860920D01*
X129413236Y-87805195D01*
X129402989Y-87799974D01*
X129225260Y-87729068D01*
X129214232Y-87725801D01*
X129049769Y-87693088D01*
X129036894Y-87694240D01*
X129032000Y-87709396D01*
X129032000Y-89869095D01*
X129035966Y-89882601D01*
X129049966Y-89884605D01*
X129158106Y-89868926D01*
X129169302Y-89866238D01*
X129350497Y-89804730D01*
X129360994Y-89800056D01*
X129527958Y-89706552D01*
X129537430Y-89700042D01*
X129613931Y-89636417D01*
X129679095Y-89608236D01*
X129749150Y-89619760D01*
X129801854Y-89667329D01*
X129820500Y-89733291D01*
X129820500Y-90384685D01*
X129800498Y-90452806D01*
X129746842Y-90499299D01*
X129676568Y-90509403D01*
X129608971Y-90477209D01*
X129584198Y-90454309D01*
X129575067Y-90447303D01*
X129413236Y-90345195D01*
X129402989Y-90339974D01*
X129225260Y-90269068D01*
X129214232Y-90265801D01*
X129049769Y-90233088D01*
X129036894Y-90234240D01*
X129032000Y-90249396D01*
X129032000Y-92409095D01*
X129035966Y-92422601D01*
X129049966Y-92424605D01*
X129158106Y-92408926D01*
X129169302Y-92406238D01*
X129350497Y-92344730D01*
X129360994Y-92340056D01*
X129527958Y-92246552D01*
X129537430Y-92240042D01*
X129613931Y-92176417D01*
X129679095Y-92148236D01*
X129749150Y-92159760D01*
X129801854Y-92207329D01*
X129820500Y-92273291D01*
X129820500Y-92924685D01*
X129800498Y-92992806D01*
X129746842Y-93039299D01*
X129676568Y-93049403D01*
X129608971Y-93017209D01*
X129584198Y-92994309D01*
X129575067Y-92987303D01*
X129413236Y-92885195D01*
X129402989Y-92879974D01*
X129225260Y-92809068D01*
X129214232Y-92805801D01*
X129049769Y-92773088D01*
X129036894Y-92774240D01*
X129032000Y-92789396D01*
X129032000Y-94949095D01*
X129035966Y-94962601D01*
X129049966Y-94964605D01*
X129158106Y-94948926D01*
X129169302Y-94946238D01*
X129350497Y-94884730D01*
X129360994Y-94880056D01*
X129527958Y-94786552D01*
X129537430Y-94780042D01*
X129613931Y-94716417D01*
X129679095Y-94688236D01*
X129749150Y-94699760D01*
X129801854Y-94747329D01*
X129820500Y-94813291D01*
X129820500Y-95464685D01*
X129800498Y-95532806D01*
X129746842Y-95579299D01*
X129676568Y-95589403D01*
X129608971Y-95557209D01*
X129584198Y-95534309D01*
X129575067Y-95527303D01*
X129413236Y-95425195D01*
X129402989Y-95419974D01*
X129225260Y-95349068D01*
X129214232Y-95345801D01*
X129049769Y-95313088D01*
X129036894Y-95314240D01*
X129032000Y-95329396D01*
X129032000Y-97489095D01*
X129035966Y-97502601D01*
X129049966Y-97504605D01*
X129158106Y-97488926D01*
X129169302Y-97486238D01*
X129350497Y-97424730D01*
X129360994Y-97420056D01*
X129527958Y-97326552D01*
X129537430Y-97320042D01*
X129612040Y-97257990D01*
X129677204Y-97229809D01*
X129747259Y-97241333D01*
X129799964Y-97288902D01*
X129818583Y-97357413D01*
X129818131Y-97361282D01*
X129818363Y-97361293D01*
X129817872Y-97371694D01*
X129815680Y-97381876D01*
X129816904Y-97392217D01*
X129819627Y-97415223D01*
X129819977Y-97421154D01*
X129820072Y-97421146D01*
X129820500Y-97426324D01*
X129820500Y-97431524D01*
X129821354Y-97436653D01*
X129821354Y-97436656D01*
X129823669Y-97450565D01*
X129824506Y-97456443D01*
X129828371Y-97489095D01*
X129830530Y-97507341D01*
X129834493Y-97515593D01*
X129835996Y-97524626D01*
X129840943Y-97533795D01*
X129840944Y-97533797D01*
X129860334Y-97569732D01*
X129863031Y-97575025D01*
X129881785Y-97614082D01*
X129881788Y-97614086D01*
X129885219Y-97621232D01*
X129888814Y-97625508D01*
X129890737Y-97627431D01*
X129892509Y-97629363D01*
X129892552Y-97629442D01*
X129892428Y-97629555D01*
X129892904Y-97630095D01*
X129895990Y-97635814D01*
X129903635Y-97642881D01*
X129935572Y-97672403D01*
X129939139Y-97675833D01*
X130593527Y-98330222D01*
X130608659Y-98348959D01*
X130609780Y-98350191D01*
X130615429Y-98358940D01*
X130623607Y-98365387D01*
X130641799Y-98379728D01*
X130646241Y-98383676D01*
X130646303Y-98383603D01*
X130650268Y-98386963D01*
X130653943Y-98390638D01*
X130658165Y-98393655D01*
X130658171Y-98393660D01*
X130669650Y-98401862D01*
X130674399Y-98405428D01*
X130714647Y-98437156D01*
X130723284Y-98440189D01*
X130730734Y-98445513D01*
X130740710Y-98448497D01*
X130740711Y-98448497D01*
X130756046Y-98453083D01*
X130779849Y-98460202D01*
X130785486Y-98462034D01*
X130826199Y-98476331D01*
X130833851Y-98479018D01*
X130839416Y-98479500D01*
X130842124Y-98479500D01*
X130844758Y-98479614D01*
X130844856Y-98479643D01*
X130844849Y-98479807D01*
X130845553Y-98479851D01*
X130851778Y-98481713D01*
X130905635Y-98479597D01*
X130910582Y-98479500D01*
X133546080Y-98479500D01*
X133570028Y-98482049D01*
X133571693Y-98482128D01*
X133581876Y-98484320D01*
X133592217Y-98483096D01*
X133615223Y-98480373D01*
X133621154Y-98480023D01*
X133621146Y-98479928D01*
X133626324Y-98479500D01*
X133631524Y-98479500D01*
X133636653Y-98478646D01*
X133636656Y-98478646D01*
X133650565Y-98476331D01*
X133656443Y-98475494D01*
X133697001Y-98470694D01*
X133697002Y-98470694D01*
X133707341Y-98469470D01*
X133715593Y-98465507D01*
X133724626Y-98464004D01*
X133733795Y-98459057D01*
X133733797Y-98459056D01*
X133769732Y-98439666D01*
X133775025Y-98436969D01*
X133814082Y-98418215D01*
X133814086Y-98418212D01*
X133821232Y-98414781D01*
X133825508Y-98411186D01*
X133827431Y-98409263D01*
X133829363Y-98407491D01*
X133829442Y-98407448D01*
X133829555Y-98407572D01*
X133830095Y-98407096D01*
X133835814Y-98404010D01*
X133854012Y-98384324D01*
X133872416Y-98364414D01*
X133875846Y-98360848D01*
X135120289Y-97116405D01*
X135182601Y-97082379D01*
X135209384Y-97079500D01*
X139409501Y-97079500D01*
X139477622Y-97099502D01*
X139524115Y-97153158D01*
X139535501Y-97205500D01*
X139535501Y-97575066D01*
X139542458Y-97610042D01*
X139546339Y-97629555D01*
X139550266Y-97649301D01*
X139557161Y-97659620D01*
X139557162Y-97659622D01*
X139567994Y-97675833D01*
X139606516Y-97733484D01*
X139690699Y-97789734D01*
X139764933Y-97804500D01*
X140639858Y-97804500D01*
X141515066Y-97804499D01*
X141550818Y-97797388D01*
X141577126Y-97792156D01*
X141577128Y-97792155D01*
X141589301Y-97789734D01*
X141599621Y-97782839D01*
X141599622Y-97782838D01*
X141663168Y-97740377D01*
X141673484Y-97733484D01*
X141729734Y-97649301D01*
X141744500Y-97575067D01*
X141744500Y-96842602D01*
X142082899Y-96842602D01*
X142084542Y-96867676D01*
X142086343Y-96879046D01*
X142133443Y-97064502D01*
X142137284Y-97075348D01*
X142217394Y-97249120D01*
X142223145Y-97259081D01*
X142333579Y-97415343D01*
X142341057Y-97424098D01*
X142478114Y-97557612D01*
X142487058Y-97564855D01*
X142646156Y-97671161D01*
X142656266Y-97676651D01*
X142832077Y-97752185D01*
X142843020Y-97755740D01*
X143029647Y-97797970D01*
X143036383Y-97798857D01*
X143050302Y-97795357D01*
X143050658Y-97794978D01*
X143053000Y-97785144D01*
X143053000Y-97779095D01*
X143307000Y-97779095D01*
X143310966Y-97792601D01*
X143324966Y-97794605D01*
X143433106Y-97778926D01*
X143444302Y-97776238D01*
X143625497Y-97714730D01*
X143635994Y-97710056D01*
X143802958Y-97616552D01*
X143812430Y-97610042D01*
X143959553Y-97487682D01*
X143967682Y-97479553D01*
X144090042Y-97332430D01*
X144096552Y-97322958D01*
X144190056Y-97155994D01*
X144194730Y-97145497D01*
X144256238Y-96964302D01*
X144258926Y-96953106D01*
X144274610Y-96844929D01*
X144274278Y-96842602D01*
X144622899Y-96842602D01*
X144624542Y-96867676D01*
X144626343Y-96879046D01*
X144673443Y-97064502D01*
X144677284Y-97075348D01*
X144757394Y-97249120D01*
X144763145Y-97259081D01*
X144873579Y-97415343D01*
X144881057Y-97424098D01*
X145018114Y-97557612D01*
X145027058Y-97564855D01*
X145186156Y-97671161D01*
X145196266Y-97676651D01*
X145372077Y-97752185D01*
X145383020Y-97755740D01*
X145569647Y-97797970D01*
X145576383Y-97798857D01*
X145590302Y-97795357D01*
X145590658Y-97794978D01*
X145593000Y-97785144D01*
X145593000Y-97779095D01*
X145847000Y-97779095D01*
X145850966Y-97792601D01*
X145864966Y-97794605D01*
X145973106Y-97778926D01*
X145984302Y-97776238D01*
X146165497Y-97714730D01*
X146175994Y-97710056D01*
X146342958Y-97616552D01*
X146352430Y-97610042D01*
X146499553Y-97487682D01*
X146507682Y-97479553D01*
X146630042Y-97332430D01*
X146636552Y-97322958D01*
X146730056Y-97155994D01*
X146734730Y-97145497D01*
X146796238Y-96964302D01*
X146798926Y-96953106D01*
X146814610Y-96844929D01*
X146814278Y-96842602D01*
X147162899Y-96842602D01*
X147164542Y-96867676D01*
X147166343Y-96879046D01*
X147213443Y-97064502D01*
X147217284Y-97075348D01*
X147297394Y-97249120D01*
X147303145Y-97259081D01*
X147413579Y-97415343D01*
X147421057Y-97424098D01*
X147558114Y-97557612D01*
X147567058Y-97564855D01*
X147726156Y-97671161D01*
X147736266Y-97676651D01*
X147912077Y-97752185D01*
X147923020Y-97755740D01*
X148109647Y-97797970D01*
X148116383Y-97798857D01*
X148130302Y-97795357D01*
X148130658Y-97794978D01*
X148133000Y-97785144D01*
X148133000Y-97779095D01*
X148387000Y-97779095D01*
X148390966Y-97792601D01*
X148404966Y-97794605D01*
X148513106Y-97778926D01*
X148524302Y-97776238D01*
X148705497Y-97714730D01*
X148715994Y-97710056D01*
X148882958Y-97616552D01*
X148892430Y-97610042D01*
X149039553Y-97487682D01*
X149047682Y-97479553D01*
X149170042Y-97332430D01*
X149176552Y-97322958D01*
X149270056Y-97155994D01*
X149274730Y-97145497D01*
X149336238Y-96964302D01*
X149338926Y-96953106D01*
X149354610Y-96844929D01*
X149354278Y-96842602D01*
X149702899Y-96842602D01*
X149704542Y-96867676D01*
X149706343Y-96879046D01*
X149753443Y-97064502D01*
X149757284Y-97075348D01*
X149837394Y-97249120D01*
X149843145Y-97259081D01*
X149953579Y-97415343D01*
X149961057Y-97424098D01*
X150098114Y-97557612D01*
X150107058Y-97564855D01*
X150266156Y-97671161D01*
X150276266Y-97676651D01*
X150452077Y-97752185D01*
X150463020Y-97755740D01*
X150649647Y-97797970D01*
X150656383Y-97798857D01*
X150670302Y-97795357D01*
X150670658Y-97794978D01*
X150673000Y-97785144D01*
X150673000Y-97779095D01*
X150927000Y-97779095D01*
X150930966Y-97792601D01*
X150944966Y-97794605D01*
X151053106Y-97778926D01*
X151064302Y-97776238D01*
X151245497Y-97714730D01*
X151255994Y-97710056D01*
X151422958Y-97616552D01*
X151432430Y-97610042D01*
X151579553Y-97487682D01*
X151587682Y-97479553D01*
X151710042Y-97332430D01*
X151716552Y-97322958D01*
X151810056Y-97155994D01*
X151814730Y-97145497D01*
X151876238Y-96964302D01*
X151878926Y-96953106D01*
X151894610Y-96844929D01*
X151892624Y-96830993D01*
X151879056Y-96827000D01*
X150945115Y-96827000D01*
X150929876Y-96831475D01*
X150928671Y-96832865D01*
X150927000Y-96840548D01*
X150927000Y-97779095D01*
X150673000Y-97779095D01*
X150673000Y-96845115D01*
X150668525Y-96829876D01*
X150667135Y-96828671D01*
X150659452Y-96827000D01*
X149719991Y-96827000D01*
X149704951Y-96831416D01*
X149702899Y-96842602D01*
X149354278Y-96842602D01*
X149352624Y-96830993D01*
X149339056Y-96827000D01*
X148405115Y-96827000D01*
X148389876Y-96831475D01*
X148388671Y-96832865D01*
X148387000Y-96840548D01*
X148387000Y-97779095D01*
X148133000Y-97779095D01*
X148133000Y-96845115D01*
X148128525Y-96829876D01*
X148127135Y-96828671D01*
X148119452Y-96827000D01*
X147179991Y-96827000D01*
X147164951Y-96831416D01*
X147162899Y-96842602D01*
X146814278Y-96842602D01*
X146812624Y-96830993D01*
X146799056Y-96827000D01*
X145865115Y-96827000D01*
X145849876Y-96831475D01*
X145848671Y-96832865D01*
X145847000Y-96840548D01*
X145847000Y-97779095D01*
X145593000Y-97779095D01*
X145593000Y-96845115D01*
X145588525Y-96829876D01*
X145587135Y-96828671D01*
X145579452Y-96827000D01*
X144639991Y-96827000D01*
X144624951Y-96831416D01*
X144622899Y-96842602D01*
X144274278Y-96842602D01*
X144272624Y-96830993D01*
X144259056Y-96827000D01*
X143325115Y-96827000D01*
X143309876Y-96831475D01*
X143308671Y-96832865D01*
X143307000Y-96840548D01*
X143307000Y-97779095D01*
X143053000Y-97779095D01*
X143053000Y-96845115D01*
X143048525Y-96829876D01*
X143047135Y-96828671D01*
X143039452Y-96827000D01*
X142099991Y-96827000D01*
X142084951Y-96831416D01*
X142082899Y-96842602D01*
X141744500Y-96842602D01*
X141744499Y-96005500D01*
X141764501Y-95937379D01*
X141818157Y-95890886D01*
X141870499Y-95879500D01*
X142161152Y-95879500D01*
X142229273Y-95899502D01*
X142275766Y-95953158D01*
X142285870Y-96023432D01*
X142260104Y-96083504D01*
X142253716Y-96091607D01*
X142247450Y-96101256D01*
X142158360Y-96270589D01*
X142153951Y-96281232D01*
X142097210Y-96463967D01*
X142094820Y-96475211D01*
X142085375Y-96555012D01*
X142087817Y-96569431D01*
X142100559Y-96573000D01*
X144258945Y-96573000D01*
X144273490Y-96568729D01*
X144275553Y-96556595D01*
X144270693Y-96503707D01*
X144268595Y-96492386D01*
X144216658Y-96308231D01*
X144212533Y-96297484D01*
X144127903Y-96125871D01*
X144121893Y-96116063D01*
X144095627Y-96080889D01*
X144070895Y-96014340D01*
X144086069Y-95944983D01*
X144136331Y-95894841D01*
X144196585Y-95879500D01*
X144701152Y-95879500D01*
X144769273Y-95899502D01*
X144815766Y-95953158D01*
X144825870Y-96023432D01*
X144800104Y-96083504D01*
X144793716Y-96091607D01*
X144787450Y-96101256D01*
X144698360Y-96270589D01*
X144693951Y-96281232D01*
X144637210Y-96463967D01*
X144634820Y-96475211D01*
X144625375Y-96555012D01*
X144627817Y-96569431D01*
X144640559Y-96573000D01*
X146798945Y-96573000D01*
X146813490Y-96568729D01*
X146815553Y-96556595D01*
X146810693Y-96503707D01*
X146808595Y-96492386D01*
X146756658Y-96308231D01*
X146752533Y-96297484D01*
X146667903Y-96125871D01*
X146661893Y-96116063D01*
X146635627Y-96080889D01*
X146610895Y-96014340D01*
X146626069Y-95944983D01*
X146676331Y-95894841D01*
X146736585Y-95879500D01*
X147241152Y-95879500D01*
X147309273Y-95899502D01*
X147355766Y-95953158D01*
X147365870Y-96023432D01*
X147340104Y-96083504D01*
X147333716Y-96091607D01*
X147327450Y-96101256D01*
X147238360Y-96270589D01*
X147233951Y-96281232D01*
X147177210Y-96463967D01*
X147174820Y-96475211D01*
X147165375Y-96555012D01*
X147167817Y-96569431D01*
X147180559Y-96573000D01*
X149338945Y-96573000D01*
X149353490Y-96568729D01*
X149355553Y-96556595D01*
X149355408Y-96555012D01*
X149705375Y-96555012D01*
X149707817Y-96569431D01*
X149720559Y-96573000D01*
X150654885Y-96573000D01*
X150670124Y-96568525D01*
X150671329Y-96567135D01*
X150673000Y-96559452D01*
X150673000Y-96554885D01*
X150927000Y-96554885D01*
X150931475Y-96570124D01*
X150932865Y-96571329D01*
X150940548Y-96573000D01*
X151878945Y-96573000D01*
X151893490Y-96568729D01*
X151895553Y-96556595D01*
X151890693Y-96503707D01*
X151888595Y-96492386D01*
X151836658Y-96308231D01*
X151832533Y-96297484D01*
X151747903Y-96125871D01*
X151741893Y-96116063D01*
X151636506Y-95974933D01*
X159495500Y-95974933D01*
X159495501Y-97725066D01*
X159500895Y-97752185D01*
X159506992Y-97782839D01*
X159510266Y-97799301D01*
X159566516Y-97883484D01*
X159650699Y-97939734D01*
X159724933Y-97954500D01*
X160599858Y-97954500D01*
X161475066Y-97954499D01*
X161510818Y-97947388D01*
X161537126Y-97942156D01*
X161537128Y-97942155D01*
X161549301Y-97939734D01*
X161559621Y-97932839D01*
X161559622Y-97932838D01*
X161623168Y-97890377D01*
X161633484Y-97883484D01*
X161689734Y-97799301D01*
X161704500Y-97725067D01*
X161704499Y-95974934D01*
X161697388Y-95939182D01*
X161692156Y-95912874D01*
X161692155Y-95912872D01*
X161689734Y-95900699D01*
X161677273Y-95882049D01*
X161640377Y-95826832D01*
X161633484Y-95816516D01*
X161549301Y-95760266D01*
X161475067Y-95745500D01*
X160600142Y-95745500D01*
X159724934Y-95745501D01*
X159698800Y-95750699D01*
X159662874Y-95757844D01*
X159662872Y-95757845D01*
X159650699Y-95760266D01*
X159640379Y-95767161D01*
X159640378Y-95767162D01*
X159596674Y-95796365D01*
X159566516Y-95816516D01*
X159510266Y-95900699D01*
X159495500Y-95974933D01*
X151636506Y-95974933D01*
X151627400Y-95962739D01*
X151619710Y-95954199D01*
X151479192Y-95824304D01*
X151470067Y-95817303D01*
X151308236Y-95715195D01*
X151297989Y-95709974D01*
X151120260Y-95639068D01*
X151109232Y-95635801D01*
X150944769Y-95603088D01*
X150931894Y-95604240D01*
X150927000Y-95619396D01*
X150927000Y-96554885D01*
X150673000Y-96554885D01*
X150673000Y-95619678D01*
X150669194Y-95606716D01*
X150654278Y-95604780D01*
X150518737Y-95628070D01*
X150507617Y-95631050D01*
X150328095Y-95697279D01*
X150317717Y-95702229D01*
X150153273Y-95800063D01*
X150143961Y-95806829D01*
X150000097Y-95932994D01*
X149992180Y-95941337D01*
X149873718Y-96091605D01*
X149867450Y-96101256D01*
X149778360Y-96270589D01*
X149773951Y-96281232D01*
X149717210Y-96463967D01*
X149714820Y-96475211D01*
X149705375Y-96555012D01*
X149355408Y-96555012D01*
X149350693Y-96503707D01*
X149348595Y-96492386D01*
X149296658Y-96308231D01*
X149292533Y-96297484D01*
X149207903Y-96125871D01*
X149201893Y-96116063D01*
X149175627Y-96080889D01*
X149150895Y-96014340D01*
X149166069Y-95944983D01*
X149216331Y-95894841D01*
X149276585Y-95879500D01*
X149406080Y-95879500D01*
X149430028Y-95882049D01*
X149431693Y-95882128D01*
X149441876Y-95884320D01*
X149452217Y-95883096D01*
X149475223Y-95880373D01*
X149481154Y-95880023D01*
X149481146Y-95879928D01*
X149486324Y-95879500D01*
X149491524Y-95879500D01*
X149496653Y-95878646D01*
X149496656Y-95878646D01*
X149510565Y-95876331D01*
X149516443Y-95875494D01*
X149557001Y-95870694D01*
X149557002Y-95870694D01*
X149567341Y-95869470D01*
X149575593Y-95865507D01*
X149584626Y-95864004D01*
X149593795Y-95859057D01*
X149593797Y-95859056D01*
X149629732Y-95839666D01*
X149635025Y-95836969D01*
X149674082Y-95818215D01*
X149674086Y-95818212D01*
X149681232Y-95814781D01*
X149685508Y-95811186D01*
X149687431Y-95809263D01*
X149689363Y-95807491D01*
X149689442Y-95807448D01*
X149689555Y-95807572D01*
X149690095Y-95807096D01*
X149695814Y-95804010D01*
X149732417Y-95764413D01*
X149735846Y-95760848D01*
X150274107Y-95222587D01*
X150336419Y-95188561D01*
X150412941Y-95195915D01*
X150457228Y-95214942D01*
X150510393Y-95226972D01*
X150649579Y-95258467D01*
X150649584Y-95258468D01*
X150655216Y-95259742D01*
X150660987Y-95259969D01*
X150660989Y-95259969D01*
X150720756Y-95262317D01*
X150858053Y-95267712D01*
X150958499Y-95253148D01*
X151053231Y-95239413D01*
X151053236Y-95239412D01*
X151058945Y-95238584D01*
X151064409Y-95236729D01*
X151064414Y-95236728D01*
X151245693Y-95175192D01*
X151245698Y-95175190D01*
X151251165Y-95173334D01*
X151428276Y-95074147D01*
X151461107Y-95046842D01*
X151579913Y-94948031D01*
X151584345Y-94944345D01*
X151646733Y-94869332D01*
X151710453Y-94792718D01*
X151710455Y-94792715D01*
X151714147Y-94788276D01*
X151813334Y-94611165D01*
X151815190Y-94605698D01*
X151815192Y-94605693D01*
X151876728Y-94424414D01*
X151876729Y-94424409D01*
X151878584Y-94418945D01*
X151879412Y-94413236D01*
X151879413Y-94413231D01*
X151907179Y-94221727D01*
X151907712Y-94218053D01*
X151909232Y-94160000D01*
X151890658Y-93957859D01*
X151884244Y-93935116D01*
X151837125Y-93768046D01*
X151837124Y-93768044D01*
X151835557Y-93762487D01*
X151824978Y-93741033D01*
X151748331Y-93585609D01*
X151745776Y-93580428D01*
X151624320Y-93417779D01*
X151503092Y-93305717D01*
X151479503Y-93283911D01*
X151475258Y-93279987D01*
X151470375Y-93276906D01*
X151470371Y-93276903D01*
X151308464Y-93174748D01*
X151303581Y-93171667D01*
X151115039Y-93096446D01*
X151109379Y-93095320D01*
X151109375Y-93095319D01*
X150921613Y-93057971D01*
X150921610Y-93057971D01*
X150915946Y-93056844D01*
X150910171Y-93056768D01*
X150910167Y-93056768D01*
X150808793Y-93055441D01*
X150712971Y-93054187D01*
X150707274Y-93055166D01*
X150707273Y-93055166D01*
X150518607Y-93087585D01*
X150512910Y-93088564D01*
X150322463Y-93158824D01*
X150148010Y-93262612D01*
X150143670Y-93266418D01*
X150143666Y-93266421D01*
X149999733Y-93392648D01*
X149995392Y-93396455D01*
X149869720Y-93555869D01*
X149867031Y-93560980D01*
X149867029Y-93560983D01*
X149855481Y-93582933D01*
X149775203Y-93735515D01*
X149715007Y-93929378D01*
X149691148Y-94130964D01*
X149704424Y-94333522D01*
X149705845Y-94339118D01*
X149705846Y-94339123D01*
X149730542Y-94436360D01*
X149754392Y-94530269D01*
X149761375Y-94545417D01*
X149771730Y-94615652D01*
X149742468Y-94680338D01*
X149736044Y-94687262D01*
X149339711Y-95083595D01*
X149277399Y-95117621D01*
X149250616Y-95120500D01*
X149166515Y-95120500D01*
X149098394Y-95100498D01*
X149051901Y-95046842D01*
X149041797Y-94976568D01*
X149069641Y-94913930D01*
X149170453Y-94792718D01*
X149170455Y-94792715D01*
X149174147Y-94788276D01*
X149273334Y-94611165D01*
X149275190Y-94605698D01*
X149275192Y-94605693D01*
X149336728Y-94424414D01*
X149336729Y-94424409D01*
X149338584Y-94418945D01*
X149339412Y-94413236D01*
X149339413Y-94413231D01*
X149367179Y-94221727D01*
X149367712Y-94218053D01*
X149369232Y-94160000D01*
X149350658Y-93957859D01*
X149344244Y-93935116D01*
X149297125Y-93768046D01*
X149297124Y-93768044D01*
X149295557Y-93762487D01*
X149284978Y-93741033D01*
X149208331Y-93585609D01*
X149205776Y-93580428D01*
X149084320Y-93417779D01*
X148963092Y-93305717D01*
X148939503Y-93283911D01*
X148935258Y-93279987D01*
X148930375Y-93276906D01*
X148930371Y-93276903D01*
X148768464Y-93174748D01*
X148763581Y-93171667D01*
X148575039Y-93096446D01*
X148569379Y-93095320D01*
X148569375Y-93095319D01*
X148381613Y-93057971D01*
X148381610Y-93057971D01*
X148375946Y-93056844D01*
X148370171Y-93056768D01*
X148370167Y-93056768D01*
X148268793Y-93055441D01*
X148172971Y-93054187D01*
X148167274Y-93055166D01*
X148167273Y-93055166D01*
X147978607Y-93087585D01*
X147972910Y-93088564D01*
X147782463Y-93158824D01*
X147608010Y-93262612D01*
X147603670Y-93266418D01*
X147603666Y-93266421D01*
X147459733Y-93392648D01*
X147455392Y-93396455D01*
X147329720Y-93555869D01*
X147327031Y-93560980D01*
X147327029Y-93560983D01*
X147315481Y-93582933D01*
X147235203Y-93735515D01*
X147175007Y-93929378D01*
X147151148Y-94130964D01*
X147164424Y-94333522D01*
X147165845Y-94339118D01*
X147165846Y-94339123D01*
X147190542Y-94436360D01*
X147214392Y-94530269D01*
X147216807Y-94535507D01*
X147216809Y-94535512D01*
X147253754Y-94615652D01*
X147299377Y-94714616D01*
X147319732Y-94743418D01*
X147408864Y-94869537D01*
X147416533Y-94880389D01*
X147420675Y-94884424D01*
X147441023Y-94904246D01*
X147475861Y-94966107D01*
X147471724Y-95036983D01*
X147429925Y-95094371D01*
X147363735Y-95120051D01*
X147353102Y-95120500D01*
X146626515Y-95120500D01*
X146558394Y-95100498D01*
X146511901Y-95046842D01*
X146501797Y-94976568D01*
X146529641Y-94913930D01*
X146630453Y-94792718D01*
X146630455Y-94792715D01*
X146634147Y-94788276D01*
X146733334Y-94611165D01*
X146735190Y-94605698D01*
X146735192Y-94605693D01*
X146796728Y-94424414D01*
X146796729Y-94424409D01*
X146798584Y-94418945D01*
X146799412Y-94413236D01*
X146799413Y-94413231D01*
X146827179Y-94221727D01*
X146827712Y-94218053D01*
X146829232Y-94160000D01*
X146810658Y-93957859D01*
X146804244Y-93935116D01*
X146757125Y-93768046D01*
X146757124Y-93768044D01*
X146755557Y-93762487D01*
X146744978Y-93741033D01*
X146668331Y-93585609D01*
X146665776Y-93580428D01*
X146544320Y-93417779D01*
X146423092Y-93305717D01*
X146399503Y-93283911D01*
X146395258Y-93279987D01*
X146390375Y-93276906D01*
X146390371Y-93276903D01*
X146228464Y-93174748D01*
X146223581Y-93171667D01*
X146035039Y-93096446D01*
X146029379Y-93095320D01*
X146029375Y-93095319D01*
X145841613Y-93057971D01*
X145841610Y-93057971D01*
X145835946Y-93056844D01*
X145830171Y-93056768D01*
X145830167Y-93056768D01*
X145728793Y-93055441D01*
X145632971Y-93054187D01*
X145627274Y-93055166D01*
X145627273Y-93055166D01*
X145438607Y-93087585D01*
X145432910Y-93088564D01*
X145242463Y-93158824D01*
X145068010Y-93262612D01*
X145063670Y-93266418D01*
X145063666Y-93266421D01*
X144919733Y-93392648D01*
X144915392Y-93396455D01*
X144789720Y-93555869D01*
X144787031Y-93560980D01*
X144787029Y-93560983D01*
X144775481Y-93582933D01*
X144695203Y-93735515D01*
X144635007Y-93929378D01*
X144611148Y-94130964D01*
X144624424Y-94333522D01*
X144625845Y-94339118D01*
X144625846Y-94339123D01*
X144650542Y-94436360D01*
X144674392Y-94530269D01*
X144676807Y-94535507D01*
X144676809Y-94535512D01*
X144713754Y-94615652D01*
X144759377Y-94714616D01*
X144779732Y-94743418D01*
X144868864Y-94869537D01*
X144876533Y-94880389D01*
X144880675Y-94884424D01*
X144901023Y-94904246D01*
X144935861Y-94966107D01*
X144931724Y-95036983D01*
X144889925Y-95094371D01*
X144823735Y-95120051D01*
X144813102Y-95120500D01*
X143966658Y-95120500D01*
X143898537Y-95100498D01*
X143852044Y-95046842D01*
X143841940Y-94976568D01*
X143871434Y-94911988D01*
X143879614Y-94903414D01*
X143884390Y-94899682D01*
X143888416Y-94895017D01*
X143888421Y-94895013D01*
X144010618Y-94753446D01*
X144010619Y-94753444D01*
X144014647Y-94748778D01*
X144113112Y-94575448D01*
X144176035Y-94386294D01*
X144196825Y-94221727D01*
X144200578Y-94192023D01*
X144200579Y-94192013D01*
X144201020Y-94188520D01*
X144201418Y-94160000D01*
X144181965Y-93961606D01*
X144180184Y-93955707D01*
X144180183Y-93955702D01*
X144126129Y-93776667D01*
X144124348Y-93770768D01*
X144072690Y-93673613D01*
X144033655Y-93600198D01*
X144033653Y-93600195D01*
X144030761Y-93594756D01*
X144026871Y-93589986D01*
X144026868Y-93589982D01*
X143908663Y-93445049D01*
X143908660Y-93445046D01*
X143904768Y-93440274D01*
X143897077Y-93433911D01*
X143765122Y-93324748D01*
X143751170Y-93313206D01*
X143575815Y-93218392D01*
X143385385Y-93159444D01*
X143379260Y-93158800D01*
X143379259Y-93158800D01*
X143193260Y-93139251D01*
X143193258Y-93139251D01*
X143187131Y-93138607D01*
X143064252Y-93149790D01*
X142994746Y-93156115D01*
X142994745Y-93156115D01*
X142988605Y-93156674D01*
X142982691Y-93158415D01*
X142982689Y-93158415D01*
X142927195Y-93174748D01*
X142797370Y-93212958D01*
X142620709Y-93305314D01*
X142615909Y-93309174D01*
X142615908Y-93309174D01*
X142612672Y-93311776D01*
X142465351Y-93430225D01*
X142337214Y-93582933D01*
X142241179Y-93757621D01*
X142180902Y-93947635D01*
X142158682Y-94145739D01*
X142175362Y-94344386D01*
X142187379Y-94386294D01*
X142227060Y-94524674D01*
X142230310Y-94536009D01*
X142321430Y-94713311D01*
X142445253Y-94869537D01*
X142449947Y-94873532D01*
X142449951Y-94873536D01*
X142479338Y-94898546D01*
X142518252Y-94957928D01*
X142518883Y-95028922D01*
X142481032Y-95088987D01*
X142416716Y-95119053D01*
X142397676Y-95120500D01*
X141546515Y-95120500D01*
X141478394Y-95100498D01*
X141431901Y-95046842D01*
X141421797Y-94976568D01*
X141449641Y-94913930D01*
X141550453Y-94792718D01*
X141550455Y-94792715D01*
X141554147Y-94788276D01*
X141653334Y-94611165D01*
X141655190Y-94605698D01*
X141655192Y-94605693D01*
X141716728Y-94424414D01*
X141716729Y-94424409D01*
X141718584Y-94418945D01*
X141719412Y-94413236D01*
X141719413Y-94413231D01*
X141747179Y-94221727D01*
X141747712Y-94218053D01*
X141749232Y-94160000D01*
X141730658Y-93957859D01*
X141724244Y-93935116D01*
X141677125Y-93768046D01*
X141677124Y-93768044D01*
X141675557Y-93762487D01*
X141664978Y-93741033D01*
X141588331Y-93585609D01*
X141585776Y-93580428D01*
X141464320Y-93417779D01*
X141343092Y-93305717D01*
X141319503Y-93283911D01*
X141315258Y-93279987D01*
X141310375Y-93276906D01*
X141310371Y-93276903D01*
X141148464Y-93174748D01*
X141143581Y-93171667D01*
X140955039Y-93096446D01*
X140949379Y-93095320D01*
X140949375Y-93095319D01*
X140761613Y-93057971D01*
X140761610Y-93057971D01*
X140755946Y-93056844D01*
X140750171Y-93056768D01*
X140750167Y-93056768D01*
X140648793Y-93055441D01*
X140552971Y-93054187D01*
X140547274Y-93055166D01*
X140547273Y-93055166D01*
X140358607Y-93087585D01*
X140352910Y-93088564D01*
X140162463Y-93158824D01*
X139988010Y-93262612D01*
X139983670Y-93266418D01*
X139983666Y-93266421D01*
X139839733Y-93392648D01*
X139835392Y-93396455D01*
X139709720Y-93555869D01*
X139707031Y-93560980D01*
X139707029Y-93560983D01*
X139695481Y-93582933D01*
X139615203Y-93735515D01*
X139555007Y-93929378D01*
X139551892Y-93955702D01*
X139533796Y-94108594D01*
X139505926Y-94173892D01*
X139447178Y-94213756D01*
X139376203Y-94215531D01*
X139319574Y-94182880D01*
X136236478Y-91099784D01*
X136221336Y-91081036D01*
X136220221Y-91079811D01*
X136214571Y-91071060D01*
X136206393Y-91064613D01*
X136206391Y-91064611D01*
X136188200Y-91050271D01*
X136183759Y-91046325D01*
X136183697Y-91046398D01*
X136179733Y-91043039D01*
X136176056Y-91039362D01*
X136160308Y-91028108D01*
X136155638Y-91024602D01*
X136115353Y-90992844D01*
X136106719Y-90989812D01*
X136099266Y-90984486D01*
X136050150Y-90969797D01*
X136044508Y-90967964D01*
X136003633Y-90953610D01*
X136003632Y-90953610D01*
X135996149Y-90950982D01*
X135990584Y-90950500D01*
X135987876Y-90950500D01*
X135985242Y-90950386D01*
X135985144Y-90950357D01*
X135985151Y-90950193D01*
X135984447Y-90950149D01*
X135978222Y-90948287D01*
X135924365Y-90950403D01*
X135919418Y-90950500D01*
X132590384Y-90950500D01*
X132522263Y-90930498D01*
X132475770Y-90876842D01*
X132465666Y-90806568D01*
X132495160Y-90741988D01*
X132501289Y-90735405D01*
X132726214Y-90510480D01*
X140530235Y-90510480D01*
X140531313Y-90518668D01*
X140537149Y-90562994D01*
X140549292Y-90655234D01*
X140557165Y-90674240D01*
X140600962Y-90779974D01*
X140605165Y-90790122D01*
X140623779Y-90814380D01*
X140685107Y-90894304D01*
X140694046Y-90905954D01*
X140700596Y-90910980D01*
X140700599Y-90910983D01*
X140800362Y-90987534D01*
X140809877Y-90994835D01*
X140886108Y-91026411D01*
X140934185Y-91046325D01*
X140944766Y-91050708D01*
X141089520Y-91069765D01*
X141097708Y-91068687D01*
X141226086Y-91051786D01*
X141234274Y-91050708D01*
X141244856Y-91046325D01*
X141292932Y-91026411D01*
X141369163Y-90994835D01*
X141380726Y-90985963D01*
X141484994Y-90905954D01*
X141487109Y-90908711D01*
X141535331Y-90882379D01*
X141562114Y-90879500D01*
X155190616Y-90879500D01*
X155258737Y-90899502D01*
X155279711Y-90916405D01*
X158709272Y-94345966D01*
X158742461Y-94404686D01*
X158756897Y-94462801D01*
X158762548Y-94471553D01*
X158813829Y-94550974D01*
X158825429Y-94568940D01*
X158833607Y-94575387D01*
X158833609Y-94575389D01*
X158885389Y-94616208D01*
X158924647Y-94647156D01*
X159043851Y-94689018D01*
X159049416Y-94689500D01*
X159149977Y-94689500D01*
X159155551Y-94689851D01*
X159161778Y-94691713D01*
X159215635Y-94689597D01*
X159220582Y-94689500D01*
X159477990Y-94689500D01*
X159546111Y-94709502D01*
X159592416Y-94762749D01*
X159639377Y-94864616D01*
X159653376Y-94884424D01*
X159698329Y-94948031D01*
X159756533Y-95030389D01*
X159901938Y-95172035D01*
X160070720Y-95284812D01*
X160076023Y-95287090D01*
X160076026Y-95287092D01*
X160211554Y-95345319D01*
X160257228Y-95364942D01*
X160330244Y-95381464D01*
X160449579Y-95408467D01*
X160449584Y-95408468D01*
X160455216Y-95409742D01*
X160460987Y-95409969D01*
X160460989Y-95409969D01*
X160518510Y-95412229D01*
X160658053Y-95417712D01*
X160758499Y-95403148D01*
X160853231Y-95389413D01*
X160853236Y-95389412D01*
X160858945Y-95388584D01*
X160864409Y-95386729D01*
X160864414Y-95386728D01*
X161045693Y-95325192D01*
X161045698Y-95325190D01*
X161051165Y-95323334D01*
X161062983Y-95316716D01*
X161164311Y-95259969D01*
X161228276Y-95224147D01*
X161271064Y-95188561D01*
X161379913Y-95098031D01*
X161384345Y-95094345D01*
X161441463Y-95025669D01*
X161510453Y-94942718D01*
X161510455Y-94942715D01*
X161514147Y-94938276D01*
X161584142Y-94813291D01*
X161610510Y-94766208D01*
X161610511Y-94766206D01*
X161613334Y-94761165D01*
X161615190Y-94755698D01*
X161615192Y-94755693D01*
X161676728Y-94574414D01*
X161676729Y-94574409D01*
X161678584Y-94568945D01*
X161679412Y-94563236D01*
X161679413Y-94563231D01*
X161702400Y-94404686D01*
X161707712Y-94368053D01*
X161709232Y-94310000D01*
X161692254Y-94125229D01*
X161691187Y-94113613D01*
X161691186Y-94113610D01*
X161690658Y-94107859D01*
X161635557Y-93912487D01*
X161616432Y-93873704D01*
X161548331Y-93735609D01*
X161545776Y-93730428D01*
X161424320Y-93567779D01*
X161275258Y-93429987D01*
X161270375Y-93426906D01*
X161270371Y-93426903D01*
X161108464Y-93324748D01*
X161103581Y-93321667D01*
X160915039Y-93246446D01*
X160909379Y-93245320D01*
X160909375Y-93245319D01*
X160721613Y-93207971D01*
X160721610Y-93207971D01*
X160715946Y-93206844D01*
X160710171Y-93206768D01*
X160710167Y-93206768D01*
X160608793Y-93205441D01*
X160512971Y-93204187D01*
X160507274Y-93205166D01*
X160507273Y-93205166D01*
X160318607Y-93237585D01*
X160312910Y-93238564D01*
X160122463Y-93308824D01*
X159948010Y-93412612D01*
X159943670Y-93416418D01*
X159943666Y-93416421D01*
X159879736Y-93472487D01*
X159795392Y-93546455D01*
X159669720Y-93705869D01*
X159667031Y-93710980D01*
X159667029Y-93710983D01*
X159586960Y-93863168D01*
X159537540Y-93914141D01*
X159475452Y-93930500D01*
X159419384Y-93930500D01*
X159351263Y-93910498D01*
X159330289Y-93893595D01*
X157349296Y-91912602D01*
X159502899Y-91912602D01*
X159504542Y-91937676D01*
X159506343Y-91949046D01*
X159553443Y-92134502D01*
X159557284Y-92145348D01*
X159637394Y-92319120D01*
X159643145Y-92329081D01*
X159753579Y-92485343D01*
X159761057Y-92494098D01*
X159898114Y-92627612D01*
X159907058Y-92634855D01*
X160066156Y-92741161D01*
X160076266Y-92746651D01*
X160252077Y-92822185D01*
X160263020Y-92825740D01*
X160449647Y-92867970D01*
X160456383Y-92868857D01*
X160470302Y-92865357D01*
X160470658Y-92864978D01*
X160473000Y-92855144D01*
X160473000Y-92849095D01*
X160727000Y-92849095D01*
X160730966Y-92862601D01*
X160744966Y-92864605D01*
X160853106Y-92848926D01*
X160864302Y-92846238D01*
X161045497Y-92784730D01*
X161055994Y-92780056D01*
X161222958Y-92686552D01*
X161232430Y-92680042D01*
X161379553Y-92557682D01*
X161387682Y-92549553D01*
X161510042Y-92402430D01*
X161516552Y-92392958D01*
X161610056Y-92225994D01*
X161614730Y-92215497D01*
X161676238Y-92034302D01*
X161678926Y-92023106D01*
X161694610Y-91914929D01*
X161692624Y-91900993D01*
X161679056Y-91897000D01*
X160745115Y-91897000D01*
X160729876Y-91901475D01*
X160728671Y-91902865D01*
X160727000Y-91910548D01*
X160727000Y-92849095D01*
X160473000Y-92849095D01*
X160473000Y-91915115D01*
X160468525Y-91899876D01*
X160467135Y-91898671D01*
X160459452Y-91897000D01*
X159519991Y-91897000D01*
X159504951Y-91901416D01*
X159502899Y-91912602D01*
X157349296Y-91912602D01*
X157061706Y-91625012D01*
X159505375Y-91625012D01*
X159507817Y-91639431D01*
X159520559Y-91643000D01*
X160454885Y-91643000D01*
X160470124Y-91638525D01*
X160471329Y-91637135D01*
X160473000Y-91629452D01*
X160473000Y-91624885D01*
X160727000Y-91624885D01*
X160731475Y-91640124D01*
X160732865Y-91641329D01*
X160740548Y-91643000D01*
X161678945Y-91643000D01*
X161693490Y-91638729D01*
X161695553Y-91626595D01*
X161690693Y-91573707D01*
X161688595Y-91562386D01*
X161636658Y-91378231D01*
X161632533Y-91367484D01*
X161547903Y-91195871D01*
X161541893Y-91186063D01*
X161427400Y-91032739D01*
X161419710Y-91024199D01*
X161279192Y-90894304D01*
X161270067Y-90887303D01*
X161108236Y-90785195D01*
X161097989Y-90779974D01*
X160920260Y-90709068D01*
X160909232Y-90705801D01*
X160744769Y-90673088D01*
X160731894Y-90674240D01*
X160727000Y-90689396D01*
X160727000Y-91624885D01*
X160473000Y-91624885D01*
X160473000Y-90689678D01*
X160469194Y-90676716D01*
X160454278Y-90674780D01*
X160318737Y-90698070D01*
X160307617Y-90701050D01*
X160128095Y-90767279D01*
X160117717Y-90772229D01*
X159953273Y-90870063D01*
X159943961Y-90876829D01*
X159800097Y-91002994D01*
X159792180Y-91011337D01*
X159673718Y-91161605D01*
X159667450Y-91171256D01*
X159578360Y-91340589D01*
X159573951Y-91351232D01*
X159517210Y-91533967D01*
X159514820Y-91545211D01*
X159505375Y-91625012D01*
X157061706Y-91625012D01*
X155706478Y-90269784D01*
X155691336Y-90251036D01*
X155690221Y-90249811D01*
X155684571Y-90241060D01*
X155676393Y-90234613D01*
X155676391Y-90234611D01*
X155658200Y-90220271D01*
X155653759Y-90216325D01*
X155653697Y-90216398D01*
X155649733Y-90213039D01*
X155646056Y-90209362D01*
X155630308Y-90198108D01*
X155625638Y-90194602D01*
X155585353Y-90162844D01*
X155576719Y-90159812D01*
X155569266Y-90154486D01*
X155520150Y-90139797D01*
X155514508Y-90137964D01*
X155473633Y-90123610D01*
X155473632Y-90123610D01*
X155466149Y-90120982D01*
X155460584Y-90120500D01*
X155457876Y-90120500D01*
X155455242Y-90120386D01*
X155455144Y-90120357D01*
X155455151Y-90120193D01*
X155454447Y-90120149D01*
X155448222Y-90118287D01*
X155394365Y-90120403D01*
X155389418Y-90120500D01*
X141534925Y-90120500D01*
X141466804Y-90100498D01*
X141458221Y-90094462D01*
X141440491Y-90080857D01*
X141369163Y-90026125D01*
X141234274Y-89970252D01*
X141089520Y-89951195D01*
X141081332Y-89952273D01*
X140952952Y-89969174D01*
X140952950Y-89969175D01*
X140944766Y-89970252D01*
X140896950Y-89990058D01*
X140817506Y-90022965D01*
X140817504Y-90022966D01*
X140809878Y-90026125D01*
X140694046Y-90115006D01*
X140605165Y-90230838D01*
X140602006Y-90238464D01*
X140602005Y-90238466D01*
X140582754Y-90284942D01*
X140549292Y-90365726D01*
X140530235Y-90510480D01*
X132726214Y-90510480D01*
X134530216Y-88706478D01*
X134548964Y-88691336D01*
X134550189Y-88690221D01*
X134558940Y-88684571D01*
X134565387Y-88676393D01*
X134565389Y-88676391D01*
X134579729Y-88658200D01*
X134583675Y-88653759D01*
X134583602Y-88653697D01*
X134586961Y-88649733D01*
X134590638Y-88646056D01*
X134601892Y-88630308D01*
X134605398Y-88625638D01*
X134637156Y-88585353D01*
X134640188Y-88576719D01*
X134645514Y-88569266D01*
X134660203Y-88520150D01*
X134662036Y-88514508D01*
X134676390Y-88473633D01*
X134676390Y-88473632D01*
X134679018Y-88466149D01*
X134679500Y-88460584D01*
X134679500Y-88457876D01*
X134679614Y-88455242D01*
X134679643Y-88455144D01*
X134679807Y-88455151D01*
X134679851Y-88454447D01*
X134681713Y-88448222D01*
X134679597Y-88394365D01*
X134679500Y-88389418D01*
X134679500Y-86809384D01*
X134699502Y-86741263D01*
X134716405Y-86720289D01*
X135520289Y-85916405D01*
X135582601Y-85882379D01*
X135609384Y-85879500D01*
X139150644Y-85879500D01*
X139218765Y-85899502D01*
X139265258Y-85953158D01*
X139275362Y-86023432D01*
X139260958Y-86061021D01*
X139261910Y-86061415D01*
X139257161Y-86072879D01*
X139250266Y-86083199D01*
X139235500Y-86157433D01*
X139235500Y-86994500D01*
X139215498Y-87062621D01*
X139161842Y-87109114D01*
X139109500Y-87120500D01*
X137759062Y-87120500D01*
X137690941Y-87100498D01*
X137682374Y-87094474D01*
X137579643Y-87015645D01*
X137444754Y-86959772D01*
X137404056Y-86954414D01*
X137308188Y-86941793D01*
X137300000Y-86940715D01*
X137291812Y-86941793D01*
X137163432Y-86958694D01*
X137163430Y-86958695D01*
X137155246Y-86959772D01*
X137141797Y-86965343D01*
X137027986Y-87012485D01*
X137027984Y-87012486D01*
X137020358Y-87015645D01*
X136904526Y-87104526D01*
X136899503Y-87111072D01*
X136892269Y-87120500D01*
X136815645Y-87220358D01*
X136812486Y-87227984D01*
X136812485Y-87227986D01*
X136797265Y-87264730D01*
X136759772Y-87355246D01*
X136758695Y-87363430D01*
X136758694Y-87363432D01*
X136743841Y-87476255D01*
X136740715Y-87500000D01*
X136741793Y-87508188D01*
X136747035Y-87548002D01*
X136759772Y-87644754D01*
X136768113Y-87664891D01*
X136811065Y-87768584D01*
X136815645Y-87779642D01*
X136904526Y-87895474D01*
X136911076Y-87900500D01*
X136911079Y-87900503D01*
X137013804Y-87979327D01*
X137020357Y-87984355D01*
X137155246Y-88040228D01*
X137300000Y-88059285D01*
X137308188Y-88058207D01*
X137436566Y-88041306D01*
X137444754Y-88040228D01*
X137579643Y-87984355D01*
X137682360Y-87905537D01*
X137748578Y-87879937D01*
X137759062Y-87879500D01*
X139109501Y-87879500D01*
X139177622Y-87899502D01*
X139224115Y-87953158D01*
X139235501Y-88005500D01*
X139235501Y-88607566D01*
X139239552Y-88627933D01*
X139247807Y-88669436D01*
X139250266Y-88681801D01*
X139257161Y-88692121D01*
X139257162Y-88692122D01*
X139266755Y-88706478D01*
X139306516Y-88765984D01*
X139316832Y-88772877D01*
X139356092Y-88799110D01*
X139401620Y-88853587D01*
X139410467Y-88924031D01*
X139402499Y-88952093D01*
X139373419Y-89022299D01*
X139359772Y-89055246D01*
X139340715Y-89200000D01*
X139359772Y-89344754D01*
X139372611Y-89375750D01*
X139412055Y-89470974D01*
X139415645Y-89479642D01*
X139426980Y-89494414D01*
X139491142Y-89578031D01*
X139504526Y-89595474D01*
X139511076Y-89600500D01*
X139511079Y-89600503D01*
X139613804Y-89679327D01*
X139620357Y-89684355D01*
X139755246Y-89740228D01*
X139900000Y-89759285D01*
X139908188Y-89758207D01*
X140036566Y-89741306D01*
X140044754Y-89740228D01*
X140179643Y-89684355D01*
X140190932Y-89675693D01*
X140243262Y-89635538D01*
X140309482Y-89609937D01*
X140319966Y-89609500D01*
X159477990Y-89609500D01*
X159546111Y-89629502D01*
X159592416Y-89682749D01*
X159639377Y-89784616D01*
X159756533Y-89950389D01*
X159760675Y-89954424D01*
X159776923Y-89970252D01*
X159901938Y-90092035D01*
X159906742Y-90095245D01*
X159944539Y-90120500D01*
X160070720Y-90204812D01*
X160076023Y-90207090D01*
X160076026Y-90207092D01*
X160247585Y-90280799D01*
X160257228Y-90284942D01*
X160330244Y-90301464D01*
X160449579Y-90328467D01*
X160449584Y-90328468D01*
X160455216Y-90329742D01*
X160460987Y-90329969D01*
X160460989Y-90329969D01*
X160518510Y-90332229D01*
X160658053Y-90337712D01*
X160758499Y-90323148D01*
X160853231Y-90309413D01*
X160853236Y-90309412D01*
X160858945Y-90308584D01*
X160864409Y-90306729D01*
X160864414Y-90306728D01*
X161045693Y-90245192D01*
X161045698Y-90245190D01*
X161051165Y-90243334D01*
X161059858Y-90238466D01*
X161138232Y-90194574D01*
X161228276Y-90144147D01*
X161235711Y-90137964D01*
X161379913Y-90018031D01*
X161384345Y-90014345D01*
X161441463Y-89945669D01*
X161510453Y-89862718D01*
X161510455Y-89862715D01*
X161514147Y-89858276D01*
X161598437Y-89707765D01*
X161610510Y-89686208D01*
X161610511Y-89686206D01*
X161613334Y-89681165D01*
X161615190Y-89675698D01*
X161615192Y-89675693D01*
X161676728Y-89494414D01*
X161676729Y-89494409D01*
X161678584Y-89488945D01*
X161679412Y-89483236D01*
X161679413Y-89483231D01*
X161707179Y-89291727D01*
X161707712Y-89288053D01*
X161709232Y-89230000D01*
X161693927Y-89063432D01*
X161691187Y-89033613D01*
X161691186Y-89033610D01*
X161690658Y-89027859D01*
X161661375Y-88924031D01*
X161637125Y-88838046D01*
X161637124Y-88838044D01*
X161635557Y-88832487D01*
X161619098Y-88799110D01*
X161548331Y-88655609D01*
X161545776Y-88650428D01*
X161424320Y-88487779D01*
X161275258Y-88349987D01*
X161270375Y-88346906D01*
X161270371Y-88346903D01*
X161108464Y-88244748D01*
X161103581Y-88241667D01*
X160915039Y-88166446D01*
X160909379Y-88165320D01*
X160909375Y-88165319D01*
X160721613Y-88127971D01*
X160721610Y-88127971D01*
X160715946Y-88126844D01*
X160710171Y-88126768D01*
X160710167Y-88126768D01*
X160608793Y-88125441D01*
X160512971Y-88124187D01*
X160507274Y-88125166D01*
X160507273Y-88125166D01*
X160318607Y-88157585D01*
X160312910Y-88158564D01*
X160122463Y-88228824D01*
X159948010Y-88332612D01*
X159943670Y-88336418D01*
X159943666Y-88336421D01*
X159873389Y-88398053D01*
X159795392Y-88466455D01*
X159669720Y-88625869D01*
X159667031Y-88630980D01*
X159667029Y-88630983D01*
X159586960Y-88783168D01*
X159537540Y-88834141D01*
X159475452Y-88850500D01*
X145665257Y-88850500D01*
X145597136Y-88830498D01*
X145550643Y-88776842D01*
X145540539Y-88706568D01*
X145548847Y-88676285D01*
X145551684Y-88669436D01*
X145562793Y-88613585D01*
X145564000Y-88601330D01*
X145564000Y-87527615D01*
X145559525Y-87512376D01*
X145558135Y-87511171D01*
X145550452Y-87509500D01*
X144316001Y-87509500D01*
X144316001Y-87508079D01*
X144294000Y-87508865D01*
X144294000Y-87509500D01*
X143046001Y-87509500D01*
X143046001Y-87508079D01*
X143024000Y-87508865D01*
X143024000Y-87509500D01*
X141776001Y-87509500D01*
X141776001Y-87508079D01*
X141754000Y-87508865D01*
X141754000Y-87509500D01*
X141129000Y-87509500D01*
X141060879Y-87489498D01*
X141014386Y-87435842D01*
X141003000Y-87383500D01*
X141003000Y-87381500D01*
X141023002Y-87313379D01*
X141076658Y-87266886D01*
X141129000Y-87255500D01*
X141753999Y-87255500D01*
X141753999Y-87256921D01*
X141776000Y-87256135D01*
X141776000Y-87255500D01*
X143023999Y-87255500D01*
X143023999Y-87256921D01*
X143046000Y-87256135D01*
X143046000Y-87255500D01*
X144293999Y-87255500D01*
X144293999Y-87256921D01*
X144316000Y-87256135D01*
X144316000Y-87255500D01*
X145545884Y-87255500D01*
X145561123Y-87251025D01*
X145562328Y-87249635D01*
X145563999Y-87241952D01*
X145563999Y-86163672D01*
X145562791Y-86151412D01*
X145551685Y-86095569D01*
X145537618Y-86061608D01*
X145539407Y-86060867D01*
X145522775Y-86007746D01*
X145541560Y-85939280D01*
X145594378Y-85891838D01*
X145648755Y-85879500D01*
X159200616Y-85879500D01*
X159268737Y-85899502D01*
X159289711Y-85916405D01*
X159536477Y-86163171D01*
X159570503Y-86225483D01*
X159567715Y-86289630D01*
X159528896Y-86414647D01*
X159515007Y-86459378D01*
X159491148Y-86660964D01*
X159504424Y-86863522D01*
X159505845Y-86869118D01*
X159505846Y-86869123D01*
X159552371Y-87052312D01*
X159554392Y-87060269D01*
X159556809Y-87065512D01*
X159610075Y-87181056D01*
X159639377Y-87244616D01*
X159653592Y-87264730D01*
X159712173Y-87347620D01*
X159756533Y-87410389D01*
X159901938Y-87552035D01*
X160070720Y-87664812D01*
X160076023Y-87667090D01*
X160076026Y-87667092D01*
X160211554Y-87725319D01*
X160257228Y-87744942D01*
X160330244Y-87761464D01*
X160449579Y-87788467D01*
X160449584Y-87788468D01*
X160455216Y-87789742D01*
X160460987Y-87789969D01*
X160460989Y-87789969D01*
X160518510Y-87792229D01*
X160658053Y-87797712D01*
X160758499Y-87783148D01*
X160853231Y-87769413D01*
X160853236Y-87769412D01*
X160858945Y-87768584D01*
X160864409Y-87766729D01*
X160864414Y-87766728D01*
X161045693Y-87705192D01*
X161045698Y-87705190D01*
X161051165Y-87703334D01*
X161062983Y-87696716D01*
X161170384Y-87636568D01*
X161228276Y-87604147D01*
X161290934Y-87552035D01*
X161379913Y-87478031D01*
X161384345Y-87474345D01*
X161441463Y-87405669D01*
X161510453Y-87322718D01*
X161510455Y-87322715D01*
X161514147Y-87318276D01*
X161586682Y-87188756D01*
X161610510Y-87146208D01*
X161610511Y-87146206D01*
X161613334Y-87141165D01*
X161615190Y-87135698D01*
X161615192Y-87135693D01*
X161676728Y-86954414D01*
X161676729Y-86954409D01*
X161678584Y-86948945D01*
X161679412Y-86943236D01*
X161679413Y-86943231D01*
X161703398Y-86777806D01*
X161707712Y-86748053D01*
X161709232Y-86690000D01*
X161692596Y-86508945D01*
X161691187Y-86493613D01*
X161691186Y-86493610D01*
X161690658Y-86487859D01*
X161689090Y-86482299D01*
X161637125Y-86298046D01*
X161637124Y-86298044D01*
X161635557Y-86292487D01*
X161632108Y-86285492D01*
X161548331Y-86115609D01*
X161545776Y-86110428D01*
X161424320Y-85947779D01*
X161275258Y-85809987D01*
X161270375Y-85806906D01*
X161270371Y-85806903D01*
X161108464Y-85704748D01*
X161103581Y-85701667D01*
X160915039Y-85626446D01*
X160909379Y-85625320D01*
X160909375Y-85625319D01*
X160721613Y-85587971D01*
X160721610Y-85587971D01*
X160715946Y-85586844D01*
X160710171Y-85586768D01*
X160710167Y-85586768D01*
X160608793Y-85585441D01*
X160512971Y-85584187D01*
X160507274Y-85585166D01*
X160507273Y-85585166D01*
X160318607Y-85617585D01*
X160312910Y-85618564D01*
X160207671Y-85657389D01*
X160136839Y-85662201D01*
X160074966Y-85628272D01*
X159716478Y-85269784D01*
X159701336Y-85251036D01*
X159700221Y-85249811D01*
X159694571Y-85241060D01*
X159686393Y-85234613D01*
X159686391Y-85234611D01*
X159668200Y-85220271D01*
X159663759Y-85216325D01*
X159663697Y-85216398D01*
X159659733Y-85213039D01*
X159656056Y-85209362D01*
X159640308Y-85198108D01*
X159635638Y-85194602D01*
X159595353Y-85162844D01*
X159586719Y-85159812D01*
X159579266Y-85154486D01*
X159530150Y-85139797D01*
X159524508Y-85137964D01*
X159483633Y-85123610D01*
X159483632Y-85123610D01*
X159476149Y-85120982D01*
X159470584Y-85120500D01*
X159467876Y-85120500D01*
X159465242Y-85120386D01*
X159465144Y-85120357D01*
X159465151Y-85120193D01*
X159464447Y-85120149D01*
X159458222Y-85118287D01*
X159404365Y-85120403D01*
X159399418Y-85120500D01*
X145527941Y-85120500D01*
X145459820Y-85100498D01*
X145413327Y-85046842D01*
X145403223Y-84976568D01*
X145432717Y-84911988D01*
X145457938Y-84889736D01*
X145483167Y-84872878D01*
X145483168Y-84872877D01*
X145493484Y-84865984D01*
X145549734Y-84781801D01*
X145564500Y-84707567D01*
X145564499Y-82257434D01*
X145549734Y-82183199D01*
X145531864Y-82156454D01*
X145500377Y-82109332D01*
X145493484Y-82099016D01*
X145409301Y-82042766D01*
X145397228Y-82040365D01*
X145342000Y-81995859D01*
X145319500Y-81923999D01*
X145319500Y-81368476D01*
X145316951Y-81353158D01*
X145305721Y-81285690D01*
X145304011Y-81265003D01*
X145304011Y-79784873D01*
X145324013Y-79716752D01*
X145340916Y-79695778D01*
X147389290Y-77647404D01*
X147451602Y-77613378D01*
X147478385Y-77610499D01*
X147570066Y-77610499D01*
X147605818Y-77603388D01*
X147632126Y-77598156D01*
X147632128Y-77598155D01*
X147644301Y-77595734D01*
X147654621Y-77588839D01*
X147654622Y-77588838D01*
X147718168Y-77546377D01*
X147728484Y-77539484D01*
X147728493Y-77539497D01*
X147783217Y-77509614D01*
X147854032Y-77514679D01*
X147890679Y-77538231D01*
X147891516Y-77539484D01*
X147975699Y-77595734D01*
X148049933Y-77610500D01*
X148444936Y-77610500D01*
X148840066Y-77610499D01*
X148875818Y-77603388D01*
X148902126Y-77598156D01*
X148902128Y-77598155D01*
X148914301Y-77595734D01*
X148924621Y-77588839D01*
X148924622Y-77588838D01*
X148988168Y-77546377D01*
X148998484Y-77539484D01*
X148998493Y-77539497D01*
X149053217Y-77509614D01*
X149124032Y-77514679D01*
X149160679Y-77538231D01*
X149161516Y-77539484D01*
X149245699Y-77595734D01*
X149319933Y-77610500D01*
X149714936Y-77610500D01*
X150110066Y-77610499D01*
X150145818Y-77603388D01*
X150172126Y-77598156D01*
X150172128Y-77598155D01*
X150184301Y-77595734D01*
X150194621Y-77588839D01*
X150194622Y-77588838D01*
X150258168Y-77546377D01*
X150268484Y-77539484D01*
X150324734Y-77455301D01*
X150339500Y-77381067D01*
X150339499Y-75005500D01*
X150359501Y-74937379D01*
X150413157Y-74890886D01*
X150465499Y-74879500D01*
X150740616Y-74879500D01*
X150808737Y-74899502D01*
X150829711Y-74916405D01*
X159536477Y-83623171D01*
X159570503Y-83685483D01*
X159567715Y-83749630D01*
X159515007Y-83919378D01*
X159491148Y-84120964D01*
X159504424Y-84323522D01*
X159505845Y-84329118D01*
X159505846Y-84329123D01*
X159531565Y-84430389D01*
X159554392Y-84520269D01*
X159556809Y-84525512D01*
X159594010Y-84606208D01*
X159639377Y-84704616D01*
X159653592Y-84724730D01*
X159735890Y-84841179D01*
X159756533Y-84870389D01*
X159901938Y-85012035D01*
X160070720Y-85124812D01*
X160076023Y-85127090D01*
X160076026Y-85127092D01*
X160251921Y-85202662D01*
X160257228Y-85204942D01*
X160312828Y-85217523D01*
X160449579Y-85248467D01*
X160449584Y-85248468D01*
X160455216Y-85249742D01*
X160460987Y-85249969D01*
X160460989Y-85249969D01*
X160518510Y-85252229D01*
X160658053Y-85257712D01*
X160772900Y-85241060D01*
X160853231Y-85229413D01*
X160853236Y-85229412D01*
X160858945Y-85228584D01*
X160864409Y-85226729D01*
X160864414Y-85226728D01*
X161045693Y-85165192D01*
X161045698Y-85165190D01*
X161051165Y-85163334D01*
X161062983Y-85156716D01*
X161136257Y-85115680D01*
X161228276Y-85064147D01*
X161290934Y-85012035D01*
X161379913Y-84938031D01*
X161384345Y-84934345D01*
X161437744Y-84870140D01*
X161510453Y-84782718D01*
X161510455Y-84782715D01*
X161514147Y-84778276D01*
X161598437Y-84627765D01*
X161610510Y-84606208D01*
X161610511Y-84606206D01*
X161613334Y-84601165D01*
X161615190Y-84595698D01*
X161615192Y-84595693D01*
X161676728Y-84414414D01*
X161676729Y-84414409D01*
X161678584Y-84408945D01*
X161679412Y-84403236D01*
X161679413Y-84403231D01*
X161707179Y-84211727D01*
X161707712Y-84208053D01*
X161709232Y-84150000D01*
X161692596Y-83968945D01*
X161691187Y-83953613D01*
X161691186Y-83953610D01*
X161690658Y-83947859D01*
X161689090Y-83942299D01*
X161637125Y-83758046D01*
X161637124Y-83758044D01*
X161635557Y-83752487D01*
X161616432Y-83713704D01*
X161548331Y-83575609D01*
X161545776Y-83570428D01*
X161424320Y-83407779D01*
X161275258Y-83269987D01*
X161270375Y-83266906D01*
X161270371Y-83266903D01*
X161108464Y-83164748D01*
X161103581Y-83161667D01*
X160915039Y-83086446D01*
X160909379Y-83085320D01*
X160909375Y-83085319D01*
X160721613Y-83047971D01*
X160721610Y-83047971D01*
X160715946Y-83046844D01*
X160710171Y-83046768D01*
X160710167Y-83046768D01*
X160608793Y-83045441D01*
X160512971Y-83044187D01*
X160507274Y-83045166D01*
X160507273Y-83045166D01*
X160318607Y-83077585D01*
X160312910Y-83078564D01*
X160207671Y-83117389D01*
X160136839Y-83122201D01*
X160074966Y-83088272D01*
X151256478Y-74269784D01*
X151241336Y-74251036D01*
X151240221Y-74249811D01*
X151234571Y-74241060D01*
X151226393Y-74234613D01*
X151226391Y-74234611D01*
X151208200Y-74220271D01*
X151203759Y-74216325D01*
X151203697Y-74216398D01*
X151199733Y-74213039D01*
X151196056Y-74209362D01*
X151180308Y-74198108D01*
X151175638Y-74194602D01*
X151135353Y-74162844D01*
X151126719Y-74159812D01*
X151119266Y-74154486D01*
X151070150Y-74139797D01*
X151064508Y-74137964D01*
X151023633Y-74123610D01*
X151023632Y-74123610D01*
X151016149Y-74120982D01*
X151010584Y-74120500D01*
X151007876Y-74120500D01*
X151005242Y-74120386D01*
X151005144Y-74120357D01*
X151005151Y-74120193D01*
X151004447Y-74120149D01*
X150998222Y-74118287D01*
X150944365Y-74120403D01*
X150939418Y-74120500D01*
X146353920Y-74120500D01*
X146329973Y-74117951D01*
X146328307Y-74117872D01*
X146318124Y-74115680D01*
X146307782Y-74116904D01*
X146307779Y-74116904D01*
X146284787Y-74119626D01*
X146278846Y-74119977D01*
X146278854Y-74120072D01*
X146273674Y-74120500D01*
X146268476Y-74120500D01*
X146263354Y-74121353D01*
X146263349Y-74121353D01*
X146249427Y-74123671D01*
X146243550Y-74124508D01*
X146237049Y-74125277D01*
X146202997Y-74129307D01*
X146202995Y-74129308D01*
X146192659Y-74130531D01*
X146184410Y-74134492D01*
X146175374Y-74135996D01*
X146166205Y-74140943D01*
X146166203Y-74140944D01*
X146130240Y-74160348D01*
X146124951Y-74163043D01*
X146111936Y-74169293D01*
X146078768Y-74185220D01*
X146074492Y-74188814D01*
X146072552Y-74190754D01*
X146070641Y-74192507D01*
X146070551Y-74192556D01*
X146070439Y-74192433D01*
X146069904Y-74192905D01*
X146064186Y-74195990D01*
X146057119Y-74203635D01*
X146027584Y-74235586D01*
X146024154Y-74239152D01*
X145674784Y-74588522D01*
X145656036Y-74603664D01*
X145654811Y-74604779D01*
X145646060Y-74610429D01*
X145639613Y-74618607D01*
X145639611Y-74618609D01*
X145625271Y-74636800D01*
X145621326Y-74641240D01*
X145621399Y-74641302D01*
X145618042Y-74645264D01*
X145614362Y-74648944D01*
X145611336Y-74653179D01*
X145608137Y-74656954D01*
X145548840Y-74695997D01*
X145522195Y-74699978D01*
X145522285Y-74700894D01*
X145516124Y-74701501D01*
X145509934Y-74701501D01*
X145474182Y-74708612D01*
X145447874Y-74713844D01*
X145447872Y-74713845D01*
X145435699Y-74716266D01*
X145425379Y-74723161D01*
X145425378Y-74723162D01*
X145364985Y-74763516D01*
X145351516Y-74772516D01*
X145351507Y-74772503D01*
X145296783Y-74802386D01*
X145225968Y-74797321D01*
X145189321Y-74773769D01*
X145188484Y-74772516D01*
X145104301Y-74716266D01*
X145030067Y-74701500D01*
X144635064Y-74701500D01*
X144239934Y-74701501D01*
X144204182Y-74708612D01*
X144177874Y-74713844D01*
X144177872Y-74713845D01*
X144165699Y-74716266D01*
X144155379Y-74723161D01*
X144155378Y-74723162D01*
X144094985Y-74763516D01*
X144081516Y-74772516D01*
X144081507Y-74772503D01*
X144026783Y-74802386D01*
X143955968Y-74797321D01*
X143919321Y-74773769D01*
X143918484Y-74772516D01*
X143834301Y-74716266D01*
X143760067Y-74701500D01*
X143365064Y-74701500D01*
X142969934Y-74701501D01*
X142934182Y-74708612D01*
X142907874Y-74713844D01*
X142907872Y-74713845D01*
X142895699Y-74716266D01*
X142885379Y-74723161D01*
X142885378Y-74723162D01*
X142824985Y-74763516D01*
X142811516Y-74772516D01*
X142811507Y-74772503D01*
X142756783Y-74802386D01*
X142685968Y-74797321D01*
X142649321Y-74773769D01*
X142648484Y-74772516D01*
X142564301Y-74716266D01*
X142490067Y-74701500D01*
X142095064Y-74701500D01*
X141699934Y-74701501D01*
X141664182Y-74708612D01*
X141637874Y-74713844D01*
X141637872Y-74713845D01*
X141625699Y-74716266D01*
X141615379Y-74723161D01*
X141615378Y-74723162D01*
X141554985Y-74763516D01*
X141541516Y-74772516D01*
X141541507Y-74772503D01*
X141486783Y-74802386D01*
X141415968Y-74797321D01*
X141379321Y-74773769D01*
X141378484Y-74772516D01*
X141294301Y-74716266D01*
X141220067Y-74701500D01*
X140825064Y-74701500D01*
X140429934Y-74701501D01*
X140394182Y-74708612D01*
X140367874Y-74713844D01*
X140367872Y-74713845D01*
X140355699Y-74716266D01*
X140345379Y-74723161D01*
X140345378Y-74723162D01*
X140284985Y-74763516D01*
X140271516Y-74772516D01*
X140271507Y-74772503D01*
X140216783Y-74802386D01*
X140145968Y-74797321D01*
X140109321Y-74773769D01*
X140108484Y-74772516D01*
X140024301Y-74716266D01*
X139950067Y-74701500D01*
X139555064Y-74701500D01*
X139159934Y-74701501D01*
X139124182Y-74708612D01*
X139097874Y-74713844D01*
X139097872Y-74713845D01*
X139085699Y-74716266D01*
X139075379Y-74723161D01*
X139075378Y-74723162D01*
X139014985Y-74763516D01*
X139001516Y-74772516D01*
X139001507Y-74772503D01*
X138946783Y-74802386D01*
X138875968Y-74797321D01*
X138839321Y-74773769D01*
X138838484Y-74772516D01*
X138754301Y-74716266D01*
X138742228Y-74713865D01*
X138687000Y-74669359D01*
X138664500Y-74597499D01*
X138664500Y-73814500D01*
X138684502Y-73746379D01*
X138742230Y-73698135D01*
X138754301Y-73695734D01*
X138764621Y-73688839D01*
X138764622Y-73688838D01*
X138828168Y-73646377D01*
X138838484Y-73639484D01*
X138838638Y-73639254D01*
X138893577Y-73609254D01*
X138964392Y-73614319D01*
X139009455Y-73643280D01*
X139012192Y-73646017D01*
X139075575Y-73688368D01*
X139098066Y-73697684D01*
X139153915Y-73708793D01*
X139166170Y-73710000D01*
X139409885Y-73710000D01*
X139425124Y-73705525D01*
X139426329Y-73704135D01*
X139428000Y-73696452D01*
X139428000Y-73691884D01*
X139682000Y-73691884D01*
X139686475Y-73707123D01*
X139687865Y-73708328D01*
X139695548Y-73709999D01*
X139943828Y-73709999D01*
X139956088Y-73708791D01*
X140011931Y-73697685D01*
X140034427Y-73688367D01*
X140097808Y-73646017D01*
X140100905Y-73642920D01*
X140163217Y-73608894D01*
X140234032Y-73613959D01*
X140279095Y-73642920D01*
X140282192Y-73646017D01*
X140345575Y-73688368D01*
X140368066Y-73697684D01*
X140423915Y-73708793D01*
X140436170Y-73710000D01*
X140679885Y-73710000D01*
X140695124Y-73705525D01*
X140696329Y-73704135D01*
X140698000Y-73696452D01*
X140698000Y-73691884D01*
X140952000Y-73691884D01*
X140956475Y-73707123D01*
X140957865Y-73708328D01*
X140965548Y-73709999D01*
X141213828Y-73709999D01*
X141226088Y-73708791D01*
X141281931Y-73697685D01*
X141304427Y-73688367D01*
X141367808Y-73646017D01*
X141370905Y-73642920D01*
X141433217Y-73608894D01*
X141504032Y-73613959D01*
X141549095Y-73642920D01*
X141552192Y-73646017D01*
X141615575Y-73688368D01*
X141638066Y-73697684D01*
X141693915Y-73708793D01*
X141706170Y-73710000D01*
X141949885Y-73710000D01*
X141965124Y-73705525D01*
X141966329Y-73704135D01*
X141968000Y-73696452D01*
X141968000Y-73691884D01*
X142222000Y-73691884D01*
X142226475Y-73707123D01*
X142227865Y-73708328D01*
X142235548Y-73709999D01*
X142483828Y-73709999D01*
X142496088Y-73708791D01*
X142551931Y-73697685D01*
X142574427Y-73688367D01*
X142637808Y-73646017D01*
X142640905Y-73642920D01*
X142703217Y-73608894D01*
X142774032Y-73613959D01*
X142819095Y-73642920D01*
X142822192Y-73646017D01*
X142885575Y-73688368D01*
X142908066Y-73697684D01*
X142963915Y-73708793D01*
X142976170Y-73710000D01*
X143219885Y-73710000D01*
X143235124Y-73705525D01*
X143236329Y-73704135D01*
X143238000Y-73696452D01*
X143238000Y-73691884D01*
X143492000Y-73691884D01*
X143496475Y-73707123D01*
X143497865Y-73708328D01*
X143505548Y-73709999D01*
X143753828Y-73709999D01*
X143766088Y-73708791D01*
X143821931Y-73697685D01*
X143844427Y-73688367D01*
X143907808Y-73646017D01*
X143910905Y-73642920D01*
X143973217Y-73608894D01*
X144044032Y-73613959D01*
X144089095Y-73642920D01*
X144092192Y-73646017D01*
X144155575Y-73688368D01*
X144178066Y-73697684D01*
X144233915Y-73708793D01*
X144246170Y-73710000D01*
X144489885Y-73710000D01*
X144505124Y-73705525D01*
X144506329Y-73704135D01*
X144508000Y-73696452D01*
X144508000Y-73691884D01*
X144762000Y-73691884D01*
X144766475Y-73707123D01*
X144767865Y-73708328D01*
X144775548Y-73709999D01*
X145023828Y-73709999D01*
X145036088Y-73708791D01*
X145091931Y-73697685D01*
X145114427Y-73688367D01*
X145177808Y-73646017D01*
X145180905Y-73642920D01*
X145243217Y-73608894D01*
X145314032Y-73613959D01*
X145359095Y-73642920D01*
X145362192Y-73646017D01*
X145425575Y-73688368D01*
X145448066Y-73697684D01*
X145503915Y-73708793D01*
X145516170Y-73710000D01*
X145759885Y-73710000D01*
X145775124Y-73705525D01*
X145776329Y-73704135D01*
X145778000Y-73696452D01*
X145778000Y-73691884D01*
X146032000Y-73691884D01*
X146036475Y-73707123D01*
X146037865Y-73708328D01*
X146045548Y-73709999D01*
X146293828Y-73709999D01*
X146306088Y-73708791D01*
X146361931Y-73697685D01*
X146384427Y-73688367D01*
X146447808Y-73646017D01*
X146450905Y-73642920D01*
X146513217Y-73608894D01*
X146584032Y-73613959D01*
X146629095Y-73642920D01*
X146632192Y-73646017D01*
X146695575Y-73688368D01*
X146718066Y-73697684D01*
X146773915Y-73708793D01*
X146786170Y-73710000D01*
X147029885Y-73710000D01*
X147045124Y-73705525D01*
X147046329Y-73704135D01*
X147048000Y-73696452D01*
X147048000Y-73691884D01*
X147302000Y-73691884D01*
X147306475Y-73707123D01*
X147307865Y-73708328D01*
X147315548Y-73709999D01*
X147563828Y-73709999D01*
X147576088Y-73708791D01*
X147631931Y-73697685D01*
X147654427Y-73688367D01*
X147717808Y-73646017D01*
X147720905Y-73642920D01*
X147783217Y-73608894D01*
X147854032Y-73613959D01*
X147899095Y-73642920D01*
X147902192Y-73646017D01*
X147965575Y-73688368D01*
X147988066Y-73697684D01*
X148043915Y-73708793D01*
X148056170Y-73710000D01*
X148299885Y-73710000D01*
X148315124Y-73705525D01*
X148316329Y-73704135D01*
X148318000Y-73696452D01*
X148318000Y-73691884D01*
X148572000Y-73691884D01*
X148576475Y-73707123D01*
X148577865Y-73708328D01*
X148585548Y-73709999D01*
X148833828Y-73709999D01*
X148846088Y-73708791D01*
X148901931Y-73697685D01*
X148924427Y-73688367D01*
X148987808Y-73646017D01*
X148990905Y-73642920D01*
X149053217Y-73608894D01*
X149124032Y-73613959D01*
X149169095Y-73642920D01*
X149172192Y-73646017D01*
X149235575Y-73688368D01*
X149258066Y-73697684D01*
X149313915Y-73708793D01*
X149326170Y-73710000D01*
X149569885Y-73710000D01*
X149585124Y-73705525D01*
X149586329Y-73704135D01*
X149588000Y-73696452D01*
X149588000Y-73691884D01*
X149842000Y-73691884D01*
X149846475Y-73707123D01*
X149847865Y-73708328D01*
X149855548Y-73709999D01*
X150103828Y-73709999D01*
X150116088Y-73708791D01*
X150171931Y-73697685D01*
X150194427Y-73688367D01*
X150257808Y-73646017D01*
X150275017Y-73628808D01*
X150317368Y-73565425D01*
X150326684Y-73542934D01*
X150337793Y-73487085D01*
X150339000Y-73474830D01*
X150339000Y-72401115D01*
X150334525Y-72385876D01*
X150333135Y-72384671D01*
X150325452Y-72383000D01*
X149860115Y-72383000D01*
X149844876Y-72387475D01*
X149843671Y-72388865D01*
X149842000Y-72396548D01*
X149842000Y-73691884D01*
X149588000Y-73691884D01*
X149588000Y-72401115D01*
X149583525Y-72385876D01*
X149582135Y-72384671D01*
X149574452Y-72383000D01*
X149091001Y-72383000D01*
X149091001Y-72381579D01*
X149069000Y-72382365D01*
X149069000Y-72383000D01*
X148590115Y-72383000D01*
X148574876Y-72387475D01*
X148573671Y-72388865D01*
X148572000Y-72396548D01*
X148572000Y-73691884D01*
X148318000Y-73691884D01*
X148318000Y-72401115D01*
X148313525Y-72385876D01*
X148312135Y-72384671D01*
X148304452Y-72383000D01*
X147821001Y-72383000D01*
X147821001Y-72381579D01*
X147799000Y-72382365D01*
X147799000Y-72383000D01*
X147320115Y-72383000D01*
X147304876Y-72387475D01*
X147303671Y-72388865D01*
X147302000Y-72396548D01*
X147302000Y-73691884D01*
X147048000Y-73691884D01*
X147048000Y-72401115D01*
X147043525Y-72385876D01*
X147042135Y-72384671D01*
X147034452Y-72383000D01*
X146551001Y-72383000D01*
X146551001Y-72381579D01*
X146529000Y-72382365D01*
X146529000Y-72383000D01*
X146050115Y-72383000D01*
X146034876Y-72387475D01*
X146033671Y-72388865D01*
X146032000Y-72396548D01*
X146032000Y-73691884D01*
X145778000Y-73691884D01*
X145778000Y-72401115D01*
X145773525Y-72385876D01*
X145772135Y-72384671D01*
X145764452Y-72383000D01*
X145281001Y-72383000D01*
X145281001Y-72381579D01*
X145259000Y-72382365D01*
X145259000Y-72383000D01*
X144780115Y-72383000D01*
X144764876Y-72387475D01*
X144763671Y-72388865D01*
X144762000Y-72396548D01*
X144762000Y-73691884D01*
X144508000Y-73691884D01*
X144508000Y-72401115D01*
X144503525Y-72385876D01*
X144502135Y-72384671D01*
X144494452Y-72383000D01*
X144011001Y-72383000D01*
X144011001Y-72381579D01*
X143989000Y-72382365D01*
X143989000Y-72383000D01*
X143510115Y-72383000D01*
X143494876Y-72387475D01*
X143493671Y-72388865D01*
X143492000Y-72396548D01*
X143492000Y-73691884D01*
X143238000Y-73691884D01*
X143238000Y-72401115D01*
X143233525Y-72385876D01*
X143232135Y-72384671D01*
X143224452Y-72383000D01*
X142741001Y-72383000D01*
X142741001Y-72381579D01*
X142719000Y-72382365D01*
X142719000Y-72383000D01*
X142240115Y-72383000D01*
X142224876Y-72387475D01*
X142223671Y-72388865D01*
X142222000Y-72396548D01*
X142222000Y-73691884D01*
X141968000Y-73691884D01*
X141968000Y-72401115D01*
X141963525Y-72385876D01*
X141962135Y-72384671D01*
X141954452Y-72383000D01*
X141471001Y-72383000D01*
X141471001Y-72381579D01*
X141449000Y-72382365D01*
X141449000Y-72383000D01*
X140970115Y-72383000D01*
X140954876Y-72387475D01*
X140953671Y-72388865D01*
X140952000Y-72396548D01*
X140952000Y-73691884D01*
X140698000Y-73691884D01*
X140698000Y-72401115D01*
X140693525Y-72385876D01*
X140692135Y-72384671D01*
X140684452Y-72383000D01*
X140201001Y-72383000D01*
X140201001Y-72381579D01*
X140179000Y-72382365D01*
X140179000Y-72383000D01*
X139700115Y-72383000D01*
X139684876Y-72387475D01*
X139683671Y-72388865D01*
X139682000Y-72396548D01*
X139682000Y-73691884D01*
X139428000Y-73691884D01*
X139428000Y-72110885D01*
X139682000Y-72110885D01*
X139686475Y-72126124D01*
X139687865Y-72127329D01*
X139695548Y-72129000D01*
X140178999Y-72129000D01*
X140178999Y-72130421D01*
X140201000Y-72129635D01*
X140201000Y-72129000D01*
X140679885Y-72129000D01*
X140695124Y-72124525D01*
X140696329Y-72123135D01*
X140698000Y-72115452D01*
X140698000Y-72110885D01*
X140952000Y-72110885D01*
X140956475Y-72126124D01*
X140957865Y-72127329D01*
X140965548Y-72129000D01*
X141448999Y-72129000D01*
X141448999Y-72130421D01*
X141471000Y-72129635D01*
X141471000Y-72129000D01*
X141949885Y-72129000D01*
X141965124Y-72124525D01*
X141966329Y-72123135D01*
X141968000Y-72115452D01*
X141968000Y-72110885D01*
X142222000Y-72110885D01*
X142226475Y-72126124D01*
X142227865Y-72127329D01*
X142235548Y-72129000D01*
X142718999Y-72129000D01*
X142718999Y-72130421D01*
X142741000Y-72129635D01*
X142741000Y-72129000D01*
X143219885Y-72129000D01*
X143235124Y-72124525D01*
X143236329Y-72123135D01*
X143238000Y-72115452D01*
X143238000Y-72110885D01*
X143492000Y-72110885D01*
X143496475Y-72126124D01*
X143497865Y-72127329D01*
X143505548Y-72129000D01*
X143988999Y-72129000D01*
X143988999Y-72130421D01*
X144011000Y-72129635D01*
X144011000Y-72129000D01*
X144489885Y-72129000D01*
X144505124Y-72124525D01*
X144506329Y-72123135D01*
X144508000Y-72115452D01*
X144508000Y-72110885D01*
X144762000Y-72110885D01*
X144766475Y-72126124D01*
X144767865Y-72127329D01*
X144775548Y-72129000D01*
X145258999Y-72129000D01*
X145258999Y-72130421D01*
X145281000Y-72129635D01*
X145281000Y-72129000D01*
X145759885Y-72129000D01*
X145775124Y-72124525D01*
X145776329Y-72123135D01*
X145778000Y-72115452D01*
X145778000Y-72110885D01*
X146032000Y-72110885D01*
X146036475Y-72126124D01*
X146037865Y-72127329D01*
X146045548Y-72129000D01*
X146528999Y-72129000D01*
X146528999Y-72130421D01*
X146551000Y-72129635D01*
X146551000Y-72129000D01*
X147029885Y-72129000D01*
X147045124Y-72124525D01*
X147046329Y-72123135D01*
X147048000Y-72115452D01*
X147048000Y-72110885D01*
X147302000Y-72110885D01*
X147306475Y-72126124D01*
X147307865Y-72127329D01*
X147315548Y-72129000D01*
X147798999Y-72129000D01*
X147798999Y-72130421D01*
X147821000Y-72129635D01*
X147821000Y-72129000D01*
X148299885Y-72129000D01*
X148315124Y-72124525D01*
X148316329Y-72123135D01*
X148318000Y-72115452D01*
X148318000Y-72110885D01*
X148572000Y-72110885D01*
X148576475Y-72126124D01*
X148577865Y-72127329D01*
X148585548Y-72129000D01*
X149068999Y-72129000D01*
X149068999Y-72130421D01*
X149091000Y-72129635D01*
X149091000Y-72129000D01*
X149569885Y-72129000D01*
X149585124Y-72124525D01*
X149586329Y-72123135D01*
X149588000Y-72115452D01*
X149588000Y-72110885D01*
X149842000Y-72110885D01*
X149846475Y-72126124D01*
X149847865Y-72127329D01*
X149855548Y-72129000D01*
X150320884Y-72129000D01*
X150336123Y-72124525D01*
X150337328Y-72123135D01*
X150338999Y-72115452D01*
X150338999Y-71037172D01*
X150337791Y-71024912D01*
X150326685Y-70969069D01*
X150317367Y-70946573D01*
X150275017Y-70883192D01*
X150257808Y-70865983D01*
X150194425Y-70823632D01*
X150171934Y-70814316D01*
X150116085Y-70803207D01*
X150103830Y-70802000D01*
X149860115Y-70802000D01*
X149844876Y-70806475D01*
X149843671Y-70807865D01*
X149842000Y-70815548D01*
X149842000Y-72110885D01*
X149588000Y-72110885D01*
X149588000Y-70820116D01*
X149583525Y-70804877D01*
X149582135Y-70803672D01*
X149574452Y-70802001D01*
X149326172Y-70802001D01*
X149313912Y-70803209D01*
X149258069Y-70814315D01*
X149235573Y-70823633D01*
X149172192Y-70865983D01*
X149169095Y-70869080D01*
X149106783Y-70903106D01*
X149035968Y-70898041D01*
X148990905Y-70869080D01*
X148987808Y-70865983D01*
X148924425Y-70823632D01*
X148901934Y-70814316D01*
X148846085Y-70803207D01*
X148833830Y-70802000D01*
X148590115Y-70802000D01*
X148574876Y-70806475D01*
X148573671Y-70807865D01*
X148572000Y-70815548D01*
X148572000Y-72110885D01*
X148318000Y-72110885D01*
X148318000Y-70820116D01*
X148313525Y-70804877D01*
X148312135Y-70803672D01*
X148304452Y-70802001D01*
X148056172Y-70802001D01*
X148043912Y-70803209D01*
X147988069Y-70814315D01*
X147965573Y-70823633D01*
X147902192Y-70865983D01*
X147899095Y-70869080D01*
X147836783Y-70903106D01*
X147765968Y-70898041D01*
X147720905Y-70869080D01*
X147717808Y-70865983D01*
X147654425Y-70823632D01*
X147631934Y-70814316D01*
X147576085Y-70803207D01*
X147563830Y-70802000D01*
X147320115Y-70802000D01*
X147304876Y-70806475D01*
X147303671Y-70807865D01*
X147302000Y-70815548D01*
X147302000Y-72110885D01*
X147048000Y-72110885D01*
X147048000Y-70820116D01*
X147043525Y-70804877D01*
X147042135Y-70803672D01*
X147034452Y-70802001D01*
X146786172Y-70802001D01*
X146773912Y-70803209D01*
X146718069Y-70814315D01*
X146695573Y-70823633D01*
X146632192Y-70865983D01*
X146629095Y-70869080D01*
X146566783Y-70903106D01*
X146495968Y-70898041D01*
X146450905Y-70869080D01*
X146447808Y-70865983D01*
X146384425Y-70823632D01*
X146361934Y-70814316D01*
X146306085Y-70803207D01*
X146293830Y-70802000D01*
X146050115Y-70802000D01*
X146034876Y-70806475D01*
X146033671Y-70807865D01*
X146032000Y-70815548D01*
X146032000Y-72110885D01*
X145778000Y-72110885D01*
X145778000Y-70820116D01*
X145773525Y-70804877D01*
X145772135Y-70803672D01*
X145764452Y-70802001D01*
X145516172Y-70802001D01*
X145503912Y-70803209D01*
X145448069Y-70814315D01*
X145425573Y-70823633D01*
X145362192Y-70865983D01*
X145359095Y-70869080D01*
X145296783Y-70903106D01*
X145225968Y-70898041D01*
X145180905Y-70869080D01*
X145177808Y-70865983D01*
X145114425Y-70823632D01*
X145091934Y-70814316D01*
X145036085Y-70803207D01*
X145023830Y-70802000D01*
X144780115Y-70802000D01*
X144764876Y-70806475D01*
X144763671Y-70807865D01*
X144762000Y-70815548D01*
X144762000Y-72110885D01*
X144508000Y-72110885D01*
X144508000Y-70820116D01*
X144503525Y-70804877D01*
X144502135Y-70803672D01*
X144494452Y-70802001D01*
X144246172Y-70802001D01*
X144233912Y-70803209D01*
X144178069Y-70814315D01*
X144155573Y-70823633D01*
X144092192Y-70865983D01*
X144089095Y-70869080D01*
X144026783Y-70903106D01*
X143955968Y-70898041D01*
X143910905Y-70869080D01*
X143907808Y-70865983D01*
X143844425Y-70823632D01*
X143821934Y-70814316D01*
X143766085Y-70803207D01*
X143753830Y-70802000D01*
X143510115Y-70802000D01*
X143494876Y-70806475D01*
X143493671Y-70807865D01*
X143492000Y-70815548D01*
X143492000Y-72110885D01*
X143238000Y-72110885D01*
X143238000Y-70820116D01*
X143233525Y-70804877D01*
X143232135Y-70803672D01*
X143224452Y-70802001D01*
X142976172Y-70802001D01*
X142963912Y-70803209D01*
X142908069Y-70814315D01*
X142885573Y-70823633D01*
X142822192Y-70865983D01*
X142819095Y-70869080D01*
X142756783Y-70903106D01*
X142685968Y-70898041D01*
X142640905Y-70869080D01*
X142637808Y-70865983D01*
X142574425Y-70823632D01*
X142551934Y-70814316D01*
X142496085Y-70803207D01*
X142483830Y-70802000D01*
X142240115Y-70802000D01*
X142224876Y-70806475D01*
X142223671Y-70807865D01*
X142222000Y-70815548D01*
X142222000Y-72110885D01*
X141968000Y-72110885D01*
X141968000Y-70820116D01*
X141963525Y-70804877D01*
X141962135Y-70803672D01*
X141954452Y-70802001D01*
X141706172Y-70802001D01*
X141693912Y-70803209D01*
X141638069Y-70814315D01*
X141615573Y-70823633D01*
X141552192Y-70865983D01*
X141549095Y-70869080D01*
X141486783Y-70903106D01*
X141415968Y-70898041D01*
X141370905Y-70869080D01*
X141367808Y-70865983D01*
X141304425Y-70823632D01*
X141281934Y-70814316D01*
X141226085Y-70803207D01*
X141213830Y-70802000D01*
X140970115Y-70802000D01*
X140954876Y-70806475D01*
X140953671Y-70807865D01*
X140952000Y-70815548D01*
X140952000Y-72110885D01*
X140698000Y-72110885D01*
X140698000Y-70820116D01*
X140693525Y-70804877D01*
X140692135Y-70803672D01*
X140684452Y-70802001D01*
X140436172Y-70802001D01*
X140423912Y-70803209D01*
X140368069Y-70814315D01*
X140345573Y-70823633D01*
X140282192Y-70865983D01*
X140279095Y-70869080D01*
X140216783Y-70903106D01*
X140145968Y-70898041D01*
X140100905Y-70869080D01*
X140097808Y-70865983D01*
X140034425Y-70823632D01*
X140011934Y-70814316D01*
X139956085Y-70803207D01*
X139943830Y-70802000D01*
X139700115Y-70802000D01*
X139684876Y-70806475D01*
X139683671Y-70807865D01*
X139682000Y-70815548D01*
X139682000Y-72110885D01*
X139428000Y-72110885D01*
X139428000Y-70820116D01*
X139423525Y-70804877D01*
X139422135Y-70803672D01*
X139414452Y-70802001D01*
X139166172Y-70802001D01*
X139153912Y-70803209D01*
X139098069Y-70814315D01*
X139075573Y-70823633D01*
X139012192Y-70865983D01*
X139009455Y-70868720D01*
X139002019Y-70872781D01*
X139001876Y-70872876D01*
X139001867Y-70872863D01*
X138947143Y-70902746D01*
X138876328Y-70897681D01*
X138839472Y-70873994D01*
X138838484Y-70872516D01*
X138754301Y-70816266D01*
X138680067Y-70801500D01*
X138285064Y-70801500D01*
X137889934Y-70801501D01*
X137854182Y-70808612D01*
X137827874Y-70813844D01*
X137827872Y-70813845D01*
X137815699Y-70816266D01*
X137805379Y-70823161D01*
X137805378Y-70823162D01*
X137744985Y-70863516D01*
X137731516Y-70872516D01*
X137675266Y-70956699D01*
X137660500Y-71030933D01*
X137660500Y-71037120D01*
X137660501Y-72291615D01*
X137640499Y-72359736D01*
X137623596Y-72380710D01*
X136870711Y-73133595D01*
X136808399Y-73167621D01*
X136781616Y-73170500D01*
X132675499Y-73170500D01*
X132607378Y-73150498D01*
X132560885Y-73096842D01*
X132549499Y-73044500D01*
X132549499Y-72674934D01*
X132534734Y-72600699D01*
X132508654Y-72561667D01*
X132485377Y-72526832D01*
X132478484Y-72516516D01*
X132394301Y-72460266D01*
X132320067Y-72445500D01*
X131445142Y-72445500D01*
X130569934Y-72445501D01*
X130534182Y-72452612D01*
X130507874Y-72457844D01*
X130507872Y-72457845D01*
X130495699Y-72460266D01*
X130485379Y-72467161D01*
X130485378Y-72467162D01*
X130424985Y-72507516D01*
X130411516Y-72516516D01*
X130355266Y-72600699D01*
X130340500Y-72674933D01*
X130340500Y-73057829D01*
X130320498Y-73125950D01*
X130266842Y-73172443D01*
X130249661Y-73178824D01*
X130248003Y-73179306D01*
X130237659Y-73180530D01*
X130229407Y-73184493D01*
X130220374Y-73185996D01*
X130211205Y-73190943D01*
X130211203Y-73190944D01*
X130175268Y-73210334D01*
X130169975Y-73213031D01*
X130123767Y-73235219D01*
X130123037Y-73233699D01*
X130064039Y-73251162D01*
X129995875Y-73231308D01*
X129949265Y-73177753D01*
X129942497Y-73159367D01*
X129940557Y-73152487D01*
X129927471Y-73125950D01*
X129853331Y-72975609D01*
X129850776Y-72970428D01*
X129729320Y-72807779D01*
X129580258Y-72669987D01*
X129575375Y-72666906D01*
X129575371Y-72666903D01*
X129413464Y-72564748D01*
X129408581Y-72561667D01*
X129220039Y-72486446D01*
X129214379Y-72485320D01*
X129214375Y-72485319D01*
X129026613Y-72447971D01*
X129026610Y-72447971D01*
X129020946Y-72446844D01*
X129015171Y-72446768D01*
X129015167Y-72446768D01*
X128913793Y-72445441D01*
X128817971Y-72444187D01*
X128812274Y-72445166D01*
X128812273Y-72445166D01*
X128724397Y-72460266D01*
X128617910Y-72478564D01*
X128427463Y-72548824D01*
X128253010Y-72652612D01*
X128248670Y-72656418D01*
X128248666Y-72656421D01*
X128104733Y-72782648D01*
X128100392Y-72786455D01*
X128096817Y-72790990D01*
X128096816Y-72790991D01*
X127978950Y-72940503D01*
X127921069Y-72981616D01*
X127850149Y-72984910D01*
X127788706Y-72949338D01*
X127756249Y-72886195D01*
X127754000Y-72862497D01*
X127754000Y-70037425D01*
X127756421Y-70012844D01*
X127756555Y-70012170D01*
X127758976Y-70000000D01*
X127756555Y-69987829D01*
X127756555Y-69975419D01*
X127757198Y-69975419D01*
X127756527Y-69964674D01*
X127771129Y-69760509D01*
X127773687Y-69742715D01*
X127822810Y-69516899D01*
X127827875Y-69499650D01*
X127908633Y-69283127D01*
X127916102Y-69266774D01*
X128026852Y-69063951D01*
X128036571Y-69048827D01*
X128175063Y-68863824D01*
X128186836Y-68850238D01*
X128350238Y-68686836D01*
X128363824Y-68675063D01*
X128548827Y-68536571D01*
X128563951Y-68526852D01*
X128766774Y-68416102D01*
X128783123Y-68408635D01*
X128916852Y-68358757D01*
X128999650Y-68327875D01*
X129016899Y-68322810D01*
X129242715Y-68273687D01*
X129260509Y-68271129D01*
X129464674Y-68256527D01*
X129475419Y-68257198D01*
X129475419Y-68256555D01*
X129487829Y-68256555D01*
X129500000Y-68258976D01*
X129512847Y-68256421D01*
X129537425Y-68254000D01*
X168462575Y-68254000D01*
X168487153Y-68256421D01*
G37*
%TD.AperFunction*%
%TA.AperFunction,Conductor*%
G36*
X133852743Y-86940851D02*
G01*
X133903903Y-86990077D01*
X133920500Y-87052582D01*
X133920500Y-88190616D01*
X133900498Y-88258737D01*
X133883595Y-88279711D01*
X131916533Y-90246773D01*
X131854221Y-90280799D01*
X131780748Y-90274708D01*
X131765403Y-90268586D01*
X131760039Y-90266446D01*
X131754379Y-90265320D01*
X131754375Y-90265319D01*
X131566613Y-90227971D01*
X131566610Y-90227971D01*
X131560946Y-90226844D01*
X131555171Y-90226768D01*
X131555167Y-90226768D01*
X131453793Y-90225441D01*
X131357971Y-90224187D01*
X131352274Y-90225166D01*
X131352273Y-90225166D01*
X131226529Y-90246773D01*
X131157910Y-90258564D01*
X130967463Y-90328824D01*
X130962502Y-90331776D01*
X130962501Y-90331776D01*
X130948721Y-90339974D01*
X130793010Y-90432612D01*
X130788671Y-90436418D01*
X130788659Y-90436426D01*
X130788580Y-90436496D01*
X130788535Y-90436517D01*
X130783991Y-90439818D01*
X130783343Y-90438926D01*
X130724177Y-90466375D01*
X130653844Y-90456692D01*
X130599911Y-90410520D01*
X130579500Y-90341767D01*
X130579500Y-89775886D01*
X130599502Y-89707765D01*
X130653158Y-89661272D01*
X130723432Y-89651168D01*
X130775502Y-89671121D01*
X130795308Y-89684355D01*
X130915720Y-89764812D01*
X130921023Y-89767090D01*
X130921026Y-89767092D01*
X131009707Y-89805192D01*
X131102228Y-89844942D01*
X131161156Y-89858276D01*
X131294579Y-89888467D01*
X131294584Y-89888468D01*
X131300216Y-89889742D01*
X131305987Y-89889969D01*
X131305989Y-89889969D01*
X131365756Y-89892317D01*
X131503053Y-89897712D01*
X131607272Y-89882601D01*
X131698231Y-89869413D01*
X131698236Y-89869412D01*
X131703945Y-89868584D01*
X131709409Y-89866729D01*
X131709414Y-89866728D01*
X131890693Y-89805192D01*
X131890698Y-89805190D01*
X131896165Y-89803334D01*
X131902019Y-89800056D01*
X132014491Y-89737068D01*
X132073276Y-89704147D01*
X132094846Y-89686208D01*
X132224913Y-89578031D01*
X132229345Y-89574345D01*
X132308466Y-89479213D01*
X132355453Y-89422718D01*
X132355455Y-89422715D01*
X132359147Y-89418276D01*
X132430018Y-89291727D01*
X132455510Y-89246208D01*
X132455511Y-89246206D01*
X132458334Y-89241165D01*
X132460190Y-89235698D01*
X132460192Y-89235693D01*
X132521728Y-89054414D01*
X132521729Y-89054409D01*
X132523584Y-89048945D01*
X132524412Y-89043236D01*
X132524413Y-89043231D01*
X132542228Y-88920358D01*
X132552712Y-88848053D01*
X132554232Y-88790000D01*
X132535658Y-88587859D01*
X132531745Y-88573986D01*
X132482127Y-88398053D01*
X132482126Y-88398051D01*
X132480557Y-88392487D01*
X132481058Y-88392346D01*
X132475618Y-88325289D01*
X132509894Y-88261800D01*
X133530216Y-87241478D01*
X133548964Y-87226336D01*
X133550189Y-87225221D01*
X133558940Y-87219571D01*
X133565387Y-87211393D01*
X133565389Y-87211391D01*
X133579729Y-87193200D01*
X133583678Y-87188756D01*
X133583604Y-87188694D01*
X133586957Y-87184737D01*
X133590638Y-87181056D01*
X133601865Y-87165346D01*
X133605421Y-87160609D01*
X133630708Y-87128532D01*
X133637156Y-87120353D01*
X133640189Y-87111716D01*
X133645513Y-87104266D01*
X133660202Y-87055151D01*
X133662034Y-87049514D01*
X133675618Y-87010833D01*
X133717061Y-86953188D01*
X133783091Y-86927100D01*
X133852743Y-86940851D01*
G37*
%TD.AperFunction*%
%TA.AperFunction,Conductor*%
G36*
X138147737Y-80799502D02*
G01*
X138194230Y-80853158D01*
X138204334Y-80923432D01*
X138174840Y-80988012D01*
X138168711Y-80994595D01*
X133069784Y-86093522D01*
X133051036Y-86108664D01*
X133049811Y-86109779D01*
X133041060Y-86115429D01*
X133034613Y-86123607D01*
X133034611Y-86123609D01*
X133020271Y-86141800D01*
X133016325Y-86146241D01*
X133016398Y-86146303D01*
X133013039Y-86150267D01*
X133009362Y-86153944D01*
X132998108Y-86169692D01*
X132994602Y-86174362D01*
X132962844Y-86214647D01*
X132959812Y-86223281D01*
X132954486Y-86230734D01*
X132951501Y-86240715D01*
X132939799Y-86279844D01*
X132937964Y-86285492D01*
X132931814Y-86303006D01*
X132920982Y-86333851D01*
X132920500Y-86339416D01*
X132920500Y-86342124D01*
X132920386Y-86344758D01*
X132920357Y-86344856D01*
X132920193Y-86344849D01*
X132920149Y-86345553D01*
X132918287Y-86351778D01*
X132918696Y-86362183D01*
X132920403Y-86405635D01*
X132920500Y-86410582D01*
X132920500Y-86725616D01*
X132900498Y-86793737D01*
X132883595Y-86814711D01*
X131970144Y-87728162D01*
X131907832Y-87762188D01*
X131834360Y-87756097D01*
X131760039Y-87726446D01*
X131754379Y-87725320D01*
X131754375Y-87725319D01*
X131566613Y-87687971D01*
X131566610Y-87687971D01*
X131560946Y-87686844D01*
X131555171Y-87686768D01*
X131555167Y-87686768D01*
X131453793Y-87685441D01*
X131357971Y-87684187D01*
X131352274Y-87685166D01*
X131352273Y-87685166D01*
X131211264Y-87709396D01*
X131157910Y-87718564D01*
X130967463Y-87788824D01*
X130912718Y-87821393D01*
X130843950Y-87839033D01*
X130776560Y-87816693D01*
X130731946Y-87761465D01*
X130724272Y-87690884D01*
X130731888Y-87664891D01*
X130737067Y-87652386D01*
X130737069Y-87652380D01*
X130740228Y-87644754D01*
X130752966Y-87548002D01*
X130758207Y-87508188D01*
X130759285Y-87500000D01*
X130740416Y-87356675D01*
X130751355Y-87286528D01*
X130798483Y-87233429D01*
X130866837Y-87214239D01*
X130914885Y-87226756D01*
X130915720Y-87224812D01*
X131005383Y-87263334D01*
X131102228Y-87304942D01*
X131161156Y-87318276D01*
X131294579Y-87348467D01*
X131294584Y-87348468D01*
X131300216Y-87349742D01*
X131305987Y-87349969D01*
X131305989Y-87349969D01*
X131365756Y-87352317D01*
X131503053Y-87357712D01*
X131607272Y-87342601D01*
X131698231Y-87329413D01*
X131698236Y-87329412D01*
X131703945Y-87328584D01*
X131709409Y-87326729D01*
X131709414Y-87326728D01*
X131890693Y-87265192D01*
X131890698Y-87265190D01*
X131896165Y-87263334D01*
X131907617Y-87256921D01*
X132025348Y-87190988D01*
X132073276Y-87164147D01*
X132094846Y-87146208D01*
X132204902Y-87054674D01*
X132229345Y-87034345D01*
X132308466Y-86939213D01*
X132355453Y-86882718D01*
X132355455Y-86882715D01*
X132359147Y-86878276D01*
X132430018Y-86751727D01*
X132455510Y-86706208D01*
X132455511Y-86706206D01*
X132458334Y-86701165D01*
X132460190Y-86695698D01*
X132460192Y-86695693D01*
X132521728Y-86514414D01*
X132521729Y-86514409D01*
X132523584Y-86508945D01*
X132524412Y-86503236D01*
X132524413Y-86503231D01*
X132543430Y-86372067D01*
X132552712Y-86308053D01*
X132554232Y-86250000D01*
X132538905Y-86083199D01*
X132536187Y-86053613D01*
X132536186Y-86053610D01*
X132535658Y-86047859D01*
X132506019Y-85942766D01*
X132480557Y-85852487D01*
X132482128Y-85852044D01*
X132477005Y-85788902D01*
X132511281Y-85725413D01*
X137420289Y-80816405D01*
X137482601Y-80782379D01*
X137509384Y-80779500D01*
X138079616Y-80779500D01*
X138147737Y-80799502D01*
G37*
%TD.AperFunction*%
%TA.AperFunction,Conductor*%
G36*
X136847737Y-80099502D02*
G01*
X136894230Y-80153158D01*
X136904334Y-80223432D01*
X136874840Y-80288012D01*
X136868711Y-80294595D01*
X131973718Y-85189588D01*
X131911406Y-85223614D01*
X131837934Y-85217523D01*
X131760039Y-85186446D01*
X131754371Y-85185319D01*
X131754369Y-85185318D01*
X131566613Y-85147971D01*
X131566610Y-85147971D01*
X131560946Y-85146844D01*
X131555171Y-85146768D01*
X131555167Y-85146768D01*
X131453793Y-85145441D01*
X131357971Y-85144187D01*
X131352274Y-85145166D01*
X131352273Y-85145166D01*
X131211264Y-85169396D01*
X131157910Y-85178564D01*
X130967463Y-85248824D01*
X130962502Y-85251776D01*
X130962501Y-85251776D01*
X130948721Y-85259974D01*
X130793010Y-85352612D01*
X130788671Y-85356418D01*
X130788659Y-85356426D01*
X130788580Y-85356496D01*
X130788535Y-85356517D01*
X130783991Y-85359818D01*
X130783343Y-85358926D01*
X130724177Y-85386375D01*
X130653844Y-85376692D01*
X130599911Y-85330520D01*
X130579500Y-85261767D01*
X130579500Y-84695886D01*
X130599502Y-84627765D01*
X130653158Y-84581272D01*
X130723432Y-84571168D01*
X130775502Y-84591121D01*
X130790534Y-84601165D01*
X130915720Y-84684812D01*
X130921023Y-84687090D01*
X130921026Y-84687092D01*
X131009707Y-84725192D01*
X131102228Y-84764942D01*
X131161156Y-84778276D01*
X131294579Y-84808467D01*
X131294584Y-84808468D01*
X131300216Y-84809742D01*
X131305987Y-84809969D01*
X131305989Y-84809969D01*
X131365756Y-84812317D01*
X131503053Y-84817712D01*
X131607272Y-84802601D01*
X131698231Y-84789413D01*
X131698236Y-84789412D01*
X131703945Y-84788584D01*
X131709409Y-84786729D01*
X131709414Y-84786728D01*
X131890693Y-84725192D01*
X131890698Y-84725190D01*
X131896165Y-84723334D01*
X131902019Y-84720056D01*
X131971470Y-84681161D01*
X132073276Y-84624147D01*
X132094846Y-84606208D01*
X132224913Y-84498031D01*
X132229345Y-84494345D01*
X132308466Y-84399213D01*
X132355453Y-84342718D01*
X132355455Y-84342715D01*
X132359147Y-84338276D01*
X132430018Y-84211727D01*
X132455510Y-84166208D01*
X132455511Y-84166206D01*
X132458334Y-84161165D01*
X132460190Y-84155698D01*
X132460192Y-84155693D01*
X132521728Y-83974414D01*
X132521729Y-83974409D01*
X132523584Y-83968945D01*
X132524412Y-83963236D01*
X132524413Y-83963231D01*
X132552179Y-83771727D01*
X132552712Y-83768053D01*
X132554232Y-83710000D01*
X132535658Y-83507859D01*
X132534089Y-83502295D01*
X132488207Y-83339609D01*
X132488967Y-83268617D01*
X132520381Y-83216313D01*
X135620289Y-80116405D01*
X135682601Y-80082379D01*
X135709384Y-80079500D01*
X136779616Y-80079500D01*
X136847737Y-80099502D01*
G37*
%TD.AperFunction*%
%TA.AperFunction,Conductor*%
G36*
X139625874Y-81299502D02*
G01*
X139672367Y-81353158D01*
X139682471Y-81423432D01*
X139652977Y-81488012D01*
X139605972Y-81521909D01*
X139569575Y-81536985D01*
X139569573Y-81536986D01*
X139561947Y-81540145D01*
X139446115Y-81629026D01*
X139441092Y-81635572D01*
X139421757Y-81660770D01*
X139357234Y-81744858D01*
X139354075Y-81752484D01*
X139354074Y-81752486D01*
X139325404Y-81821702D01*
X139301361Y-81879746D01*
X139300284Y-81887930D01*
X139300283Y-81887932D01*
X139298431Y-81902001D01*
X139282304Y-82024500D01*
X139283382Y-82032688D01*
X139288295Y-82070004D01*
X139277356Y-82140153D01*
X139268138Y-82156452D01*
X139250266Y-82183199D01*
X139235500Y-82257433D01*
X139235501Y-84707566D01*
X139238915Y-84724730D01*
X139247072Y-84765740D01*
X139250266Y-84781801D01*
X139257161Y-84792120D01*
X139257162Y-84792122D01*
X139274261Y-84817712D01*
X139306516Y-84865984D01*
X139316832Y-84872877D01*
X139316833Y-84872878D01*
X139342062Y-84889736D01*
X139387589Y-84944213D01*
X139396436Y-85014656D01*
X139365795Y-85078700D01*
X139305392Y-85116011D01*
X139272059Y-85120500D01*
X135453920Y-85120500D01*
X135429973Y-85117951D01*
X135428307Y-85117872D01*
X135418124Y-85115680D01*
X135413998Y-85116168D01*
X135350344Y-85094170D01*
X135306431Y-85038383D01*
X135299650Y-84967711D01*
X135334289Y-84902405D01*
X138920289Y-81316405D01*
X138982601Y-81282379D01*
X139009384Y-81279500D01*
X139557753Y-81279500D01*
X139625874Y-81299502D01*
G37*
%TD.AperFunction*%
%TA.AperFunction,Conductor*%
G36*
X135047737Y-79399502D02*
G01*
X135094230Y-79453158D01*
X135104334Y-79523432D01*
X135074840Y-79588012D01*
X135068711Y-79594595D01*
X132002311Y-82660995D01*
X131939999Y-82695021D01*
X131866526Y-82688930D01*
X131765403Y-82648586D01*
X131760039Y-82646446D01*
X131754379Y-82645320D01*
X131754375Y-82645319D01*
X131566613Y-82607971D01*
X131566610Y-82607971D01*
X131560946Y-82606844D01*
X131555171Y-82606768D01*
X131555167Y-82606768D01*
X131453793Y-82605441D01*
X131357971Y-82604187D01*
X131352274Y-82605166D01*
X131352273Y-82605166D01*
X131211264Y-82629396D01*
X131157910Y-82638564D01*
X130967463Y-82708824D01*
X130793010Y-82812612D01*
X130788671Y-82816418D01*
X130788659Y-82816426D01*
X130788580Y-82816496D01*
X130788535Y-82816517D01*
X130783991Y-82819818D01*
X130783343Y-82818926D01*
X130724177Y-82846375D01*
X130653844Y-82836692D01*
X130599911Y-82790520D01*
X130579500Y-82721767D01*
X130579500Y-82155886D01*
X130599502Y-82087765D01*
X130653158Y-82041272D01*
X130723432Y-82031168D01*
X130775502Y-82051121D01*
X130845420Y-82097839D01*
X130915720Y-82144812D01*
X130921023Y-82147090D01*
X130921026Y-82147092D01*
X131033406Y-82195374D01*
X131102228Y-82224942D01*
X131175244Y-82241464D01*
X131294579Y-82268467D01*
X131294584Y-82268468D01*
X131300216Y-82269742D01*
X131305987Y-82269969D01*
X131305989Y-82269969D01*
X131365756Y-82272317D01*
X131503053Y-82277712D01*
X131607272Y-82262601D01*
X131698231Y-82249413D01*
X131698236Y-82249412D01*
X131703945Y-82248584D01*
X131709409Y-82246729D01*
X131709414Y-82246728D01*
X131890693Y-82185192D01*
X131890698Y-82185190D01*
X131896165Y-82183334D01*
X131902019Y-82180056D01*
X131977202Y-82137951D01*
X132073276Y-82084147D01*
X132112986Y-82051121D01*
X132224913Y-81958031D01*
X132229345Y-81954345D01*
X132282537Y-81890389D01*
X132355453Y-81802718D01*
X132355455Y-81802715D01*
X132359147Y-81798276D01*
X132450263Y-81635577D01*
X132455510Y-81626208D01*
X132455511Y-81626206D01*
X132458334Y-81621165D01*
X132460190Y-81615698D01*
X132460192Y-81615693D01*
X132521728Y-81434414D01*
X132521729Y-81434409D01*
X132523584Y-81428945D01*
X132524412Y-81423236D01*
X132524413Y-81423231D01*
X132544835Y-81282379D01*
X132552712Y-81228053D01*
X132554232Y-81170000D01*
X132535658Y-80967859D01*
X132534090Y-80962299D01*
X132482127Y-80778053D01*
X132482126Y-80778051D01*
X132480557Y-80772487D01*
X132481058Y-80772346D01*
X132475618Y-80705289D01*
X132509894Y-80641800D01*
X133735289Y-79416405D01*
X133797601Y-79382379D01*
X133824384Y-79379500D01*
X134979616Y-79379500D01*
X135047737Y-79399502D01*
G37*
%TD.AperFunction*%
%TA.AperFunction,Conductor*%
G36*
X142162621Y-81299502D02*
G01*
X142209114Y-81353158D01*
X142220500Y-81405500D01*
X142220500Y-81902001D01*
X142200498Y-81970122D01*
X142146842Y-82016615D01*
X142094500Y-82028001D01*
X142004934Y-82028001D01*
X141970474Y-82034855D01*
X141942874Y-82040344D01*
X141942872Y-82040345D01*
X141930699Y-82042766D01*
X141920379Y-82049661D01*
X141920378Y-82049662D01*
X141851917Y-82095407D01*
X141784165Y-82116622D01*
X141715698Y-82097839D01*
X141668254Y-82045022D01*
X141656993Y-82007088D01*
X141641306Y-81887932D01*
X141641305Y-81887930D01*
X141640228Y-81879746D01*
X141616185Y-81821702D01*
X141587515Y-81752486D01*
X141587514Y-81752484D01*
X141584355Y-81744858D01*
X141539914Y-81686942D01*
X141500501Y-81635577D01*
X141500500Y-81635576D01*
X141495474Y-81629026D01*
X141488924Y-81624000D01*
X141488921Y-81623997D01*
X141386196Y-81545173D01*
X141386194Y-81545172D01*
X141379643Y-81540145D01*
X141335616Y-81521909D01*
X141280337Y-81477360D01*
X141257916Y-81409997D01*
X141275475Y-81341205D01*
X141327437Y-81292827D01*
X141383836Y-81279500D01*
X142094500Y-81279500D01*
X142162621Y-81299502D01*
G37*
%TD.AperFunction*%
%TD*%
M02*
