M48
; DRILL file {KiCad (6.0.1)} date Thu Jan 19 10:52:28 2023
; FORMAT={-:-/ absolute / inch / decimal}
; #@! TF.CreationDate,2023-01-19T10:52:28+01:00
; #@! TF.GenerationSoftware,Kicad,Pcbnew,(6.0.1)
; #@! TF.FileFunction,Plated,1,2,PTH
FMAT,2
INCH
; #@! TA.AperFunction,Plated,PTH,ViaDrill
T1C0.0118
; #@! TA.AperFunction,Plated,PTH,ViaDrill
T2C0.0157
; #@! TA.AperFunction,Plated,PTH,ComponentDrill
T3C0.0300
; #@! TA.AperFunction,Plated,PTH,ComponentDrill
T4C0.0394
%
G90
G05
T1
X5.126Y-3.4449
X5.2441Y-3.1732
X5.2441Y-3.2756
X5.2441Y-3.3701
X5.2441Y-3.4843
X5.4055Y-3.4449
X5.4055Y-3.4803
X5.4685Y-3.2283
X5.4685Y-3.5118
X5.5039Y-3.0771
X5.5039Y-3.1112
X5.5056Y-3.2293
X5.5079Y-3.5118
X5.5512Y-3.1378
X5.5547Y-3.5634
X5.5551Y-3.2293
X5.5794Y-3.4403
X5.5827Y-3.5906
X5.5866Y-3.2096
X5.6142Y-3.1811
X5.6306Y-3.4403
X5.6555Y-3.2293
X5.6818Y-3.4403
X5.7953Y-3.1417
X5.9094Y-3.2598
T2
X5.671Y-2.8447
T3
X5.637Y-3.7071
T4
X5.075Y-2.8957
X5.075Y-2.9957
X5.075Y-3.0957
X5.075Y-3.1957
X5.075Y-3.2957
X5.075Y-3.3957
X5.075Y-3.4957
X5.075Y-3.5957
X5.075Y-3.6957
X5.075Y-3.7957
X5.175Y-2.8957
X5.175Y-2.9957
X5.175Y-3.0957
X5.175Y-3.1957
X5.175Y-3.2957
X5.175Y-3.3957
X5.175Y-3.4957
X5.175Y-3.5957
X5.175Y-3.6957
X5.175Y-3.7957
X5.537Y-3.7071
X5.537Y-3.8071
X5.637Y-3.8071
X5.737Y-3.7071
X5.737Y-3.8071
X5.837Y-3.7071
X5.837Y-3.8071
X5.937Y-3.7071
X5.937Y-3.8071
X6.3228Y-3.313
X6.3228Y-3.413
X6.3228Y-3.513
X6.3228Y-3.613
X6.3228Y-3.713
X6.3228Y-3.813
T0
M30
